<svg width="1728" height="842" viewBox="0 0 1728 842" fill="none" xmlns="http://www.w3.org/2000/svg">
<path fill-rule="evenodd" clip-rule="evenodd" d="M1106.48 190.195L1095.48 200.062L1095.02 201.733L1094.96 214.361L1098.12 215.059L1110.45 204.06L1112.7 191.767L1106.48 190.195Z" fill="url(#paint0_linear_120_1808)"/>
<path fill-rule="evenodd" clip-rule="evenodd" d="M1098.88 664.653L1097.67 644.084L1100.3 640.231L1111.49 639.609L1119.24 664.141L1109.9 671.5L1098.88 664.653Z" fill="url(#paint1_linear_120_1808)"/>
<path fill-rule="evenodd" clip-rule="evenodd" d="M628.242 613.796L637.275 591.533L634.421 587.106L620.136 590.547L617.811 603.376L628.242 613.796Z" fill="url(#paint2_linear_120_1808)"/>
<path fill-rule="evenodd" clip-rule="evenodd" d="M645.063 586.508L649.717 582.115L662.897 577.7L663.267 585.216L654.814 589.776L645.063 586.508Z" fill="url(#paint3_linear_120_1808)"/>
<path fill-rule="evenodd" clip-rule="evenodd" d="M548.463 470.79L554.605 465.217L560.394 466.354L558.251 476.86L548.427 483.255L548.463 470.79Z" fill="url(#paint4_linear_120_1808)"/>
<path fill-rule="evenodd" clip-rule="evenodd" d="M538.389 469.827L538.4 464.803L529.903 461.368L515.036 471.417L510.613 487.931L522.746 491.676L528.632 485.121L538.389 469.827Z" fill="url(#paint5_linear_120_1808)"/>
<path fill-rule="evenodd" clip-rule="evenodd" d="M504.582 562.409L512.239 553.905L517.545 555.951L516.901 567.198L505.299 570.207L504.582 562.409Z" fill="url(#paint6_linear_120_1808)"/>
<path fill-rule="evenodd" clip-rule="evenodd" d="M116.386 350.757L146.694 336.92L147.682 329.368L146.951 314.433L108.502 318.101L105.679 346.463L116.386 350.757Z" fill="url(#paint7_linear_120_1808)"/>
<path fill-rule="evenodd" clip-rule="evenodd" d="M124.145 356.135L130.098 350.466L135.859 353.045L133.265 364.535L123.731 365.16L124.145 356.135Z" fill="url(#paint8_linear_120_1808)"/>
<path fill-rule="evenodd" clip-rule="evenodd" d="M1223.68 457.507L1221.84 446.836L1227.89 442.128L1240.23 451.4L1234.57 464.219L1223.68 457.507Z" fill="url(#paint9_linear_120_1808)"/>
<path fill-rule="evenodd" clip-rule="evenodd" d="M642.635 362.782L646.303 356.98L653.038 357.056L653.715 364.232L647.165 371.222L642.635 362.782Z" fill="url(#paint10_linear_120_1808)"/>
<path fill-rule="evenodd" clip-rule="evenodd" d="M652.015 335.396L651.773 331.69L657.815 329.043L659.349 332.752L658.595 335.119L652.015 335.396Z" fill="url(#paint11_linear_120_1808)"/>
<path fill-rule="evenodd" clip-rule="evenodd" d="M637.297 379.034L631.712 374.486L620.267 377.065L621.176 383.704L632.57 385.219L637.297 379.034Z" fill="url(#paint12_linear_120_1808)"/>
<path fill-rule="evenodd" clip-rule="evenodd" d="M606.429 392.678L608.237 390.284L614.817 389.699L613.802 393.288L608.981 394.008L606.429 392.678Z" fill="url(#paint13_linear_120_1808)"/>
<path fill-rule="evenodd" clip-rule="evenodd" d="M1043.19 687.732L1031.41 677.704L1034.18 669.532L1057.73 667.66L1057.23 678.713L1043.19 687.732Z" fill="url(#paint14_linear_120_1808)"/>
<path fill-rule="evenodd" clip-rule="evenodd" d="M635.698 336.935L621.308 334.08L616.26 338.706L619.988 348.795L630.961 349.211L635.698 336.935Z" fill="url(#paint15_linear_120_1808)"/>
<path fill-rule="evenodd" clip-rule="evenodd" d="M555.109 450.87L556.937 417.92L572.49 409.264L597.336 439.47L575.08 464.317L555.109 450.87Z" fill="url(#paint16_linear_120_1808)"/>
<path fill-rule="evenodd" clip-rule="evenodd" d="M555.109 450.87L584.688 438.123L597.336 439.47L575.08 464.318L555.109 450.87Z" fill="#57198A"/>
<g style="mix-blend-mode:screen" opacity="0.5">
<path fill-rule="evenodd" clip-rule="evenodd" d="M572.49 409.264L570.82 415.233L584.688 438.123L597.336 439.47L572.49 409.264Z" fill="#D7B2FF"/>
</g>
<path fill-rule="evenodd" clip-rule="evenodd" d="M575.656 442.014L582.615 434.675L588.314 438.503L575.656 442.014Z" fill="#430F3F"/>
<path fill-rule="evenodd" clip-rule="evenodd" d="M1234.57 464.219L1223.68 457.506L1234.82 452.896L1240.23 451.399L1234.57 464.219Z" fill="#57198A"/>
<g style="mix-blend-mode:soft-light">
<path fill-rule="evenodd" clip-rule="evenodd" d="M1227.89 442.128L1226.17 443.989L1233.35 453.51L1240.23 451.4L1227.89 442.128Z" fill="#BF81FF"/>
</g>
<path fill-rule="evenodd" clip-rule="evenodd" d="M1229.68 455.02L1231.49 451.061L1236.9 452.434L1229.68 455.02Z" fill="#430F3F"/>
<g style="mix-blend-mode:soft-light">
<path fill-rule="evenodd" clip-rule="evenodd" d="M1106.48 190.195L1106.59 201.303L1110.45 204.06L1112.7 191.767L1106.48 190.195Z" fill="#BF81FF"/>
</g>
<g style="mix-blend-mode:soft-light">
<path fill-rule="evenodd" clip-rule="evenodd" d="M1031.41 677.704L1052.72 678.62L1057.73 667.66L1034.18 669.532L1031.41 677.704Z" fill="#BF81FF"/>
</g>
<g style="mix-blend-mode:soft-light">
<path fill-rule="evenodd" clip-rule="evenodd" d="M1100.3 640.232L1101.35 658.149L1107.35 662.585L1119.24 664.142L1111.49 639.61L1100.3 640.232Z" fill="#BF81FF"/>
</g>
<g style="mix-blend-mode:screen" opacity="0.5">
<path fill-rule="evenodd" clip-rule="evenodd" d="M646.302 356.979L645.747 361.221L648.699 364.594L653.714 364.231L653.038 357.055L646.302 356.979Z" fill="#D7B2FF"/>
</g>
<g style="mix-blend-mode:screen" opacity="0.5">
<path fill-rule="evenodd" clip-rule="evenodd" d="M657.815 329.043L654.415 331.562L654.131 333.729L658.595 335.119L659.349 332.753L657.815 329.043Z" fill="#D7B2FF"/>
</g>
<path fill-rule="evenodd" clip-rule="evenodd" d="M621.308 334.08L621.566 346.465L630.961 349.212L635.698 336.935L621.308 334.08Z" fill="#57198A"/>
<path fill-rule="evenodd" clip-rule="evenodd" d="M631.711 374.485L626.102 377.994L626.527 381.226L632.569 385.217L637.296 379.032L631.711 374.485Z" fill="#57198A"/>
<path fill-rule="evenodd" clip-rule="evenodd" d="M608.236 390.283L608.038 391.798L608.984 392.752L613.801 393.287L614.816 389.698L608.236 390.283Z" fill="#57198A"/>
<g style="mix-blend-mode:soft-light">
<path fill-rule="evenodd" clip-rule="evenodd" d="M649.716 582.114L654.641 588.306L663.265 585.215L662.896 577.699L649.716 582.114Z" fill="#E4D4CD"/>
</g>
<g style="mix-blend-mode:soft-light">
<path fill-rule="evenodd" clip-rule="evenodd" d="M634.421 587.106L622.526 597.9L623.849 605.232L628.241 613.796L637.274 591.533L634.421 587.106Z" fill="#E4D4CD"/>
</g>
<g style="mix-blend-mode:screen" opacity="0.5">
<path fill-rule="evenodd" clip-rule="evenodd" d="M560.393 466.354L554.672 469.943L551.238 473.808L548.426 483.255L558.25 476.86L560.393 466.354Z" fill="#D7B2FF"/>
</g>
<g style="mix-blend-mode:screen" opacity="0.5">
<path fill-rule="evenodd" clip-rule="evenodd" d="M538.401 464.803L527.238 466.305L516.426 475.155L517.483 484.207L522.746 491.676L528.633 485.121L538.39 469.827L538.401 464.803Z" fill="#D7B2FF"/>
</g>
<g style="mix-blend-mode:soft-light">
<path fill-rule="evenodd" clip-rule="evenodd" d="M146.95 314.432L131.626 319.182L120.73 344.26L146.693 336.919L147.682 329.367L146.95 314.432Z" fill="#BF81FF"/>
</g>
<g style="mix-blend-mode:soft-light">
<path fill-rule="evenodd" clip-rule="evenodd" d="M130.097 350.465L129.567 359.759L133.264 364.534L135.858 353.044L130.097 350.465Z" fill="#BF81FF"/>
</g>
<g style="mix-blend-mode:soft-light">
<path fill-rule="evenodd" clip-rule="evenodd" d="M512.238 553.905L511.015 563.251L516.901 567.198L517.545 555.951L512.238 553.905Z" fill="#E4D4CD"/>
</g>
<path fill-rule="evenodd" clip-rule="evenodd" d="M1052.72 678.62L1043.19 687.732L1057.23 678.713L1057.73 667.659L1052.72 678.62Z" fill="#57198A"/>
<path fill-rule="evenodd" clip-rule="evenodd" d="M1107.35 662.584L1098.88 664.652L1109.9 671.5L1119.24 664.141L1107.35 662.584Z" fill="#6C1E90"/>
<path fill-rule="evenodd" clip-rule="evenodd" d="M1094.96 214.36L1100.55 204.685L1106.59 201.303L1110.45 204.06L1098.12 215.059L1094.96 214.36Z" fill="#57198A"/>
<path fill-rule="evenodd" clip-rule="evenodd" d="M654.132 333.729L652.015 335.396L658.595 335.119L654.132 333.729Z" fill="#57198A"/>
<path fill-rule="evenodd" clip-rule="evenodd" d="M648.698 364.594L647.164 371.221L653.714 364.231L648.698 364.594Z" fill="#57198A"/>
<path fill-rule="evenodd" clip-rule="evenodd" d="M626.528 381.228L621.175 383.704L632.569 385.219L626.528 381.228Z" fill="#57198A"/>
<path fill-rule="evenodd" clip-rule="evenodd" d="M621.566 346.465L619.989 348.795L630.961 349.212L621.566 346.465Z" fill="#57198A"/>
<path fill-rule="evenodd" clip-rule="evenodd" d="M608.984 392.752L608.981 394.008L613.801 393.288L608.984 392.752Z" fill="#57198A"/>
<path fill-rule="evenodd" clip-rule="evenodd" d="M551.239 473.809L548.463 470.791L548.427 483.256L551.239 473.809Z" fill="#57198A"/>
<path fill-rule="evenodd" clip-rule="evenodd" d="M516.426 475.155L515.037 471.418L510.614 487.931L522.746 491.676L517.483 484.207L516.426 475.155Z" fill="#57198A"/>
<path fill-rule="evenodd" clip-rule="evenodd" d="M1234.3 479.071L1247.13 467.498L1259.2 469.837L1254.72 491.77L1234.22 505.065L1234.3 479.071Z" fill="url(#paint17_linear_120_1808)"/>
<path fill-rule="evenodd" clip-rule="evenodd" d="M1213.3 477.057L1213.32 466.582L1195.57 459.47L1164.6 480.403L1155.36 514.848L1180.68 522.619L1192.93 508.955L1213.3 477.057Z" fill="url(#paint18_linear_120_1808)"/>
<g style="mix-blend-mode:soft-light">
<path fill-rule="evenodd" clip-rule="evenodd" d="M1259.2 469.836L1247.24 477.326L1240.1 485.377L1234.21 505.065L1254.72 491.77L1259.2 469.836Z" fill="#BF81FF"/>
</g>
<g style="mix-blend-mode:soft-light">
<path fill-rule="evenodd" clip-rule="evenodd" d="M1213.32 466.581L1190.03 469.72L1167.49 488.201L1169.71 507.077L1180.68 522.618L1192.93 508.955L1213.3 477.057L1213.32 466.581Z" fill="#BF81FF"/>
</g>
<path fill-rule="evenodd" clip-rule="evenodd" d="M1240.1 485.377L1234.3 479.071L1234.21 505.065L1240.1 485.377Z" fill="#57198A"/>
<path fill-rule="evenodd" clip-rule="evenodd" d="M1167.49 488.202L1164.6 480.403L1155.36 514.848L1180.68 522.619L1169.71 507.077L1167.49 488.202Z" fill="#57198A"/>
<path fill-rule="evenodd" clip-rule="evenodd" d="M1564.35 323.631L1557.1 317.775L1541.09 330.52L1536.23 371.393L1554.27 399.309L1575.46 379.799L1573.69 360.626L1564.35 323.631Z" fill="url(#paint19_linear_120_1808)"/>
<g style="mix-blend-mode:soft-light">
<path fill-rule="evenodd" clip-rule="evenodd" d="M1557.1 317.775L1544.73 341.474L1543.43 373.023L1557.86 381.454L1575.46 379.799L1573.69 360.626L1564.35 323.631L1557.1 317.775Z" fill="#BF81FF"/>
</g>
<path fill-rule="evenodd" clip-rule="evenodd" d="M1543.43 373.022L1536.23 371.393L1554.27 399.309L1575.46 379.799L1557.86 381.454L1543.43 373.022Z" fill="#57198A"/>
<path fill-rule="evenodd" clip-rule="evenodd" d="M623.85 605.234L617.812 603.377L628.243 613.798L623.85 605.234Z" fill="#57198A"/>
<path fill-rule="evenodd" clip-rule="evenodd" d="M654.642 588.307L654.814 589.776L663.267 585.216L654.642 588.307Z" fill="#57198A"/>
<path fill-rule="evenodd" clip-rule="evenodd" d="M1503.76 408.582L1510.17 392.756L1508.14 389.598L1497.98 392.038L1496.32 401.161L1503.76 408.582Z" fill="url(#paint20_linear_120_1808)"/>
<path fill-rule="evenodd" clip-rule="evenodd" d="M1515.71 389.166L1519.02 386.044L1528.4 382.909L1528.67 388.255L1522.65 391.497L1515.71 389.166Z" fill="url(#paint21_linear_120_1808)"/>
<g style="mix-blend-mode:soft-light">
<path fill-rule="evenodd" clip-rule="evenodd" d="M1519.02 386.044L1522.53 390.461L1528.67 388.255L1528.4 382.909L1519.02 386.044Z" fill="#BF81FF"/>
</g>
<g style="mix-blend-mode:soft-light">
<path fill-rule="evenodd" clip-rule="evenodd" d="M1508.14 389.598L1499.68 397.262L1500.63 402.484L1503.75 408.582L1510.17 392.755L1508.14 389.598Z" fill="#BF81FF"/>
</g>
<path fill-rule="evenodd" clip-rule="evenodd" d="M1522.53 390.461L1522.65 391.497L1528.67 388.255L1522.53 390.461Z" fill="#57198A"/>
<path fill-rule="evenodd" clip-rule="evenodd" d="M511.016 563.251L505.299 570.208L516.901 567.198L511.016 563.251Z" fill="#57198A"/>
<path fill-rule="evenodd" clip-rule="evenodd" d="M129.567 359.759L123.731 365.159L133.264 364.534L129.567 359.759Z" fill="#57198A"/>
<path fill-rule="evenodd" clip-rule="evenodd" d="M120.73 344.26L105.678 346.463L116.386 350.756L146.693 336.919L120.73 344.26Z" fill="#57198A"/>
<path fill-rule="evenodd" clip-rule="evenodd" d="M1540.37 728.809L1546.32 723.14L1552.06 725.74L1549.48 737.233L1539.93 737.855L1540.37 728.809Z" fill="url(#paint22_linear_120_1808)"/>
<g style="mix-blend-mode:soft-light">
<path fill-rule="evenodd" clip-rule="evenodd" d="M1546.32 723.141L1545.77 732.456L1549.48 737.234L1552.06 725.741L1546.32 723.141Z" fill="#BF81FF"/>
</g>
<path fill-rule="evenodd" clip-rule="evenodd" d="M1545.77 732.456L1539.93 737.856L1549.48 737.233L1545.77 732.456Z" fill="#57198A"/>
<path fill-rule="evenodd" clip-rule="evenodd" d="M1599.88 736.74L1616.11 703.613L1612.69 697.31L1603.82 686.879L1575.54 718.714L1589.07 741.679L1599.88 736.74Z" fill="url(#paint23_linear_120_1808)"/>
<g style="mix-blend-mode:soft-light">
<path fill-rule="evenodd" clip-rule="evenodd" d="M1603.82 686.879L1594.39 702.002L1599.72 728.659L1616.11 703.612L1612.69 697.31L1603.82 686.879Z" fill="#BF81FF"/>
</g>
<path fill-rule="evenodd" clip-rule="evenodd" d="M1599.72 728.659L1589.07 741.678L1599.88 736.739L1616.11 703.612L1599.72 728.659Z" fill="#57198A"/>
<path fill-rule="evenodd" clip-rule="evenodd" d="M645.747 361.222L642.635 362.782L646.303 356.98L645.747 361.222Z" fill="#57198A"/>
<path fill-rule="evenodd" clip-rule="evenodd" d="M654.416 331.562L651.774 331.69L652.016 335.396L654.132 333.729L654.416 331.562Z" fill="#57198A"/>
<path fill-rule="evenodd" clip-rule="evenodd" d="M238.072 295.018L241.739 289.216L248.475 289.292L249.151 296.468L242.602 303.458L238.072 295.018Z" fill="url(#paint24_linear_120_1808)"/>
<path fill-rule="evenodd" clip-rule="evenodd" d="M437.558 293.39L437.336 289.686L443.355 287.06L444.892 290.746L444.158 293.116L437.558 293.39Z" fill="url(#paint25_linear_120_1808)"/>
<path fill-rule="evenodd" clip-rule="evenodd" d="M232.734 311.27L227.149 306.722L215.704 309.302L216.632 315.942L228.006 317.455L232.734 311.27Z" fill="url(#paint26_linear_120_1808)"/>
<path fill-rule="evenodd" clip-rule="evenodd" d="M201.866 324.915L203.674 322.52L210.253 321.935L209.235 325.547L204.418 326.244L201.866 324.915Z" fill="url(#paint27_linear_120_1808)"/>
<path fill-rule="evenodd" clip-rule="evenodd" d="M231.134 269.171L216.745 266.316L211.696 270.942L215.425 281.031L226.397 281.448L231.134 269.171Z" fill="url(#paint28_linear_120_1808)"/>
<g style="mix-blend-mode:screen" opacity="0.5">
<path fill-rule="evenodd" clip-rule="evenodd" d="M241.74 289.217L241.185 293.458L244.136 296.832L249.152 296.469L248.475 289.292L241.74 289.217Z" fill="#D7B2FF"/>
</g>
<g style="mix-blend-mode:screen" opacity="0.5">
<path fill-rule="evenodd" clip-rule="evenodd" d="M443.355 287.06L439.958 289.555L439.675 291.722L444.158 293.115L444.892 290.746L443.355 287.06Z" fill="#D7B2FF"/>
</g>
<path fill-rule="evenodd" clip-rule="evenodd" d="M216.745 266.316L217.002 278.701L226.397 281.448L231.134 269.171L216.745 266.316Z" fill="#57198A"/>
<path fill-rule="evenodd" clip-rule="evenodd" d="M227.149 306.722L221.54 310.232L221.965 313.464L228.006 317.455L232.734 311.27L227.149 306.722Z" fill="#57198A"/>
<path fill-rule="evenodd" clip-rule="evenodd" d="M203.673 322.519L203.475 324.034L204.42 324.988L209.234 325.547L210.253 321.934L203.673 322.519Z" fill="#57198A"/>
<path fill-rule="evenodd" clip-rule="evenodd" d="M439.675 291.723L437.558 293.39L444.158 293.116L439.675 291.723Z" fill="#57198A"/>
<path fill-rule="evenodd" clip-rule="evenodd" d="M244.136 296.831L242.602 303.458L249.151 296.468L244.136 296.831Z" fill="#57198A"/>
<path fill-rule="evenodd" clip-rule="evenodd" d="M221.964 313.463L216.631 315.942L228.006 317.454L221.964 313.463Z" fill="#57198A"/>
<path fill-rule="evenodd" clip-rule="evenodd" d="M217.001 278.7L215.424 281.03L226.396 281.447L217.001 278.7Z" fill="#57198A"/>
<path fill-rule="evenodd" clip-rule="evenodd" d="M204.42 324.988L204.417 326.244L209.234 325.547L204.42 324.988Z" fill="#57198A"/>
<path fill-rule="evenodd" clip-rule="evenodd" d="M241.184 293.458L238.071 295.018L241.739 289.216L241.184 293.458Z" fill="#57198A"/>
<path fill-rule="evenodd" clip-rule="evenodd" d="M439.958 289.555L437.336 289.686L437.558 293.389L439.675 291.723L439.958 289.555Z" fill="#57198A"/>
<path fill-rule="evenodd" clip-rule="evenodd" d="M1031.41 677.703L1052.72 678.619L1043.19 687.731L1031.41 677.703Z" fill="#6C1E90"/>
<path fill-rule="evenodd" clip-rule="evenodd" d="M1557.86 381.454L1554.27 399.309L1575.46 379.799L1557.86 381.454Z" fill="#57198A"/>
<path fill-rule="evenodd" clip-rule="evenodd" d="M1144.31 743.613L1170.02 656.065L1231.29 653.961L1231.59 676.663L1208.75 711.39L1229.24 690.603L1242.82 692.381L1239.02 721.398L1189.39 762.409L1154.87 756.896L1144.31 743.613Z" fill="url(#paint29_linear_120_1808)"/>
<g style="mix-blend-mode:multiply" opacity="0.5">
<path fill-rule="evenodd" clip-rule="evenodd" d="M1231.29 653.961L1195.06 718.133L1196.68 720.763L1212.5 701.356L1182.6 749.786L1159.63 750.739L1144.31 743.613L1154.87 756.896L1189.39 762.409L1239.02 721.398L1242.82 692.381L1208.69 730.537L1195.61 739.849L1208.75 711.39L1231.59 676.663L1231.29 653.961Z" fill="#A359AA"/>
</g>
<g style="mix-blend-mode:multiply" opacity="0.5">
<path fill-rule="evenodd" clip-rule="evenodd" d="M1169.13 746.176L1194.39 723.262L1189.88 722.672L1160.04 748.969L1169.13 746.176Z" fill="#A359AA"/>
</g>
<g style="mix-blend-mode:screen" opacity="0.3">
<path fill-rule="evenodd" clip-rule="evenodd" d="M1144.31 743.613L1160.04 748.968L1192.65 718.933L1231.29 653.961L1170.02 656.065L1144.31 743.613Z" fill="#D7B2FF"/>
</g>
<g style="mix-blend-mode:screen" opacity="0.3">
<path fill-rule="evenodd" clip-rule="evenodd" d="M1229.24 690.603L1208.75 711.39L1242.82 692.38L1229.24 690.603Z" fill="#D7B2FF"/>
</g>
<g style="mix-blend-mode:multiply" opacity="0.5">
<path fill-rule="evenodd" clip-rule="evenodd" d="M1195.61 739.851L1200.71 728.807L1197.1 726.296L1182.6 749.787L1159.63 750.74L1144.31 743.614L1154.87 756.897L1189.39 762.41L1192.73 745.684L1195.61 739.851Z" fill="#A359AA"/>
</g>
<path fill-rule="evenodd" clip-rule="evenodd" d="M1170.02 656.065L1169.19 658.895L1231.29 653.961L1170.02 656.065Z" fill="#9C3CFB"/>
<path fill-rule="evenodd" clip-rule="evenodd" d="M1159.01 730.011L1160.77 723.247L1173.38 717.716L1159.01 730.011Z" fill="#451134"/>
<path fill-rule="evenodd" clip-rule="evenodd" d="M1203.14 658.527L1173.3 717.254L1202.68 667.286L1203.14 658.527Z" fill="#451134"/>
<path fill-rule="evenodd" clip-rule="evenodd" d="M1170.02 656.066L1144.31 743.614L1170.48 659.065L1170.02 656.066Z" fill="#9C3CFB"/>
<path fill-rule="evenodd" clip-rule="evenodd" d="M1189.39 762.409L1182.6 749.786L1160.04 748.968L1144.31 743.613L1154.87 756.896L1189.39 762.409Z" fill="#6C1E90"/>
<path fill-rule="evenodd" clip-rule="evenodd" d="M531.358 277.265L556.102 264.431L572.854 291.823L525.521 302.578L531.358 277.265Z" fill="url(#paint30_linear_120_1808)"/>
<g style="mix-blend-mode:multiply" opacity="0.5">
<path fill-rule="evenodd" clip-rule="evenodd" d="M556.102 264.431L565.122 286.093L536.528 291.004L525.521 302.578L531.358 277.265L556.102 264.431Z" fill="#A359AA"/>
</g>
<g style="mix-blend-mode:screen" opacity="0.5">
<path fill-rule="evenodd" clip-rule="evenodd" d="M565.122 286.094L572.855 291.824L525.521 302.579L536.528 291.005L565.122 286.094Z" fill="#D7B2FF"/>
</g>
<path fill-rule="evenodd" clip-rule="evenodd" d="M556.102 264.431L565.122 286.094L572.854 291.823L556.102 264.431Z" fill="#9C3CFB"/>
<defs>
<linearGradient id="paint0_linear_120_1808" x1="1094.87" y1="218.05" x2="1118.18" y2="206.52" gradientUnits="userSpaceOnUse">
<stop stop-color="#3B1B36"/>
<stop offset="1" stop-color="#311134"/>
</linearGradient>
<linearGradient id="paint1_linear_120_1808" x1="1106.24" y1="671.022" x2="1110.37" y2="639.464" gradientUnits="userSpaceOnUse">
<stop stop-color="#5C214A"/>
<stop offset="1" stop-color="#4F1D4F"/>
</linearGradient>
<linearGradient id="paint2_linear_120_1808" x1="618.415" y1="598.761" x2="636.027" y2="601.066" gradientUnits="userSpaceOnUse">
<stop stop-color="#5C214A"/>
<stop offset="1" stop-color="#4F1D4F"/>
</linearGradient>
<linearGradient id="paint3_linear_120_1808" x1="645.651" y1="582.01" x2="663.383" y2="584.331" gradientUnits="userSpaceOnUse">
<stop stop-color="#5C214A"/>
<stop offset="1" stop-color="#4F1D4F"/>
</linearGradient>
<linearGradient id="paint4_linear_120_1808" x1="546.158" y1="467.731" x2="556.456" y2="472.688" gradientUnits="userSpaceOnUse">
<stop stop-color="#5C214A"/>
<stop offset="1" stop-color="#4F1D4F"/>
</linearGradient>
<linearGradient id="paint5_linear_120_1808" x1="513.282" y1="467.38" x2="531.569" y2="476.184" gradientUnits="userSpaceOnUse">
<stop stop-color="#5C214A"/>
<stop offset="1" stop-color="#4F1D4F"/>
</linearGradient>
<linearGradient id="paint6_linear_120_1808" x1="504.698" y1="561.523" x2="517.426" y2="563.189" gradientUnits="userSpaceOnUse">
<stop stop-color="#5C214A"/>
<stop offset="1" stop-color="#4F1D4F"/>
</linearGradient>
<linearGradient id="paint7_linear_120_1808" x1="107.029" y1="329.358" x2="146.999" y2="334.589" gradientUnits="userSpaceOnUse">
<stop stop-color="#5C214A"/>
<stop offset="1" stop-color="#4F1D4F"/>
</linearGradient>
<linearGradient id="paint8_linear_120_1808" x1="123.977" y1="357.417" x2="135.097" y2="358.872" gradientUnits="userSpaceOnUse">
<stop stop-color="#5C214A"/>
<stop offset="1" stop-color="#4F1D4F"/>
</linearGradient>
<linearGradient id="paint9_linear_120_1808" x1="1221.19" y1="451.847" x2="1239.85" y2="454.29" gradientUnits="userSpaceOnUse">
<stop stop-color="#5C214A"/>
<stop offset="1" stop-color="#4F1D4F"/>
</linearGradient>
<linearGradient id="paint10_linear_120_1808" x1="642.586" y1="363.155" x2="653.666" y2="364.605" gradientUnits="userSpaceOnUse">
<stop stop-color="#5C214A"/>
<stop offset="1" stop-color="#4F1D4F"/>
</linearGradient>
<linearGradient id="paint11_linear_120_1808" x1="651.758" y1="331.806" x2="659.343" y2="332.799" gradientUnits="userSpaceOnUse">
<stop stop-color="#5C214A"/>
<stop offset="1" stop-color="#4F1D4F"/>
</linearGradient>
<linearGradient id="paint12_linear_120_1808" x1="620.108" y1="378.277" x2="637.105" y2="380.502" gradientUnits="userSpaceOnUse">
<stop stop-color="#5C214A"/>
<stop offset="1" stop-color="#4F1D4F"/>
</linearGradient>
<linearGradient id="paint13_linear_120_1808" x1="606.627" y1="391.164" x2="614.49" y2="392.193" gradientUnits="userSpaceOnUse">
<stop stop-color="#5C214A"/>
<stop offset="1" stop-color="#4F1D4F"/>
</linearGradient>
<linearGradient id="paint14_linear_120_1808" x1="1034.25" y1="673.724" x2="1050.22" y2="654.753" gradientUnits="userSpaceOnUse">
<stop stop-color="#5C214A"/>
<stop offset="1" stop-color="#4F1D4F"/>
</linearGradient>
<linearGradient id="paint15_linear_120_1808" x1="615.982" y1="340.827" x2="634.865" y2="343.298" gradientUnits="userSpaceOnUse">
<stop stop-color="#5C214A"/>
<stop offset="1" stop-color="#4F1D4F"/>
</linearGradient>
<linearGradient id="paint16_linear_120_1808" x1="551.624" y1="421.215" x2="592.742" y2="441.01" gradientUnits="userSpaceOnUse">
<stop stop-color="#5C214A"/>
<stop offset="1" stop-color="#4F1D4F"/>
</linearGradient>
<linearGradient id="paint17_linear_120_1808" x1="1229.93" y1="476.705" x2="1251.41" y2="487.044" gradientUnits="userSpaceOnUse">
<stop stop-color="#5C214A"/>
<stop offset="1" stop-color="#4F1D4F"/>
</linearGradient>
<linearGradient id="paint18_linear_120_1808" x1="1161.4" y1="475.972" x2="1199.53" y2="494.33" gradientUnits="userSpaceOnUse">
<stop stop-color="#5C214A"/>
<stop offset="1" stop-color="#4F1D4F"/>
</linearGradient>
<linearGradient id="paint19_linear_120_1808" x1="1530.76" y1="368.398" x2="1571.2" y2="352.67" gradientUnits="userSpaceOnUse">
<stop stop-color="#5C214A"/>
<stop offset="1" stop-color="#4F1D4F"/>
</linearGradient>
<linearGradient id="paint20_linear_120_1808" x1="1496.75" y1="397.875" x2="1509.3" y2="399.517" gradientUnits="userSpaceOnUse">
<stop stop-color="#5C214A"/>
<stop offset="1" stop-color="#4F1D4F"/>
</linearGradient>
<linearGradient id="paint21_linear_120_1808" x1="1516.12" y1="385.973" x2="1528.75" y2="387.625" gradientUnits="userSpaceOnUse">
<stop stop-color="#5C214A"/>
<stop offset="1" stop-color="#4F1D4F"/>
</linearGradient>
<linearGradient id="paint22_linear_120_1808" x1="1540.2" y1="730.114" x2="1551.3" y2="731.567" gradientUnits="userSpaceOnUse">
<stop stop-color="#5C214A"/>
<stop offset="1" stop-color="#4F1D4F"/>
</linearGradient>
<linearGradient id="paint23_linear_120_1808" x1="1580.64" y1="727.932" x2="1618.31" y2="707.506" gradientUnits="userSpaceOnUse">
<stop stop-color="#5C214A"/>
<stop offset="1" stop-color="#4F1D4F"/>
</linearGradient>
<linearGradient id="paint24_linear_120_1808" x1="238.023" y1="295.391" x2="249.102" y2="296.841" gradientUnits="userSpaceOnUse">
<stop stop-color="#5C214A"/>
<stop offset="1" stop-color="#4F1D4F"/>
</linearGradient>
<linearGradient id="paint25_linear_120_1808" x1="437.321" y1="289.803" x2="444.886" y2="290.793" gradientUnits="userSpaceOnUse">
<stop stop-color="#5C214A"/>
<stop offset="1" stop-color="#4F1D4F"/>
</linearGradient>
<linearGradient id="paint26_linear_120_1808" x1="215.545" y1="310.514" x2="232.542" y2="312.738" gradientUnits="userSpaceOnUse">
<stop stop-color="#5C214A"/>
<stop offset="1" stop-color="#4F1D4F"/>
</linearGradient>
<linearGradient id="paint27_linear_120_1808" x1="202.064" y1="323.4" x2="209.927" y2="324.429" gradientUnits="userSpaceOnUse">
<stop stop-color="#5C214A"/>
<stop offset="1" stop-color="#4F1D4F"/>
</linearGradient>
<linearGradient id="paint28_linear_120_1808" x1="211.419" y1="273.063" x2="230.302" y2="275.534" gradientUnits="userSpaceOnUse">
<stop stop-color="#5C214A"/>
<stop offset="1" stop-color="#4F1D4F"/>
</linearGradient>
<linearGradient id="paint29_linear_120_1808" x1="1187.78" y1="762.199" x2="1202.44" y2="650.185" gradientUnits="userSpaceOnUse">
<stop stop-color="#520C36"/>
<stop offset="1" stop-color="#431135"/>
</linearGradient>
<linearGradient id="paint30_linear_120_1808" x1="526.174" y1="303.959" x2="567.619" y2="282.041" gradientUnits="userSpaceOnUse">
<stop stop-color="#520C36"/>
<stop offset="1" stop-color="#431135"/>
</linearGradient>
</defs>
</svg>
