<svg width="3634" height="343" viewBox="0 0 3634 343" fill="none" xmlns="http://www.w3.org/2000/svg">
<path d="M3633.5 203.398C3549.5 273.731 3359.4 389.898 3271 291.898C3160.5 169.398 3130 8.69141 3037 1.19141C2944 -6.30859 2856.5 208.898 2729 215.898C2601.5 222.898 2566.5 116.191 2390 116.191C2237.31 116.191 2273.5 291.898 2185 291.898C2096.5 291.898 2084.5 178.898 1974 178.898C1885.6 178.898 1832.5 203.565 1817 215.898" stroke="#BF81FF"/>
<path d="M1817.5 215.398C1733.5 285.731 1543.4 401.898 1455 303.898C1344.5 181.398 1314 20.6914 1221 13.1914C1128 5.69141 1040.5 220.898 913 227.898C785.5 234.898 750.5 128.191 574 128.191C421.31 128.191 457.5 303.898 369 303.898C280.5 303.898 268.5 190.898 158 190.898C69.6 190.898 16.5 215.565 1 227.898" stroke="#BF81FF"/>
</svg>
