<svg width="3634" height="326" viewBox="0 0 3634 326" fill="none" xmlns="http://www.w3.org/2000/svg">
<path d="M1817 127.168C1901 56.8349 2091.1 -59.3318 2179.5 38.6682C2290 161.168 2368.5 305.668 2461.5 313.168C2554.5 320.668 2594 121.668 2721.5 114.668C2849 107.668 2981 205.668 3042.5 205.668C3104 205.668 3177 38.6682 3265.5 38.6682C3354 38.6682 3366 151.668 3476.5 151.668C3564.9 151.668 3618 127.001 3633.5 114.668" stroke="#6A1DAC"/>
<path d="M1 139.168C85 68.8349 275.1 -47.3318 363.5 50.6682C474 173.168 552.5 317.668 645.5 325.168C738.5 332.668 778 133.668 905.5 126.668C1033 119.668 1165 217.668 1226.5 217.668C1288 217.668 1361 50.6682 1449.5 50.6682C1538 50.6682 1550 163.668 1660.5 163.668C1748.9 163.668 1802 139.001 1817.5 126.668" stroke="#6A1DAC"/>
</svg>
