<svg width="2983" height="443" viewBox="0 0 2983 443" fill="none" xmlns="http://www.w3.org/2000/svg">
<path fill-rule="evenodd" clip-rule="evenodd" d="M2264.53 282.065L2280.81 192.381L2284.27 190.913L2292.15 104.238L2295.25 99.3125L2279.89 258.232L2290.73 263.034V276.368L2264.53 282.065Z" fill="#57198A"/>
<path fill-rule="evenodd" clip-rule="evenodd" d="M2258.79 283.309L2258.22 263.034H2253.15L2246.41 285.996L2258.79 283.309Z" fill="#57198A"/>
<path fill-rule="evenodd" clip-rule="evenodd" d="M2524.53 294.554L2534.02 251.067H2537.18L2530.99 286.444L2535.29 290.051L2535.61 293.41L2524.53 294.554Z" fill="#57198A"/>
<path fill-rule="evenodd" clip-rule="evenodd" d="M2194.86 297.191L2191.65 282.065H2183.5L2182.01 300.276L2194.86 297.191Z" fill="#57198A"/>
<path fill-rule="evenodd" clip-rule="evenodd" d="M706.315 218.975V171.259H709.621V213.651L713.797 215.268L710.069 128.643L713.797 124.762V80.6289L723.541 219.547L706.315 218.975Z" fill="#57198A"/>
<path fill-rule="evenodd" clip-rule="evenodd" d="M739.151 219.398V208.352L742.655 203.526V219.547L739.151 219.398Z" fill="#57198A"/>
<path fill-rule="evenodd" clip-rule="evenodd" d="M768.208 219.124V212.208L785.433 215.417L792.368 219.273L768.208 219.124Z" fill="#57198A"/>
<path fill-rule="evenodd" clip-rule="evenodd" d="M562.895 213.726L557.799 187.927L555.016 186.435L541.643 124.439L538.138 122.374L550.517 192.057L548.155 194.918L546.49 190.44L543.085 192.057L544.129 212.382L562.895 213.726Z" fill="#57198A"/>
<path fill-rule="evenodd" clip-rule="evenodd" d="M2253.15 263.034H2256.48L2256 283.906L2246.41 285.996L2253.15 263.034Z" fill="#6A1DAC"/>
<path fill-rule="evenodd" clip-rule="evenodd" d="M2265.2 278.483C2265.2 278.706 2275.89 269.153 2275.89 269.153L2283.02 209.596L2278.25 231.538L2276.44 229.299L2283.02 191.833L2280.84 192.331L2265.2 278.483Z" fill="#6A1DAC"/>
<path fill-rule="evenodd" clip-rule="evenodd" d="M2279.89 258.232L2275.17 278.507L2279.89 276.219L2284.91 260.446L2279.89 258.232Z" fill="#6A1DAC"/>
<path fill-rule="evenodd" clip-rule="evenodd" d="M2183.5 282.065H2187.75L2189.19 298.41L2182.01 300.276L2183.5 282.065Z" fill="#6A1DAC"/>
<path fill-rule="evenodd" clip-rule="evenodd" d="M546.49 190.44L550.516 212.83L546.49 212.556L543.084 192.057L546.49 190.44Z" fill="#6A1DAC"/>
<path fill-rule="evenodd" clip-rule="evenodd" d="M552.182 192.057L558.495 213.402H561.205L541.643 124.439L538.138 122.374L552.182 192.057Z" fill="#6A1DAC"/>
<path fill-rule="evenodd" clip-rule="evenodd" d="M557.799 187.927L556.656 187.305L562.895 213.725L557.799 187.927Z" fill="#6A1DAC"/>
<path fill-rule="evenodd" clip-rule="evenodd" d="M1239.66 129.141L1234.61 112.995L1329.19 94.5856L1501.54 93.0432L1499.65 69.3595L1573.95 60.279L1590.97 58.463L1912.52 0L1814.46 41.8943L1314.95 186.683L819.884 196.162L1239.66 129.141Z" fill="#BF81FF"/>
<path fill-rule="evenodd" clip-rule="evenodd" d="M819.884 196.162L832.461 220.144L1491.62 234.126L898.38 203.327L819.884 196.162Z" fill="#57198A"/>
<path fill-rule="evenodd" clip-rule="evenodd" d="M2983 310.152L2025.56 296.967L2014.25 288.484L1808.91 263.034L1774.59 277.736L1644.09 253.928L1574.05 234.747L1646.9 230.966L1689.01 140.834L1704.34 147.426L1717.87 140.834L1734.49 96.5261L1757.11 120.085L1809.86 119.165L1844.71 51.2733H1862.6L1912.52 0L1586.62 65.6775L1571.54 63.1649L1503.73 70.7029V94.5856L1488.34 98.367L819.884 196.162L851.924 205.193L1057.88 215.268L1491.62 234.126L780.338 219.025L0.472269 223.751L0 443H2983V310.152Z" fill="#BF81FF"/>
<g opacity="0.5" filter="url(#filter0_d_120_1098)">
<path fill-rule="evenodd" clip-rule="evenodd" d="M1912.52 0L1836.46 36.2719L1772.3 66.8468L1751.1 76.9472L1694.1 109.239L1524.01 88.4408L1586.62 65.6775L1912.52 0Z" fill="url(#paint0_linear_120_1098)"/>
</g>
<path fill-rule="evenodd" clip-rule="evenodd" d="M1804.59 443L1917.44 405.658L2148.45 407.126L2421.8 388.891L2406.19 374.337L2429.55 372.372L2983 346.822L2982.85 367.048L2421.87 375.208L2408.85 375.357L2422.96 388.891L2430.57 400.16L2179.82 413.868H2104.93L1919.75 415.759L1855.89 443H1804.59Z" fill="#57198A"/>
<path fill-rule="evenodd" clip-rule="evenodd" d="M1808.91 263.034L1881.27 284.852L1976.47 307.117L1774.59 277.736L1808.91 263.034Z" fill="#57198A"/>
<path fill-rule="evenodd" clip-rule="evenodd" d="M1574.05 234.747L1506.34 231.513L1638.35 228.603L1681.48 136.629L1751.1 76.9472L1912.52 0L1862.6 51.2733H1844.71L1809.86 119.165L1757.11 120.085L1734.49 96.5261L1721.97 139.366L1704.34 147.426L1689.01 140.834L1662.11 257.212L1644.09 253.928L1574.05 234.747Z" fill="url(#paint1_linear_120_1098)"/>
<path fill-rule="evenodd" clip-rule="evenodd" d="M1509.45 230.095L1477.7 227.856L1466.02 232.782L1509.45 230.095Z" fill="#57198A"/>
<path fill-rule="evenodd" clip-rule="evenodd" d="M1510.34 72.0958L1524.01 88.4405L1559.03 91.4259L1694.1 109.238L1680.06 110.035L1530.28 96.501L1503.73 94.5854V70.7026L1510.34 72.0958Z" fill="#57198A"/>
<path fill-rule="evenodd" clip-rule="evenodd" d="M1751.1 76.9471L1745.51 72.0959L1627.96 76.8973L1772.3 66.8467L1751.1 76.9471Z" fill="#57198A"/>
<path fill-rule="evenodd" clip-rule="evenodd" d="M1783.78 25.4004L1827.03 40.75L1836.46 36.272H1825.87L1783.78 25.4004Z" fill="#3B1163"/>
<path opacity="0.5" fill-rule="evenodd" clip-rule="evenodd" d="M1503.73 70.703L1515.56 76.9474L1571.54 63.165L1503.73 70.703Z" fill="#542E74"/>
<path fill-rule="evenodd" clip-rule="evenodd" d="M477.041 221.512L516.613 221.363L814.316 269.8L880.956 266.84L898.579 272.761L963.106 268.407L903.028 266.84L881.353 264.203L813.297 259.501L464.464 206.66L477.041 221.512Z" fill="#57198A"/>
<path fill-rule="evenodd" clip-rule="evenodd" d="M464.464 206.66L562.895 213.726L585.042 192.057L642.534 210.218L645.791 220.219L652.029 215.144L717.7 219.597L692.893 224.025L559.142 220.99L464.464 206.66Z" fill="#57198A"/>
<path fill-rule="evenodd" clip-rule="evenodd" d="M585.042 192.057L596.898 210.467L654.888 222.134L642.535 210.218L585.042 192.057Z" fill="#6A1DAC"/>
<path fill-rule="evenodd" clip-rule="evenodd" d="M652.03 215.144L671.542 221.512L694.882 223.652L716.954 219.721L652.03 215.144Z" fill="#6A1DAC"/>
<path fill-rule="evenodd" clip-rule="evenodd" d="M597.594 220.119L605.772 217.059L629.858 221.512L597.594 220.119Z" fill="#6A1DAC"/>
<path fill-rule="evenodd" clip-rule="evenodd" d="M562.895 213.725L582.755 217.781H521.062L464.464 206.66L562.895 213.725Z" fill="#6A1DAC"/>
<g style="mix-blend-mode:multiply" opacity="0.3">
<path fill-rule="evenodd" clip-rule="evenodd" d="M814.316 269.8L813.297 259.501L881.353 264.203L880.956 266.84L814.316 269.8Z" fill="#57198A"/>
</g>
<g style="mix-blend-mode:multiply" opacity="0.3">
<path fill-rule="evenodd" clip-rule="evenodd" d="M898.579 272.761L903.028 266.84L963.105 268.407L898.579 272.761Z" fill="#57198A"/>
</g>
<g style="mix-blend-mode:multiply" opacity="0.3">
<path fill-rule="evenodd" clip-rule="evenodd" d="M521.062 217.781L523.622 222.507L516.613 221.363L477.041 221.512L464.464 206.66L521.062 217.781Z" fill="#57198A"/>
</g>
<g style="mix-blend-mode:multiply" opacity="0.3">
<path fill-rule="evenodd" clip-rule="evenodd" d="M581.711 221.513L582.755 217.781L562.895 213.726L585.042 192.057L596.898 210.467L605.772 212.258V217.059L597.594 220.119L604.977 220.592L604.902 222.035L581.711 221.513Z" fill="#57198A"/>
</g>
<path fill-rule="evenodd" clip-rule="evenodd" d="M1237.37 115.607L1491.3 95.7798L1328.19 97.6208L1237.37 115.607Z" fill="#4F1F74"/>
<path fill-rule="evenodd" clip-rule="evenodd" d="M1237.37 115.607L1241.32 134.49L1470.84 101.302L1503.73 94.5854L1237.37 115.607Z" fill="url(#paint2_linear_120_1098)"/>
<g style="mix-blend-mode:multiply" opacity="0.3">
<path fill-rule="evenodd" clip-rule="evenodd" d="M1353.8 118.568L1351.61 106.602L1433.19 100.158L1431.35 106.85L1353.8 118.568Z" fill="#57198A"/>
</g>
<g style="mix-blend-mode:multiply" opacity="0.3">
<path fill-rule="evenodd" clip-rule="evenodd" d="M1443.5 105.258L1444.67 99.2624L1472.96 97.0234L1470.84 101.302L1443.5 105.258Z" fill="#57198A"/>
</g>
<path fill-rule="evenodd" clip-rule="evenodd" d="M1081.47 217.407L1083.61 210.516L1115.65 200.814L1146.32 219.099L1081.47 217.407Z" fill="#57198A"/>
<path fill-rule="evenodd" clip-rule="evenodd" d="M947.272 210.516L978.69 188.574L993.381 182.827L1057.88 215.268L947.272 210.516Z" fill="#57198A"/>
<path fill-rule="evenodd" clip-rule="evenodd" d="M993.38 182.827L978.69 188.574L989.901 208.078L1054.7 213.651L993.38 182.827Z" fill="#BF81FF"/>
<path fill-rule="evenodd" clip-rule="evenodd" d="M966.585 206.934L972.949 202.157L985.675 209.969L966.585 206.934Z" fill="#BF81FF"/>
<path fill-rule="evenodd" clip-rule="evenodd" d="M1115.65 200.814L1100.59 205.391L1108.12 213.651L1146.32 219.099L1115.65 200.814Z" fill="#BF81FF"/>
<path fill-rule="evenodd" clip-rule="evenodd" d="M1073 217.209L1083.11 214.771L1096.19 217.806L1073 217.209Z" fill="#BF81FF"/>
<path fill-rule="evenodd" clip-rule="evenodd" d="M1241.32 134.49L1272.89 156.308L1436.12 162.278L1447.55 173.473L1655.5 192.057L1657.52 187.753L1458.04 173.473L1447.68 171.807L1434.6 160.512L1281.17 154.84L1270.48 152.949L1241.32 134.49Z" fill="#541163"/>
<g style="mix-blend-mode:multiply" opacity="0.3">
<path fill-rule="evenodd" clip-rule="evenodd" d="M1917.44 405.658L1919.75 415.759L2165.25 413.868L2154.07 405.658H1917.44Z" fill="#57198A"/>
</g>
<g style="mix-blend-mode:multiply" opacity="0.3">
<path fill-rule="evenodd" clip-rule="evenodd" d="M2183.5 413.669V404.166L2211.76 402.897L2215.21 411.928L2183.5 413.669Z" fill="#57198A"/>
</g>
<g style="mix-blend-mode:multiply" opacity="0.3">
<path fill-rule="evenodd" clip-rule="evenodd" d="M2289.29 408.295L2282.43 398.195L2338.97 394.414L2349.81 404.166L2289.29 408.295Z" fill="#57198A"/>
</g>
<g style="mix-blend-mode:multiply" opacity="0.3">
<path fill-rule="evenodd" clip-rule="evenodd" d="M2406.19 374.337L2408.85 375.357L2982.85 367.048L2983 346.822L2406.19 374.337Z" fill="#57198A"/>
</g>
<g style="mix-blend-mode:multiply" opacity="0.3">
<path fill-rule="evenodd" clip-rule="evenodd" d="M2142.76 357.296V367.048L2196.3 364.461V359.634L2142.76 357.296Z" fill="#57198A"/>
</g>
<path fill-rule="evenodd" clip-rule="evenodd" d="M2422.96 388.89L2406.19 374.337L2160.26 372.844L1891.34 400.16L1921.94 406.33L2154.07 405.658L2422.96 388.89Z" fill="#7C1DD3"/>
<g style="mix-blend-mode:multiply" opacity="0.3">
<path fill-rule="evenodd" clip-rule="evenodd" d="M1836.73 271.417L1834.49 286.469L1877.49 292.713L1881.27 284.852L1836.73 271.417Z" fill="#57198A"/>
</g>
<g style="mix-blend-mode:multiply" opacity="0.3">
<path fill-rule="evenodd" clip-rule="evenodd" d="M1891.34 294.728L1896.18 288.334L1976.47 307.117L1891.34 294.728Z" fill="#57198A"/>
</g>
<g style="mix-blend-mode:multiply" opacity="0.5">
<path fill-rule="evenodd" clip-rule="evenodd" d="M1638.35 228.603L1646.16 254.301L1574.05 234.747L1573.95 230.021L1638.35 228.603Z" fill="#57198A"/>
</g>
<g style="mix-blend-mode:multiply" opacity="0.5">
<path fill-rule="evenodd" clip-rule="evenodd" d="M1772.3 66.8467L1772.5 75.4295L1739.42 86.948L1751.1 76.9471L1745.51 72.0959L1772.3 66.8467Z" fill="#57198A"/>
</g>
<g style="mix-blend-mode:multiply" opacity="0.5">
<path fill-rule="evenodd" clip-rule="evenodd" d="M1827.03 40.7501L1826.26 59.1597H1832.16L1836.46 36.2721H1825.87L1818.76 34.4312L1819.75 38.1628L1827.03 40.7501Z" fill="#57198A"/>
</g>
<g style="mix-blend-mode:multiply" opacity="0.5">
<path fill-rule="evenodd" clip-rule="evenodd" d="M1844.71 51.2735L1837.95 41.8945L1862.6 51.2735H1844.71Z" fill="#57198A"/>
</g>
<path fill-rule="evenodd" clip-rule="evenodd" d="M1685.5 137.201L1739.42 86.948L1821.14 58.4629L1905.33 70.056L1879.06 87.371L1784.53 113.12L1685.5 137.201Z" fill="#57198A"/>
<path fill-rule="evenodd" clip-rule="evenodd" d="M1905.33 70.0562L1884.13 111.179L1839.91 174.941L1823.06 176.434L1819.65 131.703L1774.76 223.229L1732.78 255.521L1699.99 241.888L1685.5 137.201L1879.06 87.3711L1905.33 70.0562Z" fill="url(#paint3_linear_120_1098)"/>
<g style="mix-blend-mode:multiply" opacity="0.3">
<path fill-rule="evenodd" clip-rule="evenodd" d="M1685.5 137.201L1767.23 117.846L1774.76 223.229L1732.78 255.52L1713.64 173.647L1723.41 237.583L1727.39 253.281L1699.99 241.887L1685.5 137.201Z" fill="#57198A"/>
</g>
<g style="mix-blend-mode:multiply" opacity="0.3">
<path fill-rule="evenodd" clip-rule="evenodd" d="M1819.65 131.704L1818.76 101.825L1875.53 88.4409L1871.13 120.931L1839.91 174.941L1823.06 176.434L1819.65 131.704Z" fill="#57198A"/>
</g>
<path fill-rule="evenodd" clip-rule="evenodd" d="M1842.45 138.495L1868.22 121.528L1925.79 122.474L1884.13 137.002L1842.45 138.495Z" fill="#4F1F81"/>
<path fill-rule="evenodd" clip-rule="evenodd" d="M1842.45 138.495L1846.72 175.314L1873.71 193.923L1888.01 189.196L1905.13 143.247L1919.97 132.972L1925.79 122.474L1842.45 138.495Z" fill="url(#paint4_linear_120_1098)"/>
<g style="mix-blend-mode:multiply" opacity="0.3">
<path fill-rule="evenodd" clip-rule="evenodd" d="M1842.45 138.495L1886.59 130.012L1884.13 190.465L1882.69 152.103L1873.71 193.923L1846.72 175.314L1842.45 138.495Z" fill="#57198A"/>
</g>
<g style="mix-blend-mode:multiply" opacity="0.3">
<path fill-rule="evenodd" clip-rule="evenodd" d="M1905.13 143.247L1894.49 141.63L1919.97 132.972L1905.13 143.247Z" fill="#57198A"/>
</g>
<path fill-rule="evenodd" clip-rule="evenodd" d="M1818.43 102.97L1750.75 88.4409L1825.05 101.228L1818.43 102.97Z" fill="#57198A"/>
<path fill-rule="evenodd" clip-rule="evenodd" d="M1732.78 255.52L1772.3 190.44L1801.56 168.572L1774.76 223.229L1732.78 255.52Z" fill="#BF81FF"/>
<path fill-rule="evenodd" clip-rule="evenodd" d="M1905.13 143.247L1894.49 141.63L1919.97 132.972L1905.13 143.247Z" fill="#BF81FF"/>
<path fill-rule="evenodd" clip-rule="evenodd" d="M1839.91 174.941L1823.06 176.434L1844.51 161.308L1845.15 167.403L1839.91 174.941Z" fill="#BF81FF"/>
<path fill-rule="evenodd" clip-rule="evenodd" d="M1873.71 193.923L1882.69 152.103L1884.13 190.465L1885.67 152.103L1899.09 143.247H1905.13L1888.01 189.196L1873.71 193.923Z" fill="#BF81FF"/>
<path fill-rule="evenodd" clip-rule="evenodd" d="M1742.4 233.454L1760.39 202.979L1749.68 210.517L1742.4 233.454Z" fill="#BF81FF"/>
<g style="mix-blend-mode:multiply" opacity="0.3">
<path fill-rule="evenodd" clip-rule="evenodd" d="M1586.85 101.626L1593.46 95.979L1694.1 109.239L1680.06 110.035L1586.85 101.626Z" fill="#57198A"/>
</g>
<g style="mix-blend-mode:multiply" opacity="0.3">
<path fill-rule="evenodd" clip-rule="evenodd" d="M1583.52 101.328L1586.85 95.1082L1574.15 93.4165V100.457L1583.52 101.328Z" fill="#57198A"/>
</g>
<path fill-rule="evenodd" clip-rule="evenodd" d="M706.316 294.902L947.272 302.092L697.168 288.483L706.316 294.902Z" fill="#6A1DAC"/>
<path fill-rule="evenodd" clip-rule="evenodd" d="M963.106 381.775L602.963 424.242L805.219 428.297L963.106 381.775Z" fill="#6A1DAC"/>
<path fill-rule="evenodd" clip-rule="evenodd" d="M892.066 419.242L931.339 402.872L920.055 411.057L892.066 419.242Z" fill="#6A1DAC"/>
<path fill-rule="evenodd" clip-rule="evenodd" d="M0 234.125L429.765 252.883L697.168 288.484L706.316 294.902L947.272 302.092L1235.95 334.931L975.832 381.178L602.963 424.242L0 443V234.125Z" fill="#D7B2FF"/>
<g style="mix-blend-mode:multiply" opacity="0.3">
<path fill-rule="evenodd" clip-rule="evenodd" d="M947.272 302.092L945.831 384.637L1105.46 358.142L1109.53 320.551V357.395L1235.95 334.931L947.272 302.092Z" fill="#57198A"/>
</g>
<g style="mix-blend-mode:multiply" opacity="0.3">
<path fill-rule="evenodd" clip-rule="evenodd" d="M706.316 294.902L690.035 413.271L609.724 423.446L640.223 280.896L668.633 285.673L640.223 397.971L675.991 284.852L697.168 288.484L706.316 294.902Z" fill="#57198A"/>
</g>
<g style="mix-blend-mode:multiply" opacity="0.3">
<path fill-rule="evenodd" clip-rule="evenodd" d="M577.337 423.446L629.858 279.528L518.005 275.746L476.768 430.909L577.337 423.446Z" fill="#57198A"/>
</g>
<g style="mix-blend-mode:multiply" opacity="0.3">
<path fill-rule="evenodd" clip-rule="evenodd" d="M742.68 408.097L813.297 294.902L745.514 407.773L742.68 408.097Z" fill="#57198A"/>
</g>
<path fill-rule="evenodd" clip-rule="evenodd" d="M704.476 315.974L795.897 323.86L768.207 329.632L704.476 315.974Z" fill="#6A1DAC"/>
<g style="mix-blend-mode:multiply" opacity="0.3">
<path fill-rule="evenodd" clip-rule="evenodd" d="M768.208 329.632L733.409 408.843L690.035 413.271L704.476 315.974L768.208 329.632Z" fill="#57198A"/>
</g>
<path fill-rule="evenodd" clip-rule="evenodd" d="M734.652 331.498L789.286 345.852L830.249 371.501L754.139 348.589L734.652 331.498Z" fill="#6A1DAC"/>
<path fill-rule="evenodd" clip-rule="evenodd" d="M764.057 357.271L748.521 350.554L725.728 348.588L764.057 357.271Z" fill="#6A1DAC"/>
<path fill-rule="evenodd" clip-rule="evenodd" d="M996.239 341.374L1190.81 342.369L1143.46 352.171L996.239 341.374Z" fill="#6A1DAC"/>
<path fill-rule="evenodd" clip-rule="evenodd" d="M971.855 346.847L1050.65 351.574L1024.75 356.151L971.855 346.847Z" fill="#6A1DAC"/>
<path fill-rule="evenodd" clip-rule="evenodd" d="M298.201 259.501H428.497L518.005 275.746H373.068L298.201 259.501Z" fill="#6A1DAC"/>
<path fill-rule="evenodd" clip-rule="evenodd" d="M526.008 275.746L582.755 280.896L559.44 284.702L526.008 275.746Z" fill="#6A1DAC"/>
<path fill-rule="evenodd" clip-rule="evenodd" d="M474.009 294.902H485.02L487.879 302.092H464.464L474.009 294.902Z" fill="#6A1DAC"/>
<path fill-rule="evenodd" clip-rule="evenodd" d="M2179.82 300.45L2474.86 236.414L2503.08 252.883L2507.5 303.087L2515.3 294.902L2555.94 291.941L2610.16 310.152L2179.82 300.45Z" fill="#57198A"/>
<path fill-rule="evenodd" clip-rule="evenodd" d="M2474.86 236.414L2488.76 249.574L2455.08 300.276L2388.81 285.075L2186.18 299.057L2474.86 236.414Z" fill="#6A1DAC"/>
<path fill-rule="evenodd" clip-rule="evenodd" d="M2300.12 300.275L2389.83 288.483L2416.2 294.902L2300.12 300.275Z" fill="#6A1DAC"/>
<path fill-rule="evenodd" clip-rule="evenodd" d="M2515.3 294.902L2499.69 307.117L2544.56 304.977L2555.94 291.941L2515.3 294.902Z" fill="#6A1DAC"/>
<path fill-rule="evenodd" clip-rule="evenodd" d="M2549.03 307.117L2570.93 303.809L2589.3 307.117H2549.03Z" fill="#6A1DAC"/>
<path fill-rule="evenodd" clip-rule="evenodd" d="M2464.75 303.808L2492.26 291.941L2499.69 300.275L2464.75 303.808Z" fill="#6A1DAC"/>
<g style="mix-blend-mode:multiply" opacity="0.3">
<path fill-rule="evenodd" clip-rule="evenodd" d="M2298.86 303.137L2300.12 300.276L2326.62 296.793V289.354L2179.82 300.45L2298.86 303.137Z" fill="#57198A"/>
</g>
<g style="mix-blend-mode:multiply" opacity="0.3">
<path fill-rule="evenodd" clip-rule="evenodd" d="M2455.08 300.276V306.669L2461.66 306.868L2464.75 303.808L2492.26 291.942L2499.69 300.276L2496.36 307.963L2499.69 307.117L2507.33 301.147L2503.08 252.883L2488.76 249.575L2455.08 300.276Z" fill="#57198A"/>
</g>
<g style="mix-blend-mode:multiply" opacity="0.3">
<path fill-rule="evenodd" clip-rule="evenodd" d="M2545.13 308.684L2544.56 304.977L2555.94 291.941L2585.42 301.843L2575.61 304.654L2570.93 303.808L2549.03 307.117V308.784L2545.13 308.684Z" fill="#57198A"/>
</g>
<g style="mix-blend-mode:multiply" opacity="0.3">
<path fill-rule="evenodd" clip-rule="evenodd" d="M2587.19 309.655L2589.3 307.117L2610.16 310.152L2587.19 309.655Z" fill="#57198A"/>
</g>
<path fill-rule="evenodd" clip-rule="evenodd" d="M1235.95 334.931L1337.54 317.64L1603.13 300.276L1774.59 277.736L1599.7 310.152L1333.46 323.114L1235.95 334.931Z" fill="#57198A"/>
<g style="mix-blend-mode:multiply" opacity="0.3">
<path fill-rule="evenodd" clip-rule="evenodd" d="M1603.13 300.276L1599.7 310.152L1511.43 314.456L1510.47 306.346L1603.13 300.276Z" fill="#57198A"/>
</g>
<g style="mix-blend-mode:multiply" opacity="0.3">
<path fill-rule="evenodd" clip-rule="evenodd" d="M1505.27 314.456L1498.71 307.092L1475.32 308.635L1481.76 315.899L1505.27 314.456Z" fill="#57198A"/>
</g>
<g style="mix-blend-mode:multiply" opacity="0.3">
<path fill-rule="evenodd" clip-rule="evenodd" d="M1471.39 315.899L1465.15 309.307H1455.28L1465.67 316.695L1471.39 315.899Z" fill="#57198A"/>
</g>
<path fill-rule="evenodd" clip-rule="evenodd" d="M2982.85 326.397L2233.48 360.828L1864.1 348.812L1807.27 378.218L1510.34 394.239L1039.56 443H1159.87L1491.62 397.971L1622.59 392.324L2982.85 338.314V326.397Z" fill="#57198A"/>
<path fill-rule="evenodd" clip-rule="evenodd" d="M1864.1 348.812L1710.91 325.925L1820.85 307.117H2006.47L2248.47 357.296L1864.1 348.812Z" fill="#6A1DAC"/>
<path fill-rule="evenodd" clip-rule="evenodd" d="M1807.27 378.218L1692.66 342.917L1378.03 388.965L1433.19 397.946L1493.99 395.658L1807.27 378.218Z" fill="#6A1DAC"/>
<path fill-rule="evenodd" clip-rule="evenodd" d="M1423.17 397.971L1402.89 374.337H1371.87L1290.66 417.002L1423.17 397.971Z" fill="#57198A"/>
<path fill-rule="evenodd" clip-rule="evenodd" d="M1279.75 417.003L1266.58 409.465L1223.15 417.003L1174.63 429.019L1279.75 417.003Z" fill="#57198A"/>
<path fill-rule="evenodd" clip-rule="evenodd" d="M1402.89 374.337L1381.91 397.971L1297.77 413.271L1371.87 374.337H1402.89Z" fill="#6A1DAC"/>
<path fill-rule="evenodd" clip-rule="evenodd" d="M1392.57 397.2L1410.47 390.931L1418.7 395.657L1392.57 397.2Z" fill="#6A1DAC"/>
<path fill-rule="evenodd" clip-rule="evenodd" d="M1266.58 409.465L1275.18 414.366L1225.24 421.083L1177.57 428.297L1223.15 417.003L1266.58 409.465Z" fill="#6A1DAC"/>
<g style="mix-blend-mode:multiply" opacity="0.3">
<path fill-rule="evenodd" clip-rule="evenodd" d="M1917.44 349.981L1929.44 377.422L2007.64 373.615L1998.89 353.191L1917.44 349.981Z" fill="#57198A"/>
</g>
<g style="mix-blend-mode:multiply" opacity="0.3">
<path fill-rule="evenodd" clip-rule="evenodd" d="M2014.58 353.713L2019.57 373.043L2029.96 372.521V354.211L2014.58 353.713Z" fill="#57198A"/>
</g>
<g style="mix-blend-mode:multiply" opacity="0.3">
<path fill-rule="evenodd" clip-rule="evenodd" d="M1850.62 381.253L1824.85 369.138L1807.27 378.218L1493.99 395.657L1496.2 397.971L1850.62 381.253Z" fill="#57198A"/>
</g>
<g style="mix-blend-mode:multiply" opacity="0.3">
<path fill-rule="evenodd" clip-rule="evenodd" d="M1381.91 397.971L1387.28 403.121L1350.32 408.42L1347.68 404.191L1381.91 397.971Z" fill="#57198A"/>
</g>
<g style="mix-blend-mode:multiply" opacity="0.3">
<path fill-rule="evenodd" clip-rule="evenodd" d="M1693.83 388.642V384.537L1625.55 388.095L1619.26 392.647L1693.83 388.642Z" fill="#57198A"/>
</g>
<g style="mix-blend-mode:multiply" opacity="0.3">
<path fill-rule="evenodd" clip-rule="evenodd" d="M1702.33 388.244L1709.69 383.542L1767.21 380.382L1763.23 385.358L1702.33 388.244Z" fill="#57198A"/>
</g>
<path fill-rule="evenodd" clip-rule="evenodd" d="M1725.94 328.164L1842.45 342.917L1891.34 349.41L1850.62 355.778L1831.98 345.28L1725.94 328.164Z" fill="#7C1DD3"/>
<path fill-rule="evenodd" clip-rule="evenodd" d="M1907.25 349.758L1939.06 346.922L1979.68 351.375H1928.52L1907.25 349.758Z" fill="#7C1DD3"/>
<path fill-rule="evenodd" clip-rule="evenodd" d="M1433.19 397.946L1417.25 403.867L1493.99 395.657L1433.19 397.946Z" fill="#7C1DD3"/>
<path fill-rule="evenodd" clip-rule="evenodd" d="M1370.2 399.762L1385.86 394.065L1383.8 399.762H1370.2Z" fill="#7C1DD3"/>
<path fill-rule="evenodd" clip-rule="evenodd" d="M1263.22 415.983L1275.18 414.366L1276.57 415.187L1263.22 415.983Z" fill="#7C1DD3"/>
<path fill-rule="evenodd" clip-rule="evenodd" d="M1337.54 317.64L1507.76 292.713H1663.03L1603.13 300.276L1337.54 317.64Z" fill="#6A1DAC"/>
<path fill-rule="evenodd" clip-rule="evenodd" d="M1327.97 311.496L1368.81 305.052L1322.75 300.276L1265.13 313.013L1327.97 311.496Z" fill="#6A1DAC"/>
<path fill-rule="evenodd" clip-rule="evenodd" d="M1576.81 284.852L1592.66 283.359L1618.69 287.538H1582.52L1576.81 284.852Z" fill="#6A1DAC"/>
<path fill-rule="evenodd" clip-rule="evenodd" d="M1625.72 287.538L1774.59 277.736L1660.67 291.942L1625.72 287.538Z" fill="#6A1DAC"/>
<g style="mix-blend-mode:multiply" opacity="0.3">
<path fill-rule="evenodd" clip-rule="evenodd" d="M851.923 205.193V220.542L832.461 220.144L819.884 196.162L851.923 205.193Z" fill="#57198A"/>
</g>
<g style="mix-blend-mode:multiply" opacity="0.3">
<path fill-rule="evenodd" clip-rule="evenodd" d="M899.996 221.562L907.651 208.352L949.435 209.969L942.5 222.458L899.996 221.562Z" fill="#57198A"/>
</g>
<path fill-rule="evenodd" clip-rule="evenodd" d="M1551.98 230.319L1650.38 202.979L1638.35 228.603L1551.98 230.319Z" fill="#7C1DD3"/>
<path fill-rule="evenodd" clip-rule="evenodd" d="M1541.71 230.319L1567.51 220.916L1536.29 215.94L1514.12 230.319H1541.71Z" fill="#7C1DD3"/>
<path fill-rule="evenodd" clip-rule="evenodd" d="M1287.26 208.949L1282.61 204.894L1284.94 197.729L1290.66 208.252L1287.26 208.949Z" fill="#7C1DD3"/>
<path fill-rule="evenodd" clip-rule="evenodd" d="M1290.66 216.661L1293.52 213.651L1304.71 215.144L1292.87 222.532L1290.66 216.661Z" fill="#7C1DD3"/>
<path fill-rule="evenodd" clip-rule="evenodd" d="M1618.69 161.606L1627.17 152.725L1640.84 154.84L1628.58 166.383L1618.69 161.606Z" fill="#7C1DD3"/>
<path fill-rule="evenodd" clip-rule="evenodd" d="M1467.12 162.8L1465.15 153.347L1476.26 147.575L1471.39 164.89L1467.12 162.8Z" fill="#7C1DD3"/>
<path fill-rule="evenodd" clip-rule="evenodd" d="M1465.15 149.068L1463.71 146.605L1467.12 144.714V147.575L1465.15 149.068Z" fill="#7C1DD3"/>
<path fill-rule="evenodd" clip-rule="evenodd" d="M1501.54 165.338L1506.34 161.606L1518.17 163.273L1505.27 169.692L1501.54 165.338Z" fill="#7C1DD3"/>
<path fill-rule="evenodd" clip-rule="evenodd" d="M1006.53 396.901L1011.33 393.145L1023.16 394.836L1010.26 401.23L1006.53 396.901Z" fill="#7C1DD3"/>
<path fill-rule="evenodd" clip-rule="evenodd" d="M1347.73 281.767L1352.53 278.01L1364.36 279.702L1351.48 286.12L1347.73 281.767Z" fill="#7C1DD3"/>
<path fill-rule="evenodd" clip-rule="evenodd" d="M1399.83 137.202L1396.35 134.241L1401.54 129.141L1402.89 131.704L1399.83 137.202Z" fill="#7C1DD3"/>
<path fill-rule="evenodd" clip-rule="evenodd" d="M1804.81 399.737L1801.33 396.777L1806.53 391.677L1807.87 394.239L1804.81 399.737Z" fill="#7C1DD3"/>
<path fill-rule="evenodd" clip-rule="evenodd" d="M1206.62 279.751L1203.12 276.791L1208.34 271.691L1209.65 274.253L1206.62 279.751Z" fill="#7C1DD3"/>
<path fill-rule="evenodd" clip-rule="evenodd" d="M1660.67 91.4262L1669.12 90.7545L1673.82 90.3813L1667.23 95.7052L1659.25 94.5857L1660.67 91.4262Z" fill="#7C1DD3"/>
<path fill-rule="evenodd" clip-rule="evenodd" d="M1344.55 413.271L1404.33 409.465L1452.43 413.271L1361.5 418.869L1344.55 413.271Z" fill="#7C1DD3"/>
<path fill-rule="evenodd" clip-rule="evenodd" d="M1233.39 370.431L1241.32 364.386L1256.33 361.425L1247.49 369.137L1233.39 370.431Z" fill="#7C1DD3"/>
<path fill-rule="evenodd" clip-rule="evenodd" d="M1143.46 298.808L1155.74 292.713L1185.42 302.092L1168.87 306.346L1143.46 298.808Z" fill="#7C1DD3"/>
<path fill-rule="evenodd" clip-rule="evenodd" d="M1235.95 334.93L1263.72 324.308L1294.32 327.865L1235.95 334.93Z" fill="#BF81FF"/>
<path fill-rule="evenodd" clip-rule="evenodd" d="M1808.91 263.034L1976.47 307.117H1993.7L2014.25 288.484L1808.91 263.034Z" fill="#6A1DAC"/>
<path fill-rule="evenodd" clip-rule="evenodd" d="M1774.61 277.736L1855.5 289.504C1856.22 289.504 1806.11 292.713 1806.11 292.713L1774.61 277.736Z" fill="#6A1DAC"/>
<path fill-rule="evenodd" clip-rule="evenodd" d="M2025.56 296.967L2006.47 307.117L2157.15 315.899L2307.9 303.136L2182.01 300.276L2025.56 296.967Z" fill="#6A1DAC"/>
<path fill-rule="evenodd" clip-rule="evenodd" d="M975.832 381.178L931.339 402.872L1146.32 374.337L1311.96 325.726L1235.95 334.93L975.832 381.178Z" fill="#6A1DAC"/>
<path fill-rule="evenodd" clip-rule="evenodd" d="M1064.17 411.057L1139.44 397.971L1254.32 414.341L1119.15 429.889L1064.17 411.057Z" fill="#6A1DAC"/>
<path fill-rule="evenodd" clip-rule="evenodd" d="M1149.88 390.931L1155.74 386.851L1174.63 384.637L1164.44 393.145L1149.88 390.931Z" fill="#6A1DAC"/>
<path fill-rule="evenodd" clip-rule="evenodd" d="M1304.71 378.044L1310.52 374.337H1328.19L1317.53 381.775L1304.71 378.044Z" fill="#6A1DAC"/>
<path fill-rule="evenodd" clip-rule="evenodd" d="M1659.83 329.607L1665.64 325.9H1683.32L1672.65 333.338L1659.83 329.607Z" fill="#6A1DAC"/>
<path fill-rule="evenodd" clip-rule="evenodd" d="M1733.77 425.984L1739.59 422.277H1757.26L1746.6 429.74L1733.77 425.984Z" fill="#6A1DAC"/>
<path fill-rule="evenodd" clip-rule="evenodd" d="M924.728 300.873L982.568 306.346L957.886 298.808L924.728 300.873Z" fill="#7C1DD3"/>
<path fill-rule="evenodd" clip-rule="evenodd" d="M983.91 199.023L1014.86 209.372L989.901 208.078L983.91 199.023Z" fill="#7C1DD3"/>
<path fill-rule="evenodd" clip-rule="evenodd" d="M1580.46 301.768L1628.58 296.942L1602.61 301.768H1580.46Z" fill="#7C1DD3"/>
<path fill-rule="evenodd" clip-rule="evenodd" d="M1572.95 302.266L1540.04 304.406L1558.04 301.769L1572.95 302.266Z" fill="#7C1DD3"/>
<path fill-rule="evenodd" clip-rule="evenodd" d="M1615.81 229.05L1640.84 221.512V236.165L1615.81 229.05Z" fill="#6A1DAC"/>
<path fill-rule="evenodd" clip-rule="evenodd" d="M670.796 237.907L729.109 230.667L1039.56 244.375L1066.98 259.501H813.297L670.796 237.907Z" fill="#912EEF"/>
<path fill-rule="evenodd" clip-rule="evenodd" d="M901.437 264.651L1064.57 261.367L1113.91 269.8L947.272 268.009L901.437 264.651Z" fill="#912EEF"/>
<path fill-rule="evenodd" clip-rule="evenodd" d="M1151.14 219.099L1203.12 208.352L1370.23 227.807L1151.14 219.099Z" fill="#912EEF"/>
<path fill-rule="evenodd" clip-rule="evenodd" d="M1610.06 277.736L1373.28 269.8L1137.99 230.667L1579.22 236.165L1644.09 253.928L1610.06 277.736Z" fill="#912EEF"/>
<path fill-rule="evenodd" clip-rule="evenodd" d="M2983 389.587L2115.96 415.759L1881.27 443H2983V389.587Z" fill="#BF81FF"/>
<path style="mix-blend-mode:screen" fill-rule="evenodd" clip-rule="evenodd" d="M1608.45 320.949C1608.45 330.9 1617.47 338.836 1628.61 338.836C1639.74 338.836 1648.79 330.826 1648.79 320.949C1648.79 311.073 1639.77 303.062 1628.61 303.062C1617.45 303.062 1608.45 311.147 1608.45 320.949Z" fill="url(#paint5_radial_120_1098)"/>
<path style="mix-blend-mode:screen" fill-rule="evenodd" clip-rule="evenodd" d="M1619.14 320.949C1618.9 322.869 1619.26 324.814 1620.16 326.526C1621.06 328.237 1622.46 329.635 1624.17 330.533C1625.88 331.431 1627.82 331.786 1629.74 331.552C1631.66 331.318 1633.46 330.505 1634.9 329.222C1636.35 327.94 1637.37 326.247 1637.83 324.369C1638.29 322.491 1638.17 320.518 1637.49 318.71C1636.8 316.903 1635.58 315.347 1633.99 314.249C1632.4 313.152 1630.51 312.564 1628.58 312.566C1626.22 312.429 1623.9 313.235 1622.13 314.806C1620.36 316.377 1619.28 318.586 1619.14 320.949Z" fill="url(#paint6_radial_120_1098)"/>
<path d="M1627.49 324.656C1629.29 324.656 1630.74 323.197 1630.74 321.397C1630.74 319.597 1629.29 318.138 1627.49 318.138C1625.69 318.138 1624.23 319.597 1624.23 321.397C1624.23 323.197 1625.69 324.656 1627.49 324.656Z" fill="#00D6C0"/>
<g style="mix-blend-mode:multiply" opacity="0.3">
<path fill-rule="evenodd" clip-rule="evenodd" d="M373.068 275.746L355.047 437.353L0 443V234.125L343.016 243.902L342.097 259.501H300.86L322.286 264.725L310.281 408.096L328.202 265.994L373.068 275.746Z" fill="#57198A"/>
</g>
<g style="mix-blend-mode:multiply" opacity="0.3">
<path fill-rule="evenodd" clip-rule="evenodd" d="M369.662 259.501L373.068 247.012L398.819 248.828L391.536 259.501H369.662Z" fill="#57198A"/>
</g>
<path style="mix-blend-mode:multiply" fill-rule="evenodd" clip-rule="evenodd" d="M775.764 295.748L994.176 279.204C994.176 279.204 967.555 289.802 965.641 292.165C963.727 294.529 998.675 297.141 1021.69 293.21C1044.71 289.28 1118.51 278.582 1121.42 280.423C1124.32 282.264 1045.83 309.605 1045.83 309.605L1048.69 341.001L1039.02 342.842L1041.13 354.584L1017.12 350.355L1012.15 377.521L775.764 406.33L786.502 351.599L790.653 340.802L786.502 325.875L797.538 323.785L775.764 295.748Z" fill="url(#paint7_linear_120_1098)"/>
<path fill-rule="evenodd" clip-rule="evenodd" d="M152.344 390.931L259.947 357.296L302.302 356.151L152.344 390.931Z" fill="#6A1DAC"/>
<path fill-rule="evenodd" clip-rule="evenodd" d="M165.767 397.946L226.515 390.931L211.428 401.23H142.601L165.767 397.946Z" fill="#6A1DAC"/>
<path fill-rule="evenodd" clip-rule="evenodd" d="M211.427 401.23L205.909 436.482L214.236 436.333L226.515 390.931L211.427 401.23Z" fill="#430B34"/>
<path fill-rule="evenodd" clip-rule="evenodd" d="M2668.07 443L2983 401.354V414.789L2696.36 443H2668.07Z" fill="#57198A"/>
<path fill-rule="evenodd" clip-rule="evenodd" d="M2983 401.355L2668.07 443H2430.74L2983 389.587V401.355Z" fill="#BF81FF"/>
<g style="mix-blend-mode:multiply" opacity="0.3">
<path fill-rule="evenodd" clip-rule="evenodd" d="M2827.97 430.064L2825.54 422.177L2923.27 408.295L2929.14 419.167L2827.97 430.064Z" fill="#57198A"/>
</g>
<defs>
<filter id="filter0_d_120_1098" x="1492.01" y="-32" width="452.503" height="173.239" filterUnits="userSpaceOnUse" color-interpolation-filters="sRGB">
<feFlood flood-opacity="0" result="BackgroundImageFix"/>
<feColorMatrix in="SourceAlpha" type="matrix" values="0 0 0 0 0 0 0 0 0 0 0 0 0 0 0 0 0 0 127 0" result="hardAlpha"/>
<feOffset/>
<feGaussianBlur stdDeviation="16"/>
<feComposite in2="hardAlpha" operator="out"/>
<feColorMatrix type="matrix" values="0 0 0 0 1 0 0 0 0 1 0 0 0 0 1 0 0 0 1 0"/>
<feBlend mode="normal" in2="BackgroundImageFix" result="effect1_dropShadow_120_1098"/>
<feBlend mode="normal" in="SourceGraphic" in2="effect1_dropShadow_120_1098" result="shape"/>
</filter>
<linearGradient id="paint0_linear_120_1098" x1="1833.5" y1="18" x2="1679" y2="55" gradientUnits="userSpaceOnUse">
<stop stop-color="#653897"/>
<stop offset="1" stop-color="#DAB8FF"/>
</linearGradient>
<linearGradient id="paint1_linear_120_1098" x1="1506.34" y1="128.594" x2="1912.52" y2="128.594" gradientUnits="userSpaceOnUse">
<stop stop-color="#450C36"/>
<stop offset="1" stop-color="#361867"/>
</linearGradient>
<linearGradient id="paint2_linear_120_1098" x1="1370.55" y1="134.49" x2="1370.55" y2="94.5854" gradientUnits="userSpaceOnUse">
<stop stop-color="#450C36"/>
<stop offset="1" stop-color="#361867"/>
</linearGradient>
<linearGradient id="paint3_linear_120_1098" x1="1795.42" y1="255.521" x2="1795.42" y2="70.0562" gradientUnits="userSpaceOnUse">
<stop stop-color="#450C36"/>
<stop offset="1" stop-color="#361867"/>
</linearGradient>
<linearGradient id="paint4_linear_120_1098" x1="1884.13" y1="193.923" x2="1884.13" y2="122.474" gradientUnits="userSpaceOnUse">
<stop stop-color="#450C36"/>
<stop offset="1" stop-color="#361867"/>
</linearGradient>
<radialGradient id="paint5_radial_120_1098" cx="0" cy="0" r="1" gradientUnits="userSpaceOnUse" gradientTransform="translate(1628.57 320.378) rotate(180) scale(20.1756 17.878)">
<stop stop-color="#980300"/>
<stop offset="0.14" stop-color="#7C0200"/>
<stop offset="0.43" stop-color="#470100"/>
<stop offset="0.68" stop-color="#200100"/>
<stop offset="0.88" stop-color="#090000"/>
<stop offset="1"/>
</radialGradient>
<radialGradient id="paint6_radial_120_1098" cx="0" cy="0" r="1" gradientUnits="userSpaceOnUse" gradientTransform="translate(1628.57 320.378) rotate(180) scale(9.44389 8.3684)">
<stop stop-color="#FF36A8"/>
<stop offset="0.18" stop-color="#C1297F"/>
<stop offset="0.41" stop-color="#7D1A52"/>
<stop offset="0.61" stop-color="#470F2F"/>
<stop offset="0.78" stop-color="#200715"/>
<stop offset="0.92" stop-color="#090206"/>
<stop offset="1"/>
</radialGradient>
<linearGradient id="paint7_linear_120_1098" x1="948.565" y1="406.33" x2="948.565" y2="279.204" gradientUnits="userSpaceOnUse">
<stop stop-color="white"/>
<stop offset="0.17" stop-color="#ECE7FA"/>
<stop offset="0.52" stop-color="#BBA9EE"/>
<stop offset="1" stop-color="#724DDB"/>
</linearGradient>
</defs>
</svg>
