<svg width="1462" height="1117" viewBox="0 0 1462 1117" fill="none" xmlns="http://www.w3.org/2000/svg">
<path fill-rule="evenodd" clip-rule="evenodd" d="M503.608 701.601L518.388 701.457L519.837 700.507L528.218 691.06L526.306 688.45L509.787 688.572L499.977 696.315L503.608 701.601Z" fill="url(#paint0_linear_468_1346)"/>
<path fill-rule="evenodd" clip-rule="evenodd" d="M822.589 350.291L809.914 366.535L805.399 367.696L796.585 360.775L806.957 337.23L818.834 337.873L822.589 350.291Z" fill="url(#paint1_linear_468_1346)"/>
<path fill-rule="evenodd" clip-rule="evenodd" d="M1142.47 699.231L1120.99 709.987L1120.21 715.197L1133.21 722.044L1143.43 713.945L1142.47 699.231Z" fill="url(#paint2_linear_468_1346)"/>
<path fill-rule="evenodd" clip-rule="evenodd" d="M1111.82 708.619L1105.43 708.845L1092.61 703.458L1097.3 697.57L1106.66 699.727L1111.82 708.619Z" fill="url(#paint3_linear_468_1346)"/>
<path fill-rule="evenodd" clip-rule="evenodd" d="M1107.97 859.309L1099.67 859.439L1096.08 854.763L1104.62 848.287L1116.22 849.971L1107.97 859.309Z" fill="url(#paint4_linear_468_1346)"/>
<path fill-rule="evenodd" clip-rule="evenodd" d="M1114.9 866.683L1111.57 870.449L1115.68 878.64L1133.49 880.908L1147.71 871.426L1141.07 860.603L1132.32 861.639L1114.9 866.683Z" fill="url(#paint5_linear_468_1346)"/>
<path fill-rule="evenodd" clip-rule="evenodd" d="M1201.42 819.473L1190.05 820.804L1187.42 815.764L1195.33 807.743L1206.03 813.143L1201.42 819.473Z" fill="url(#paint6_linear_468_1346)"/>
<path fill-rule="evenodd" clip-rule="evenodd" d="M592.09 423.463L586.422 432.689L578.771 432.231L575.626 417.121L588.339 411.228L592.09 423.463Z" fill="url(#paint7_linear_468_1346)"/>
<path fill-rule="evenodd" clip-rule="evenodd" d="M965.927 878.247L959.341 880.183L954.333 875.679L958.563 869.842L968.097 868.917L965.927 878.247Z" fill="url(#paint8_linear_468_1346)"/>
<path fill-rule="evenodd" clip-rule="evenodd" d="M940.8 892.622L938.534 895.565L932.249 893.564L933.546 889.765L935.675 888.485L940.8 892.622Z" fill="url(#paint9_linear_468_1346)"/>
<path fill-rule="evenodd" clip-rule="evenodd" d="M980.666 869.566L981.858 876.669L992.157 882.289L995.857 876.704L988.3 868.043L980.666 869.566Z" fill="url(#paint10_linear_468_1346)"/>
<path fill-rule="evenodd" clip-rule="evenodd" d="M1012.86 879.7L1009.92 880.305L1004.59 876.4L1007.72 874.374L1011.82 877.016L1012.86 879.7Z" fill="url(#paint11_linear_468_1346)"/>
<path fill-rule="evenodd" clip-rule="evenodd" d="M879.654 369.729L881.876 385.035L874.403 389.346L855.479 375.202L863.15 367.229L879.654 369.729Z" fill="url(#paint12_linear_468_1346)"/>
<path fill-rule="evenodd" clip-rule="evenodd" d="M954.071 902.239L962.993 913.885L969.839 913.744L973.7 903.705L965.734 896.147L954.071 902.239Z" fill="url(#paint13_linear_468_1346)"/>
<path fill-rule="evenodd" clip-rule="evenodd" d="M1089.82 869.882L1066.69 893.421L1049.3 889.653L1050.58 850.562L1083.7 846.596L1089.82 869.882Z" fill="url(#paint14_linear_468_1346)"/>
<path fill-rule="evenodd" clip-rule="evenodd" d="M1089.82 869.881L1059.19 859.925L1050.58 850.562L1083.7 846.596L1089.82 869.881Z" fill="#57198A"/>
<g style="mix-blend-mode:screen" opacity="0.5">
<path fill-rule="evenodd" clip-rule="evenodd" d="M1049.3 889.652L1054.49 886.272L1059.19 859.924L1050.58 850.562L1049.3 889.652Z" fill="#D7B2FF"/>
</g>
<path fill-rule="evenodd" clip-rule="evenodd" d="M1068.54 862.965L1058.47 863.883L1056.72 857.245L1068.54 862.965Z" fill="#430F3F"/>
<path fill-rule="evenodd" clip-rule="evenodd" d="M588.339 411.229L592.09 423.464L580.675 419.567L575.626 417.122L588.339 411.229Z" fill="#57198A"/>
<g style="mix-blend-mode:soft-light">
<path fill-rule="evenodd" clip-rule="evenodd" d="M578.77 432.231L581.29 431.967L582.187 420.079L575.626 417.121L578.77 432.231Z" fill="#BF81FF"/>
</g>
<path fill-rule="evenodd" clip-rule="evenodd" d="M585.942 421.369L581.968 423.147L578.808 418.541L585.942 421.369Z" fill="#430F3F"/>
<g style="mix-blend-mode:soft-light">
<path fill-rule="evenodd" clip-rule="evenodd" d="M503.608 701.602L510.866 693.192L509.787 688.573L499.977 696.316L503.608 701.602Z" fill="#BF81FF"/>
</g>
<g style="mix-blend-mode:soft-light">
<path fill-rule="evenodd" clip-rule="evenodd" d="M881.876 385.035L866.477 370.278L855.479 375.202L874.403 389.346L881.876 385.035Z" fill="#BF81FF"/>
</g>
<g style="mix-blend-mode:soft-light">
<path fill-rule="evenodd" clip-rule="evenodd" d="M805.399 367.694L816.442 353.546L814.862 346.251L806.958 337.229L796.585 360.774L805.399 367.694Z" fill="#BF81FF"/>
</g>
<g style="mix-blend-mode:screen" opacity="0.5">
<path fill-rule="evenodd" clip-rule="evenodd" d="M959.341 880.184L962.559 877.365L962.569 872.883L958.563 869.844L954.332 875.68L959.341 880.184Z" fill="#D7B2FF"/>
</g>
<g style="mix-blend-mode:screen" opacity="0.5">
<path fill-rule="evenodd" clip-rule="evenodd" d="M932.25 893.564L936.466 893.917L938.11 892.476L935.676 888.485L933.547 889.765L932.25 893.564Z" fill="#D7B2FF"/>
</g>
<path fill-rule="evenodd" clip-rule="evenodd" d="M962.993 913.885L970.977 904.414L965.734 896.147L954.071 902.239L962.993 913.885Z" fill="#57198A"/>
<path fill-rule="evenodd" clip-rule="evenodd" d="M981.858 876.671L988.387 877.739L990.202 875.031L988.3 868.044L980.666 869.568L981.858 876.671Z" fill="#57198A"/>
<path fill-rule="evenodd" clip-rule="evenodd" d="M1009.92 880.306L1011.07 879.299L1010.99 877.958L1007.72 874.375L1004.59 876.401L1009.92 880.306Z" fill="#57198A"/>
<g style="mix-blend-mode:soft-light">
<path fill-rule="evenodd" clip-rule="evenodd" d="M1105.43 708.847L1105.82 700.945L1097.3 697.572L1092.61 703.46L1105.43 708.847Z" fill="#E4D4CD"/>
</g>
<g style="mix-blend-mode:soft-light">
<path fill-rule="evenodd" clip-rule="evenodd" d="M1120.21 715.197L1136.27 714.944L1140.12 708.564L1142.47 699.232L1120.99 709.988L1120.21 715.197Z" fill="#E4D4CD"/>
</g>
<g style="mix-blend-mode:screen" opacity="0.5">
<path fill-rule="evenodd" clip-rule="evenodd" d="M1096.08 854.764L1102.74 855.845L1107.88 855.21L1116.22 849.972L1104.62 848.288L1096.08 854.764Z" fill="#D7B2FF"/>
</g>
<g style="mix-blend-mode:screen" opacity="0.5">
<path fill-rule="evenodd" clip-rule="evenodd" d="M1111.57 870.449L1120.95 876.691L1134.91 877.183L1140.09 869.687L1141.07 860.603L1132.32 861.639L1114.9 866.683L1111.57 870.449Z" fill="#D7B2FF"/>
</g>
<g style="mix-blend-mode:soft-light">
<path fill-rule="evenodd" clip-rule="evenodd" d="M1190.05 820.805L1197.14 814.593L1195.33 807.743L1187.42 815.765L1190.05 820.805Z" fill="#E4D4CD"/>
</g>
<path fill-rule="evenodd" clip-rule="evenodd" d="M866.477 370.278L879.653 369.729L863.15 367.229L855.478 375.202L866.477 370.278Z" fill="#57198A"/>
<path fill-rule="evenodd" clip-rule="evenodd" d="M814.862 346.252L822.589 350.291L818.834 337.873L806.957 337.23L814.862 346.252Z" fill="#6C1E90"/>
<path fill-rule="evenodd" clip-rule="evenodd" d="M528.218 691.061L517.633 694.638L510.866 693.192L509.787 688.573L526.306 688.45L528.218 691.061Z" fill="#57198A"/>
<path fill-rule="evenodd" clip-rule="evenodd" d="M938.109 892.476L940.8 892.622L935.675 888.485L938.109 892.476Z" fill="#57198A"/>
<path fill-rule="evenodd" clip-rule="evenodd" d="M962.57 872.883L968.097 868.919L958.563 869.844L962.57 872.883Z" fill="#57198A"/>
<path fill-rule="evenodd" clip-rule="evenodd" d="M990.202 875.029L995.857 876.704L988.3 868.043L990.202 875.029Z" fill="#57198A"/>
<path fill-rule="evenodd" clip-rule="evenodd" d="M970.976 904.413L973.7 903.704L965.734 896.147L970.976 904.413Z" fill="#57198A"/>
<path fill-rule="evenodd" clip-rule="evenodd" d="M1010.99 877.958L1011.82 877.016L1007.72 874.375L1010.99 877.958Z" fill="#57198A"/>
<path fill-rule="evenodd" clip-rule="evenodd" d="M1107.88 855.208L1107.97 859.308L1116.22 849.97L1107.88 855.208Z" fill="#57198A"/>
<path fill-rule="evenodd" clip-rule="evenodd" d="M1134.91 877.183L1133.49 880.907L1147.71 871.426L1141.07 860.602L1140.09 869.687L1134.91 877.183Z" fill="#57198A"/>
<path fill-rule="evenodd" clip-rule="evenodd" d="M598.346 400.251L581.073 400.475L573.549 390.746L591.401 377.235L615.577 380.788L598.346 400.251Z" fill="url(#paint15_linear_468_1346)"/>
<path fill-rule="evenodd" clip-rule="evenodd" d="M612.79 415.63L605.86 423.486L614.496 440.547L651.579 445.277L681.257 425.504L667.373 402.951L649.151 405.125L612.79 415.63Z" fill="url(#paint16_linear_468_1346)"/>
<g style="mix-blend-mode:soft-light">
<path fill-rule="evenodd" clip-rule="evenodd" d="M573.55 390.747L587.482 393.023L598.155 391.686L615.577 380.788L591.401 377.236L573.55 390.747Z" fill="#BF81FF"/>
</g>
<g style="mix-blend-mode:soft-light">
<path fill-rule="evenodd" clip-rule="evenodd" d="M605.86 423.487L625.426 436.509L654.553 437.508L665.352 421.869L667.373 402.952L649.151 405.126L612.79 415.631L605.86 423.487Z" fill="#BF81FF"/>
</g>
<path fill-rule="evenodd" clip-rule="evenodd" d="M598.155 391.685L598.346 400.25L615.577 380.787L598.155 391.685Z" fill="#57198A"/>
<path fill-rule="evenodd" clip-rule="evenodd" d="M654.552 437.507L651.579 445.277L681.257 425.504L667.373 402.952L665.352 421.868L654.552 437.507Z" fill="#57198A"/>
<path fill-rule="evenodd" clip-rule="evenodd" d="M247.838 299.071L249.418 308.257L269.855 309.254L300.495 281.769L305.381 248.894L276.581 249.552L265.253 265.122L247.838 299.071Z" fill="url(#paint17_linear_468_1346)"/>
<g style="mix-blend-mode:soft-light">
<path fill-rule="evenodd" clip-rule="evenodd" d="M249.417 308.257L274.357 298.627L296.165 275.792L290.896 259.934L276.581 249.553L265.253 265.123L247.838 299.071L249.417 308.257Z" fill="#BF81FF"/>
</g>
<path fill-rule="evenodd" clip-rule="evenodd" d="M296.165 275.793L300.495 281.77L305.381 248.895L276.582 249.553L290.896 259.935L296.165 275.793Z" fill="#57198A"/>
<path fill-rule="evenodd" clip-rule="evenodd" d="M1140.12 708.562L1143.43 713.943L1142.47 699.23L1140.12 708.562Z" fill="#57198A"/>
<path fill-rule="evenodd" clip-rule="evenodd" d="M1105.82 700.943L1106.66 699.727L1097.3 697.57L1105.82 700.943Z" fill="#57198A"/>
<path fill-rule="evenodd" clip-rule="evenodd" d="M349.439 275.281L334.173 282.932L333.612 286.645L342.85 291.517L350.12 285.76L349.439 275.281Z" fill="url(#paint18_linear_468_1346)"/>
<path fill-rule="evenodd" clip-rule="evenodd" d="M327.643 281.972L323.091 282.126L313.978 278.289L317.305 274.096L323.966 275.635L327.643 281.972Z" fill="url(#paint19_linear_468_1346)"/>
<g style="mix-blend-mode:soft-light">
<path fill-rule="evenodd" clip-rule="evenodd" d="M323.091 282.126L323.378 276.496L317.305 274.096L313.978 278.289L323.091 282.126Z" fill="#BF81FF"/>
</g>
<g style="mix-blend-mode:soft-light">
<path fill-rule="evenodd" clip-rule="evenodd" d="M333.613 286.645L345.024 286.472L347.756 281.921L349.439 275.282L334.173 282.933L333.613 286.645Z" fill="#BF81FF"/>
</g>
<path fill-rule="evenodd" clip-rule="evenodd" d="M323.378 276.497L323.966 275.635L317.305 274.096L323.378 276.497Z" fill="#57198A"/>
<path fill-rule="evenodd" clip-rule="evenodd" d="M1197.14 814.593L1206.03 813.143L1195.33 807.742L1197.14 814.593Z" fill="#57198A"/>
<path fill-rule="evenodd" clip-rule="evenodd" d="M533.378 10.6069L525.164 10.9344L522.571 5.19255L532.093 -1.7389L539.679 4.10139L533.378 10.6069Z" fill="url(#paint20_linear_468_1346)"/>
<g style="mix-blend-mode:soft-light">
<path fill-rule="evenodd" clip-rule="evenodd" d="M525.165 10.9336L531.73 4.30235L532.093 -1.73973L522.572 5.19172L525.165 10.9336Z" fill="#BF81FF"/>
</g>
<path fill-rule="evenodd" clip-rule="evenodd" d="M531.73 4.30225L539.679 4.10046L532.093 -1.73983L531.73 4.30225Z" fill="#57198A"/>
<path fill-rule="evenodd" clip-rule="evenodd" d="M493.921 -34.6411L459.858 -20.4785L458.263 -13.4894L458.04 0.203646L500.299 -5.0325L505.297 -31.2165L493.921 -34.6411Z" fill="url(#paint21_linear_468_1346)"/>
<g style="mix-blend-mode:soft-light">
<path fill-rule="evenodd" clip-rule="evenodd" d="M458.04 0.203403L475.109 -4.9271L488.701 -28.471L459.858 -20.4787L458.262 -13.4896L458.04 0.203403Z" fill="#BF81FF"/>
</g>
<path fill-rule="evenodd" clip-rule="evenodd" d="M962.559 877.364L965.927 878.247L959.341 880.183L962.559 877.364Z" fill="#57198A"/>
<path fill-rule="evenodd" clip-rule="evenodd" d="M936.465 893.916L938.534 895.565L940.799 892.621L938.109 892.476L936.465 893.916Z" fill="#57198A"/>
<path fill-rule="evenodd" clip-rule="evenodd" d="M1074.13 1065.77L1071.85 1068.7L1065.6 1066.69L1066.87 1062.91L1068.99 1061.62L1074.13 1065.77Z" fill="url(#paint22_linear_468_1346)"/>
<g style="mix-blend-mode:screen" opacity="0.5">
<path fill-rule="evenodd" clip-rule="evenodd" d="M1065.6 1066.7L1069.79 1067.06L1071.44 1065.62L1068.99 1061.62L1066.87 1062.91L1065.6 1066.7Z" fill="#D7B2FF"/>
</g>
<path fill-rule="evenodd" clip-rule="evenodd" d="M1071.44 1065.62L1074.13 1065.77L1068.99 1061.62L1071.44 1065.62Z" fill="#57198A"/>
<path fill-rule="evenodd" clip-rule="evenodd" d="M1069.79 1067.06L1071.85 1068.7L1074.13 1065.77L1071.44 1065.62L1069.79 1067.06Z" fill="#57198A"/>
<path fill-rule="evenodd" clip-rule="evenodd" d="M881.876 385.036L866.477 370.279L879.654 369.73L881.876 385.036Z" fill="#6C1E90"/>
<path fill-rule="evenodd" clip-rule="evenodd" d="M290.896 259.934L305.381 248.894L276.581 249.553L290.896 259.934Z" fill="#57198A"/>
<path fill-rule="evenodd" clip-rule="evenodd" d="M840.607 260.995L763.488 309.767L716.085 270.895L730.849 253.646L770.934 242.647L741.818 244.728L732.791 234.426L754.802 215.14L819.16 217.113L841.445 244.047L840.607 260.995Z" fill="url(#paint23_linear_468_1346)"/>
<g style="mix-blend-mode:multiply" opacity="0.5">
<path fill-rule="evenodd" clip-rule="evenodd" d="M716.085 270.895L785.665 246.62L786.188 243.579L761.487 247.702L815.924 231.077L833.802 245.525L840.607 260.995L841.445 244.047L819.16 217.113L754.802 215.14L732.791 234.426L783.622 228.308L799.589 229.946L770.934 242.647L730.849 253.646L716.085 270.895Z" fill="#A359AA"/>
</g>
<g style="mix-blend-mode:multiply" opacity="0.5">
<path fill-rule="evenodd" clip-rule="evenodd" d="M823.652 242.677L789.555 243.211L792.551 246.63L832.323 246.581L823.652 242.677Z" fill="#A359AA"/>
</g>
<g style="mix-blend-mode:screen" opacity="0.3">
<path fill-rule="evenodd" clip-rule="evenodd" d="M840.607 260.995L832.322 246.582L788 247.609L716.085 270.895L763.488 309.767L840.607 260.995Z" fill="#D7B2FF"/>
</g>
<g style="mix-blend-mode:screen" opacity="0.3">
<path fill-rule="evenodd" clip-rule="evenodd" d="M741.818 244.728L770.934 242.647L732.792 234.426L741.818 244.728Z" fill="#D7B2FF"/>
</g>
<g style="mix-blend-mode:multiply" opacity="0.5">
<path fill-rule="evenodd" clip-rule="evenodd" d="M799.59 229.945L788.467 234.871L789.52 239.14L815.925 231.075L833.802 245.523L840.607 260.994L841.445 244.045L819.16 217.111L805.608 227.468L799.59 229.945Z" fill="#A359AA"/>
</g>
<path fill-rule="evenodd" clip-rule="evenodd" d="M763.488 309.767L765.984 308.192L716.085 270.894L763.488 309.767Z" fill="#9C3CFB"/>
<path fill-rule="evenodd" clip-rule="evenodd" d="M820.581 261.501L814.798 265.423L801.668 261.245L820.581 261.501Z" fill="#451134"/>
<path fill-rule="evenodd" clip-rule="evenodd" d="M740.238 286.048L801.425 261.645L746.367 279.773L740.238 286.048Z" fill="#451134"/>
<path fill-rule="evenodd" clip-rule="evenodd" d="M763.488 309.766L840.607 260.995L765.126 307.213L763.488 309.766Z" fill="#9C3CFB"/>
<path fill-rule="evenodd" clip-rule="evenodd" d="M819.16 217.113L815.925 231.077L832.322 246.582L840.607 260.996L841.445 244.047L819.16 217.113Z" fill="#6C1E90"/>
<path fill-rule="evenodd" clip-rule="evenodd" d="M993.035 1015.95L965.978 1009.25L971.482 977.614L1014.13 1000.79L993.035 1015.95Z" fill="url(#paint24_linear_468_1346)"/>
<g style="mix-blend-mode:multiply" opacity="0.5">
<path fill-rule="evenodd" clip-rule="evenodd" d="M965.978 1009.25L973.507 987.023L998.224 1002.21L1014.13 1000.79L993.035 1015.95L965.978 1009.25Z" fill="#A359AA"/>
</g>
<g style="mix-blend-mode:screen" opacity="0.5">
<path fill-rule="evenodd" clip-rule="evenodd" d="M973.507 987.022L971.482 977.613L1014.13 1000.79L998.224 1002.21L973.507 987.022Z" fill="#D7B2FF"/>
</g>
<path fill-rule="evenodd" clip-rule="evenodd" d="M965.978 1009.25L973.507 987.022L971.482 977.614L965.978 1009.25Z" fill="#9C3CFB"/>
<defs>
<linearGradient id="paint0_linear_468_1346" x1="530.725" y1="688.352" x2="505.6" y2="681.616" gradientUnits="userSpaceOnUse">
<stop stop-color="#3B1B36"/>
<stop offset="1" stop-color="#311134"/>
</linearGradient>
<linearGradient id="paint1_linear_468_1346" x1="821.262" y1="340.644" x2="797.324" y2="361.618" gradientUnits="userSpaceOnUse">
<stop stop-color="#5C214A"/>
<stop offset="1" stop-color="#4F1D4F"/>
</linearGradient>
<linearGradient id="paint2_linear_468_1346" x1="1139.93" y1="717.012" x2="1128.22" y2="703.652" gradientUnits="userSpaceOnUse">
<stop stop-color="#5C214A"/>
<stop offset="1" stop-color="#4F1D4F"/>
</linearGradient>
<linearGradient id="paint3_linear_468_1346" x1="1108.41" y1="711.609" x2="1096.63" y2="698.158" gradientUnits="userSpaceOnUse">
<stop stop-color="#5C214A"/>
<stop offset="1" stop-color="#4F1D4F"/>
</linearGradient>
<linearGradient id="paint4_linear_468_1346" x1="1107.68" y1="863.129" x2="1103.22" y2="852.606" gradientUnits="userSpaceOnUse">
<stop stop-color="#5C214A"/>
<stop offset="1" stop-color="#4F1D4F"/>
</linearGradient>
<linearGradient id="paint5_linear_468_1346" x1="1132.14" y1="885.099" x2="1124.22" y2="866.412" gradientUnits="userSpaceOnUse">
<stop stop-color="#5C214A"/>
<stop offset="1" stop-color="#4F1D4F"/>
</linearGradient>
<linearGradient id="paint6_linear_468_1346" x1="1200.74" y1="820.062" x2="1192.28" y2="810.407" gradientUnits="userSpaceOnUse">
<stop stop-color="#5C214A"/>
<stop offset="1" stop-color="#4F1D4F"/>
</linearGradient>
<linearGradient id="paint7_linear_468_1346" x1="590.223" y1="429.359" x2="577.819" y2="415.2" gradientUnits="userSpaceOnUse">
<stop stop-color="#5C214A"/>
<stop offset="1" stop-color="#4F1D4F"/>
</linearGradient>
<linearGradient id="paint8_linear_468_1346" x1="966.21" y1="877.999" x2="958.846" y2="869.594" gradientUnits="userSpaceOnUse">
<stop stop-color="#5C214A"/>
<stop offset="1" stop-color="#4F1D4F"/>
</linearGradient>
<linearGradient id="paint9_linear_468_1346" x1="938.623" y1="895.487" x2="933.582" y2="889.734" gradientUnits="userSpaceOnUse">
<stop stop-color="#5C214A"/>
<stop offset="1" stop-color="#4F1D4F"/>
</linearGradient>
<linearGradient id="paint10_linear_468_1346" x1="993.076" y1="881.483" x2="981.78" y2="868.59" gradientUnits="userSpaceOnUse">
<stop stop-color="#5C214A"/>
<stop offset="1" stop-color="#4F1D4F"/>
</linearGradient>
<linearGradient id="paint11_linear_468_1346" x1="1011.71" y1="880.707" x2="1006.48" y2="874.742" gradientUnits="userSpaceOnUse">
<stop stop-color="#5C214A"/>
<stop offset="1" stop-color="#4F1D4F"/>
</linearGradient>
<linearGradient id="paint12_linear_468_1346" x1="877.117" y1="386.151" x2="852.6" y2="389.856" gradientUnits="userSpaceOnUse">
<stop stop-color="#5C214A"/>
<stop offset="1" stop-color="#4F1D4F"/>
</linearGradient>
<linearGradient id="paint13_linear_468_1346" x1="971.447" y1="912.334" x2="958.898" y2="898.01" gradientUnits="userSpaceOnUse">
<stop stop-color="#5C214A"/>
<stop offset="1" stop-color="#4F1D4F"/>
</linearGradient>
<linearGradient id="paint14_linear_468_1346" x1="1072.86" y1="894.455" x2="1055.05" y2="852.438" gradientUnits="userSpaceOnUse">
<stop stop-color="#5C214A"/>
<stop offset="1" stop-color="#4F1D4F"/>
</linearGradient>
<linearGradient id="paint15_linear_468_1346" x1="600.069" y1="404.916" x2="590.766" y2="382.971" gradientUnits="userSpaceOnUse">
<stop stop-color="#5C214A"/>
<stop offset="1" stop-color="#4F1D4F"/>
</linearGradient>
<linearGradient id="paint16_linear_468_1346" x1="651.056" y1="450.716" x2="634.538" y2="411.752" gradientUnits="userSpaceOnUse">
<stop stop-color="#5C214A"/>
<stop offset="1" stop-color="#4F1D4F"/>
</linearGradient>
<linearGradient id="paint17_linear_468_1346" x1="302.628" y1="287.632" x2="261.872" y2="272.743" gradientUnits="userSpaceOnUse">
<stop stop-color="#5C214A"/>
<stop offset="1" stop-color="#4F1D4F"/>
</linearGradient>
<linearGradient id="paint18_linear_468_1346" x1="347.627" y1="287.944" x2="339.287" y2="278.425" gradientUnits="userSpaceOnUse">
<stop stop-color="#5C214A"/>
<stop offset="1" stop-color="#4F1D4F"/>
</linearGradient>
<linearGradient id="paint19_linear_468_1346" x1="325.221" y1="284.094" x2="316.828" y2="274.515" gradientUnits="userSpaceOnUse">
<stop stop-color="#5C214A"/>
<stop offset="1" stop-color="#4F1D4F"/>
</linearGradient>
<linearGradient id="paint20_linear_468_1346" x1="534.368" y1="9.73949" x2="526.991" y2="1.31997" gradientUnits="userSpaceOnUse">
<stop stop-color="#5C214A"/>
<stop offset="1" stop-color="#4F1D4F"/>
</linearGradient>
<linearGradient id="paint21_linear_468_1346" x1="502.55" y1="-15.3277" x2="460.772" y2="-24.8594" gradientUnits="userSpaceOnUse">
<stop stop-color="#5C214A"/>
<stop offset="1" stop-color="#4F1D4F"/>
</linearGradient>
<linearGradient id="paint22_linear_468_1346" x1="1071.94" y1="1068.62" x2="1066.91" y2="1062.88" gradientUnits="userSpaceOnUse">
<stop stop-color="#5C214A"/>
<stop offset="1" stop-color="#4F1D4F"/>
</linearGradient>
<linearGradient id="paint23_linear_468_1346" x1="820.229" y1="218.333" x2="735.26" y2="292.78" gradientUnits="userSpaceOnUse">
<stop stop-color="#520C36"/>
<stop offset="1" stop-color="#431135"/>
</linearGradient>
<linearGradient id="paint24_linear_468_1346" x1="1014.55" y1="999.321" x2="968.955" y2="988.417" gradientUnits="userSpaceOnUse">
<stop stop-color="#520C36"/>
<stop offset="1" stop-color="#431135"/>
</linearGradient>
</defs>
</svg>
