<svg width="754" height="791" viewBox="0 0 754 791" fill="none" xmlns="http://www.w3.org/2000/svg">
<path fill-rule="evenodd" clip-rule="evenodd" d="M278.962 157.44C278.962 157.44 376.827 46.3678 466.91 59.3221C560.36 72.7707 613.989 229.332 613.989 229.332L278.962 157.44Z" fill="url(#paint0_linear_468_4751)"/>
<path fill-rule="evenodd" clip-rule="evenodd" d="M716.156 299.416C713.813 303.806 603.856 327.087 431.5 292.717C272.307 260.973 163.025 196.63 166.047 189.719C168.175 184.882 293.598 192.133 445.517 222.427C597.435 252.721 717.896 296.145 716.156 299.416Z" fill="url(#paint1_radial_468_4751)"/>
<path fill-rule="evenodd" clip-rule="evenodd" d="M166.047 189.719C166.047 189.719 261.362 128.481 445.762 165.252C630.161 202.022 716.156 299.415 716.156 299.415C716.156 299.415 644.006 266.813 433.865 224.909C266.083 191.452 166.047 189.719 166.047 189.719Z" fill="url(#paint2_radial_468_4751)"/>
<path d="M657.367 309.803L656.272 309.205C657.959 306.076 652.488 302.177 647.596 299.431C614.442 280.853 502.646 254.488 412.795 237.835C300.375 217.012 220.674 210.226 214.467 220.929L213.401 220.311C221.382 206.547 321.77 219.71 413.038 236.619C502.986 253.29 614.947 279.715 648.238 298.369C656.137 302.778 659.131 306.537 657.367 309.803Z" fill="#3C107B"/>
<path fill-rule="evenodd" clip-rule="evenodd" d="M320.297 263.51C320.297 263.51 416.375 269.868 538.755 308.109C538.755 308.109 424.365 298.049 320.297 263.51Z" fill="#31165F"/>
<path fill-rule="evenodd" clip-rule="evenodd" d="M331.168 266.715C331.168 266.715 421.456 273.056 527.028 307.035C527.028 307.035 423.237 298.38 331.168 266.715Z" fill="#0054B5"/>
<path fill-rule="evenodd" clip-rule="evenodd" d="M352.071 268.581C352.071 268.581 452.03 297.089 503.878 299.308C503.878 299.308 412.514 275.27 352.071 268.581Z" fill="#31C7FF"/>
<path fill-rule="evenodd" clip-rule="evenodd" d="M455.963 266.834C455.522 269.048 446.847 269.164 436.579 267.117C426.336 265.075 418.374 261.615 418.811 259.425C418.874 259.109 419.103 258.851 419.453 258.617C421.68 257.215 429.344 257.351 438.176 259.112C445.864 260.646 452.259 262.958 454.795 264.956C455.647 265.632 456.075 266.274 455.963 266.834Z" fill="url(#paint3_linear_468_4751)"/>
<path fill-rule="evenodd" clip-rule="evenodd" d="M454.81 265.01C454.431 266.908 446.17 266.854 436.365 264.899C427.679 263.167 420.695 260.509 419.478 258.622C421.705 257.22 429.368 257.356 438.2 259.117C445.889 260.651 452.283 262.963 454.819 264.961C454.815 264.986 454.815 264.986 454.81 265.01Z" fill="white"/>
<path fill-rule="evenodd" clip-rule="evenodd" d="M542.897 286.446C542.49 288.49 536.861 289.062 530.291 287.752C524.866 286.67 520.539 284.644 519.414 282.801C519.185 282.426 519.083 282.051 519.156 281.686C519.214 281.395 519.365 281.146 519.637 280.922C521.159 279.506 526.122 279.23 531.766 280.356C535.246 281.05 538.268 282.133 540.287 283.295C541.13 283.766 541.787 284.277 542.244 284.773C542.755 285.381 542.999 285.935 542.897 286.446Z" fill="url(#paint4_linear_468_4751)"/>
<path fill-rule="evenodd" clip-rule="evenodd" d="M540.561 284.462C540.153 286.506 534.524 287.078 527.955 285.768C524.476 285.074 521.454 283.991 519.439 282.805C519.21 282.43 519.107 282.056 519.18 281.691C519.238 281.399 519.389 281.151 519.661 280.927C521.183 279.51 526.146 279.235 531.791 280.36C535.27 281.054 538.292 282.137 540.312 283.299C540.531 283.722 540.633 284.097 540.561 284.462Z" fill="white"/>
<path fill-rule="evenodd" clip-rule="evenodd" d="M599.17 308.721C598.913 310.011 594.393 310.222 589.089 309.165C584.71 308.292 581.157 306.824 580.183 305.618C579.979 305.375 579.901 305.132 579.949 304.888C579.983 304.718 580.095 304.538 580.299 304.402C581.481 303.549 585.456 303.533 590.03 304.445C592.853 305.008 595.325 305.804 596.984 306.616C597.676 306.956 598.24 307.296 598.605 307.622C599.029 308.035 599.233 308.405 599.17 308.721Z" fill="url(#paint5_linear_468_4751)"/>
<path fill-rule="evenodd" clip-rule="evenodd" d="M597.213 307.37C596.956 308.66 592.436 308.871 587.108 307.809C584.286 307.246 581.814 306.45 580.159 305.614C579.954 305.371 579.876 305.127 579.925 304.884C579.959 304.714 580.071 304.534 580.275 304.397C581.457 303.545 585.432 303.528 590.006 304.44C592.828 305.003 595.3 305.8 596.96 306.611C597.184 306.884 597.262 307.127 597.213 307.37Z" fill="white"/>
<path fill-rule="evenodd" clip-rule="evenodd" d="M340.016 245.685C339.608 247.729 344.587 250.417 351.157 251.727C356.582 252.809 361.355 252.597 363.101 251.326C363.456 251.068 363.694 250.761 363.767 250.396C363.825 250.104 363.782 249.817 363.616 249.506C362.754 247.614 358.276 245.456 352.632 244.331C349.152 243.637 345.946 243.478 343.635 243.776C342.676 243.889 341.874 244.108 341.261 244.39C340.556 244.756 340.118 245.174 340.016 245.685Z" fill="url(#paint6_linear_468_4751)"/>
<path fill-rule="evenodd" clip-rule="evenodd" d="M342.934 244.749C342.527 246.793 347.505 249.481 354.075 250.791C357.554 251.484 360.76 251.643 363.076 251.321C363.431 251.063 363.669 250.756 363.742 250.391C363.8 250.099 363.756 249.812 363.591 249.501C362.729 247.608 358.251 245.451 352.606 244.325C349.127 243.631 345.921 243.473 343.61 243.771C343.245 244.077 343.007 244.384 342.934 244.749Z" fill="white"/>
<path fill-rule="evenodd" clip-rule="evenodd" d="M268.638 242.331C268.381 243.62 272.474 245.55 277.778 246.607C282.157 247.481 286.001 247.488 287.363 246.748C287.645 246.602 287.81 246.407 287.859 246.164C287.893 245.993 287.859 245.784 287.722 245.58C286.958 244.34 283.293 242.799 278.719 241.887C275.897 241.324 273.308 241.112 271.464 241.225C270.696 241.274 270.044 241.371 269.577 241.557C269.037 241.727 268.706 241.99 268.638 242.331Z" fill="url(#paint7_linear_468_4751)"/>
<path fill-rule="evenodd" clip-rule="evenodd" d="M270.943 241.804C270.686 243.093 274.779 245.022 280.108 246.085C282.93 246.648 285.519 246.86 287.367 246.723C287.65 246.577 287.815 246.382 287.863 246.139C287.897 245.969 287.863 245.759 287.727 245.555C286.962 244.315 283.298 242.775 278.723 241.862C275.901 241.3 273.313 241.087 271.469 241.2C271.177 241.395 270.987 241.585 270.943 241.804Z" fill="white"/>
<path d="M677.914 266.897C568.879 192.307 447.53 170.336 364.945 165.074C275.445 159.345 210.906 171.419 210.249 171.541L210.01 170.33C210.642 170.203 275.313 158.104 364.963 163.838C447.719 169.134 569.292 191.125 678.594 265.894L677.914 266.897Z" fill="#77439F"/>
<path d="M166.072 190.357L166.042 189.112C166.879 189.101 252.399 188.269 448.891 227.451C645.407 266.638 715.723 298.545 716.419 298.861L715.889 299.995C715.193 299.679 644.97 267.816 448.649 228.668C252.303 189.515 166.909 190.347 166.072 190.357Z" fill="#3C107B"/>
<path d="M228.571 194.092L227.923 193.026C228.327 192.778 267.622 168.637 294.714 162.555L294.978 163.771C268.094 169.819 228.97 193.868 228.571 194.092Z" fill="#77439F"/>
<path d="M666.679 282.39C634.88 243.567 581.766 214.584 581.241 214.302L581.838 213.207C582.364 213.489 635.682 242.588 667.647 281.597L666.679 282.39Z" fill="#77439F"/>
<path d="M508.812 85.5381C508.812 85.5381 514.413 95.1297 525.4 113.233L538.675 116.057C538.675 116.057 533.845 102.091 516.038 86.979L508.812 85.5381Z" fill="#A690DA"/>
<path d="M282.838 153.23C282.838 153.23 388.152 42.2263 475.246 62.5535C562.365 82.8856 609.862 218.441 609.862 218.441C609.862 218.441 557.207 72.3449 478.591 56.567C388.052 38.4118 282.838 153.23 282.838 153.23Z" fill="#B4A4E6"/>
<path fill-rule="evenodd" clip-rule="evenodd" d="M343.494 150.223C343.494 150.223 395.962 129.797 462.543 139.709C529.118 149.645 569.785 194.36 569.785 194.36C569.785 194.36 458.82 146.581 343.494 150.223Z" fill="#260C41"/>
<path d="M301.259 144.33C301.259 144.33 324.269 120.914 349.804 105.514L357.774 105.257C357.774 105.257 330.18 128.822 319.464 142.977L301.259 144.33Z" fill="#B4A4E6"/>
<path fill-rule="evenodd" clip-rule="evenodd" d="M278.962 157.441L283.961 152.164C283.961 152.164 497.288 132.293 609.891 218.422L612.43 224.974C612.43 224.974 560.865 190.887 447.267 168.234C333.663 145.606 278.962 157.441 278.962 157.441Z" fill="url(#paint8_radial_468_4751)"/>
<path d="M293.57 203.309C293.57 203.309 431.851 217.248 635.296 273.957C635.296 273.957 493.001 234.603 293.57 203.309Z" fill="white"/>
<path fill-rule="evenodd" clip-rule="evenodd" d="M446.353 228.386C446.003 230.138 443.994 231.204 441.878 230.782C439.737 230.355 438.315 228.605 438.664 226.853C439.014 225.101 441.022 224.034 443.139 224.456C445.256 224.879 446.697 226.659 446.353 228.386Z" fill="url(#paint9_linear_468_4751)"/>
<path fill-rule="evenodd" clip-rule="evenodd" d="M445.549 228.226C445.277 229.589 443.692 230.436 442.013 230.102C440.334 229.767 439.195 228.376 439.467 227.013C439.738 225.651 441.324 224.803 443.003 225.138C444.682 225.473 445.821 226.864 445.549 228.226Z" fill="white"/>
<path fill-rule="evenodd" clip-rule="evenodd" d="M671.155 281.891C670.806 283.643 668.797 284.71 666.68 284.288C664.563 283.866 663.117 282.11 663.466 280.358C663.816 278.606 665.825 277.54 667.941 277.962C670.058 278.384 671.499 280.164 671.155 281.891Z" fill="url(#paint10_linear_468_4751)"/>
<path fill-rule="evenodd" clip-rule="evenodd" d="M670.328 281.727C670.056 283.09 668.471 283.937 666.792 283.603C665.113 283.268 663.974 281.877 664.245 280.514C664.517 279.152 666.103 278.304 667.782 278.639C669.46 278.974 670.6 280.365 670.328 281.727Z" fill="white"/>
<path fill-rule="evenodd" clip-rule="evenodd" d="M229.388 193.8C229.039 195.552 227.03 196.619 224.914 196.196C222.773 195.77 221.351 194.019 221.7 192.267C222.049 190.515 224.058 189.448 226.175 189.871C228.292 190.293 229.733 192.073 229.388 193.8Z" fill="url(#paint11_linear_468_4751)"/>
<path fill-rule="evenodd" clip-rule="evenodd" d="M228.562 193.636C228.29 194.998 226.704 195.846 225.025 195.511C223.347 195.176 222.207 193.785 222.479 192.423C222.751 191.06 224.336 190.213 226.015 190.547C227.718 190.887 228.833 192.273 228.562 193.636Z" fill="white"/>
<path fill-rule="evenodd" clip-rule="evenodd" d="M437.291 199.738C437.637 200.035 438.085 200.579 438.975 200.681C439.394 200.739 439.754 200.71 440.153 200.739C440.503 200.758 440.873 200.807 441.214 200.874C441.705 200.947 442.479 201 442.868 200.951C443.179 200.912 442.912 200.732 442.654 200.63C442.376 200.499 442.075 200.363 441.739 200.271C441.277 200.179 440.819 200.062 440.391 199.926C440.225 199.868 440.065 199.785 439.899 199.727C439.661 199.654 439.393 199.601 439.145 199.577C438.615 199.445 437.583 199.417 437.291 199.738Z" fill="white"/>
<path fill-rule="evenodd" clip-rule="evenodd" d="M444.338 202.08C444.09 202.056 443.9 201.993 443.764 201.915C443.856 201.579 445.554 201.817 445.812 202.172C446.105 202.609 444.854 202.411 444.319 202.177L444.338 202.08Z" fill="white"/>
<path fill-rule="evenodd" clip-rule="evenodd" d="M453.849 210.327C453.664 210.113 453.401 209.908 453.562 209.738C453.693 209.587 453.961 209.514 454.296 209.48C454.715 209.411 455.235 209.465 455.732 209.513C455.98 209.537 456.208 209.532 456.471 209.61C457.449 209.906 458.063 210.509 458.287 210.908C458.418 211.137 458.574 211.37 458.555 211.594C458.55 211.745 458.594 211.905 458.614 212.061C458.638 212.192 458.735 212.338 458.638 212.445C458.57 212.533 458.327 212.611 458.166 212.655C457.655 212.806 456.969 212.821 456.22 212.646C454.911 212.36 454.01 211.548 453.558 211.027C453.212 210.604 452.759 209.957 453.849 210.327Z" fill="white"/>
<path fill-rule="evenodd" clip-rule="evenodd" d="M452.389 208.391C452.745 208.512 452.857 208.585 453.075 208.502C453.236 208.459 453.26 208.337 453.207 208.225C453.095 208.026 452.433 207.666 451.946 207.695C451.688 207.72 451.246 207.783 451.197 207.9C451.105 208.109 451.83 208.532 452.346 208.61L452.389 208.391Z" fill="white"/>
<path fill-rule="evenodd" clip-rule="evenodd" d="M466.438 204.286C466.652 204.354 466.798 204.383 467.017 204.427C467.528 204.529 468.039 204.631 468.525 204.728C469.474 204.917 470.413 205.155 471.362 205.344C472.044 205.48 472.759 205.572 473.45 205.659C473.795 205.703 474.189 205.756 474.535 205.8C474.515 205.77 474.35 205.712 474.277 205.698C474.019 205.596 473.732 205.513 473.498 205.416C472.963 205.183 472.379 204.94 471.815 204.726C471.722 204.682 471.576 204.653 471.484 204.609C471.367 204.561 471.26 204.464 471.143 204.415C470.963 204.303 470.734 204.182 470.471 204.104C469.882 203.885 469.177 203.745 468.544 203.618C468.325 203.575 468.126 203.56 467.883 203.512C467.639 203.463 467.42 203.42 467.172 203.395C466.681 203.323 466.175 203.323 465.742 203.338C465.206 203.358 464.306 203.305 464.107 203.543C464.01 203.65 464.365 203.772 464.603 203.845C464.915 203.932 465.255 204 465.567 204.087C466.034 204.155 466.535 204.306 466.438 204.286Z" fill="white"/>
<path fill-rule="evenodd" clip-rule="evenodd" d="M462.014 203.125C461.781 203.028 461.357 202.868 461.459 202.736C461.562 202.605 462.073 202.707 462.335 202.785C462.983 202.964 462.238 203.145 461.805 203.033L462.014 203.125Z" fill="white"/>
<path fill-rule="evenodd" clip-rule="evenodd" d="M466.655 201.42C466.913 201.522 467.122 201.614 467.419 201.648C467.837 201.706 468.008 201.614 468.066 201.448C468.139 201.21 468.022 201.034 467.399 200.86C467.014 200.758 466.411 200.739 466.148 200.787C466.017 200.812 465.93 200.87 465.915 200.943C465.862 201.084 466.139 201.216 466.416 201.347L466.655 201.42Z" fill="white"/>
<path fill-rule="evenodd" clip-rule="evenodd" d="M486.691 199.901C486.35 199.453 486.004 199.03 485.887 198.602C485.785 198.227 485.926 197.901 485.921 197.546C485.896 197.035 485.57 196.515 485.37 195.994C485.185 195.527 485.116 195.109 485.471 194.725C485.729 194.447 486.332 194.213 487.116 194.218C487.597 194.212 488.142 194.27 488.658 194.348C488.906 194.372 489.15 194.421 489.393 194.469C489.539 194.498 489.665 194.498 489.836 194.532C490.079 194.581 490.069 194.629 490.055 194.702C490.021 194.873 489.948 194.985 489.7 195.087C489.315 195.238 489.116 195.477 488.941 195.72C488.771 195.939 488.576 196.153 488.455 196.382C488.333 196.611 488.212 196.839 488.066 197.063C487.949 197.268 487.813 197.443 487.697 197.647C487.58 197.852 487.541 198.046 487.449 198.256C487.391 198.421 487.405 198.601 487.318 198.786C487.269 198.903 487.225 198.995 487.206 199.093C487.187 199.19 487.148 199.258 487.109 199.326C487.07 199.394 487.075 199.497 487.06 199.57C487.026 199.613 486.871 199.76 486.691 199.901Z" fill="white"/>
<path fill-rule="evenodd" clip-rule="evenodd" d="M483.2 196.852C483.312 196.925 483.395 197.017 483.56 197.076C483.633 197.09 483.779 197.119 483.828 197.129C484.246 197.187 484.3 196.92 484.348 196.803C484.421 196.438 484.231 195.995 483.628 195.596C483.248 195.344 482.547 195.052 481.905 194.975C481.039 194.878 480.508 195.126 480.251 195.404C480.022 195.662 479.92 196.046 480.436 196.377C480.616 196.489 480.869 196.615 481.161 196.673C481.38 196.717 481.604 196.736 481.823 196.78C482.115 196.838 482.373 196.94 482.675 196.95C482.928 196.949 483.064 196.901 483.2 196.852Z" fill="white"/>
<path fill-rule="evenodd" clip-rule="evenodd" d="M483.671 194.745C483.423 194.721 483.374 194.711 483.194 194.599C483.034 194.517 482.97 194.454 483.038 194.366C483.14 194.235 483.569 194.244 483.875 194.356C484.06 194.443 484.162 194.565 484.172 194.643C484.177 194.745 483.963 194.803 483.715 194.779L483.671 194.745Z" fill="white"/>
<path fill-rule="evenodd" clip-rule="evenodd" d="M464.512 188.065C464.654 188.245 464.692 188.303 465.019 188.444C465.179 188.527 465.301 188.551 465.476 188.561C465.953 188.58 466.464 188.429 466.668 188.292C466.814 188.195 466.828 187.996 466.677 187.864C466.551 187.738 466.23 187.573 466.001 187.451C465.796 187.334 465.592 187.218 465.363 187.096C464.974 186.892 464.526 186.727 464.045 186.732C463.611 186.747 463.227 186.898 463.237 187.102C463.227 187.278 463.359 187.38 463.5 187.56C463.641 187.74 463.714 187.881 464.512 188.065Z" fill="white"/>
<path fill-rule="evenodd" clip-rule="evenodd" d="M466.41 189.203C466.453 189.111 466.551 189.004 466.692 188.931C466.813 188.955 466.896 188.921 467.042 188.95C467.232 189.013 467.154 189.149 467.144 189.198C467.13 189.271 467.013 189.349 466.857 189.368C466.804 189.383 466.546 189.408 466.531 189.354L466.41 189.203Z" fill="white"/>
<path fill-rule="evenodd" clip-rule="evenodd" d="M480.41 201.962C480.712 202.098 481.038 202.239 481.403 202.186C481.738 202.151 481.709 201.918 481.587 201.767C481.529 201.68 481.446 201.587 481.232 201.519C481.013 201.475 480.794 201.432 480.575 201.388C480.064 201.286 479.738 201.019 479.218 201.092C479.008 201.126 478.804 201.263 478.833 201.37C478.892 201.584 479.408 201.788 479.831 201.948L480.41 201.962Z" fill="white"/>
<path fill-rule="evenodd" clip-rule="evenodd" d="M496.035 221.8C496.132 222.072 496.361 222.32 496.746 222.549C496.819 222.563 496.892 222.578 496.965 222.592C497.344 222.719 497.753 222.825 498.162 222.806C499.378 222.795 499.324 222.304 499.412 221.866C499.504 221.404 499.742 220.844 498.068 220.738C497.295 220.685 496.054 220.564 495.533 220.764C495.261 220.861 495.368 220.958 495.46 221.129C495.597 221.333 495.719 221.61 496.035 221.8Z" fill="white"/>
<path fill-rule="evenodd" clip-rule="evenodd" d="M605.894 274.115C605.992 274.387 606.22 274.635 606.605 274.864C606.678 274.878 606.751 274.893 606.824 274.907C607.203 275.034 607.612 275.14 608.021 275.121C609.237 275.11 609.183 274.619 609.271 274.181C609.363 273.719 609.601 273.159 607.927 273.053C607.154 273 605.913 272.879 605.392 273.079C605.12 273.176 605.227 273.273 605.32 273.444C605.456 273.648 605.583 273.901 605.894 274.115Z" fill="white"/>
<path fill-rule="evenodd" clip-rule="evenodd" d="M498.907 216.908C498.606 216.772 498.017 216.553 497.983 216.344C497.963 216.188 498.192 216.183 498.406 216.125C498.892 215.969 499.471 215.857 500.201 216.255C500.523 216.42 500.693 216.707 500.586 216.863C500.484 216.994 499.968 217.17 499.516 217.029L498.907 216.908Z" fill="white"/>
<path fill-rule="evenodd" clip-rule="evenodd" d="M400.493 174.439C401.359 174.789 401.403 174.823 402.323 174.905C403.018 174.968 403.782 175.07 404.356 174.982C405.115 174.855 405.018 174.456 405.251 174.174C405.451 173.935 405.528 173.799 405.11 173.488C404.715 173.182 404.078 172.827 403.494 172.584C401.562 171.743 398.613 171.18 396.477 171.109C395.066 171.08 393.441 171.11 392.882 171.631C392.415 172.07 392.59 172.712 393.52 173.251C394.445 173.815 395.885 174.204 397.223 174.344C397.544 174.383 397.846 174.392 398.167 174.431C398.561 174.484 398.975 174.567 399.359 174.669C399.812 174.683 400.216 174.688 400.493 174.439Z" fill="white"/>
<path fill-rule="evenodd" clip-rule="evenodd" d="M275.763 210.788C276.629 211.138 276.673 211.172 277.593 211.254C278.288 211.317 279.052 211.419 279.626 211.331C280.385 211.204 280.288 210.805 280.521 210.523C280.721 210.284 280.798 210.148 280.38 209.837C279.985 209.53 279.348 209.175 278.764 208.932C276.832 208.092 273.883 207.529 271.747 207.457C270.336 207.429 268.711 207.459 268.152 207.98C267.685 208.418 267.86 209.06 268.79 209.6C269.715 210.164 271.155 210.552 272.493 210.693C272.814 210.731 273.116 210.741 273.437 210.78C273.831 210.833 274.245 210.915 274.629 211.017C275.082 211.032 275.486 211.036 275.763 210.788Z" fill="white"/>
<path fill-rule="evenodd" clip-rule="evenodd" d="M403.783 176.082C404.532 175.878 404.401 175.902 405.286 176.028C405.68 176.081 405.763 176.047 406.123 176.144C406.551 176.28 406.941 176.611 406.858 176.772C406.805 176.913 406.08 176.996 405.778 176.986C405.345 177.001 405.112 176.904 404.713 176.748L403.783 176.082Z" fill="white"/>
<path fill-rule="evenodd" clip-rule="evenodd" d="M396.878 209.566C397.618 209.789 398.475 210.061 399.024 209.842C399.408 209.691 399.136 209.282 398.785 209.01C398.303 208.636 396.999 208.072 396.133 207.849C395.194 207.611 394.109 207.85 393.919 208.166C393.565 208.804 396.29 209.727 397.594 210.037L396.878 209.566Z" fill="white"/>
<path fill-rule="evenodd" clip-rule="evenodd" d="M383.653 250.011C384.393 250.234 385.249 250.506 385.799 250.287C386.183 250.136 385.911 249.727 385.56 249.455C385.078 249.081 383.774 248.517 382.908 248.294C381.969 248.056 380.884 248.295 380.694 248.611C380.339 249.249 383.065 250.172 384.369 250.482L383.653 250.011Z" fill="white"/>
<path fill-rule="evenodd" clip-rule="evenodd" d="M404.956 211.682C404.728 211.687 404.114 211.717 403.852 211.639C403.735 211.591 403.72 211.537 403.628 211.493C403.277 211.348 402.981 211.187 402.966 211.007C402.888 210.637 403.257 210.433 404.046 210.413C404.581 210.393 405.092 210.495 405.471 210.748C405.9 211.01 406.017 211.438 405.418 211.521L404.956 211.682Z" fill="white"/>
<path fill-rule="evenodd" clip-rule="evenodd" d="M505.661 200.041C506.853 200.532 508.25 200.759 509.632 200.934C510.522 201.036 511.675 201.215 512.138 200.928C513.208 200.255 508.667 198.667 507.193 198.196C505.976 197.827 504.506 197.458 503.222 197.303C502.434 197.196 500.828 197.129 500.356 197.339C499.768 197.626 500.313 198.19 501.048 198.564C502.741 199.459 505.082 199.774 507.048 200.444L505.661 200.041Z" fill="white"/>
<path fill-rule="evenodd" clip-rule="evenodd" d="M505.282 200.42C505.311 200.527 505.306 200.931 505.501 201.096C505.652 201.227 505.866 201.422 506.153 201.504C506.533 201.631 506.971 201.591 507.233 201.543C507.418 201.504 507.613 201.416 507.535 201.299C507.477 201.212 507.199 201.08 507.063 201.003C506.79 200.847 506.459 200.731 506.109 200.585C505.944 200.526 505.807 200.449 505.613 200.41C505.326 200.327 505.214 200.381 504.99 200.362L505.282 200.42Z" fill="white"/>
<path fill-rule="evenodd" clip-rule="evenodd" d="M516.596 203.182C516.737 203.109 516.854 203.031 516.995 202.958C517.282 203.041 517.632 203.06 517.778 203.216C517.885 203.313 517.871 203.513 517.754 203.59C517.608 203.688 517.35 203.712 517.01 203.644C516.62 203.567 516.504 203.392 516.455 203.255L516.596 203.182Z" fill="white"/>
<path fill-rule="evenodd" clip-rule="evenodd" d="M529.363 219.464C529.718 219.586 529.981 219.664 530.297 219.6C530.745 219.512 530.891 219.288 530.56 219.045C530.122 218.705 529.061 218.19 528.17 218.088C527.625 218.03 526.939 218.172 527.212 218.454C527.363 218.585 527.548 218.799 527.752 218.916C528.137 219.144 528.711 219.309 529.241 219.44L529.363 219.464Z" fill="white"/>
<path fill-rule="evenodd" clip-rule="evenodd" d="M351.375 172.994C351.599 173.139 351.662 173.203 351.973 173.29C352.333 173.387 352.694 173.484 353.054 173.455C353.745 173.416 354.289 173.094 354.518 172.836C354.741 172.602 354.688 172.364 354.318 172.063C353.904 171.727 353.354 171.44 352.58 171.261C351.763 171.047 351.164 171.004 350.6 171.169C350.167 171.311 349.647 171.511 349.496 171.759C349.35 171.983 349.486 172.187 349.861 172.464C350.212 172.736 350.82 173.111 351.375 172.994Z" fill="white"/>
<path fill-rule="evenodd" clip-rule="evenodd" d="M354.347 171.284C354.128 171.24 353.885 171.192 353.851 171.109C353.802 170.973 354.108 170.832 354.347 170.778C354.532 170.739 354.931 170.768 355.174 170.816C355.368 170.855 355.524 170.962 355.607 171.054C355.782 171.191 355.782 171.317 355.617 171.385C355.481 171.434 355.228 171.561 354.965 171.483L354.347 171.284Z" fill="white"/>
<path fill-rule="evenodd" clip-rule="evenodd" d="M325.987 172.687C326.376 172.764 326.571 172.803 326.926 172.798C327.437 172.773 327.885 172.686 328.24 172.554C328.677 172.388 329.052 172.159 329.037 171.853C329.032 171.624 328.463 171.308 327.981 171.187C327.382 171.017 326.487 170.94 325.971 170.989C324.969 171.067 324.118 171.403 324.118 171.909C324.128 172.493 326.196 172.906 325.987 172.687Z" fill="white"/>
<path fill-rule="evenodd" clip-rule="evenodd" d="M331.343 171.326C331.187 171.345 331.007 171.36 330.808 171.346C330.725 171.253 330.511 171.185 330.457 171.073C330.399 170.986 330.472 170.874 330.583 170.82C330.754 170.728 331.031 170.732 331.352 170.771C331.717 170.844 331.78 170.907 331.902 171.058C332.009 171.155 332.029 171.184 331.888 171.257C331.805 171.291 331.644 171.335 331.537 171.365L331.343 171.326Z" fill="white"/>
<g filter="url(#filter0_f_468_4751)">
<path d="M359.857 270.134L71 621.419L604.5 719.419L511.664 300.861C511.664 300.861 401.683 274.655 359.857 270.134Z" fill="url(#paint12_linear_468_4751)"/>
</g>
<defs>
<filter id="filter0_f_468_4751" x="0" y="199.134" width="675.5" height="591.286" filterUnits="userSpaceOnUse" color-interpolation-filters="sRGB">
<feFlood flood-opacity="0" result="BackgroundImageFix"/>
<feBlend mode="normal" in="SourceGraphic" in2="BackgroundImageFix" result="shape"/>
<feGaussianBlur stdDeviation="35.5" result="effect1_foregroundBlur_468_4751"/>
</filter>
<linearGradient id="paint0_linear_468_4751" x1="445.98" y1="195.84" x2="472.984" y2="60.4192" gradientUnits="userSpaceOnUse">
<stop stop-color="#331157"/>
<stop offset="1" stop-color="#621C9C"/>
</linearGradient>
<radialGradient id="paint1_radial_468_4751" cx="0" cy="0" r="1" gradientUnits="userSpaceOnUse" gradientTransform="translate(438.096 222.373) rotate(11.2773) scale(153.853 215.994)">
<stop offset="0.0223" stop-color="#8343B0"/>
<stop offset="0.3977" stop-color="#7937AA"/>
<stop offset="0.9944" stop-color="#611B9C"/>
</radialGradient>
<radialGradient id="paint2_radial_468_4751" cx="0" cy="0" r="1" gradientUnits="userSpaceOnUse" gradientTransform="translate(436.214 174.926) rotate(11.2773) scale(236.854 156.655)">
<stop stop-color="#D4CFFF"/>
<stop offset="1" stop-color="#8D6FC7"/>
</radialGradient>
<linearGradient id="paint3_linear_468_4751" x1="436.597" y1="267.122" x2="438.193" y2="259.118" gradientUnits="userSpaceOnUse">
<stop stop-color="#FFFF29"/>
<stop offset="1" stop-color="#FF7E59"/>
</linearGradient>
<linearGradient id="paint4_linear_468_4751" x1="530.298" y1="287.759" x2="531.769" y2="280.382" gradientUnits="userSpaceOnUse">
<stop stop-color="#FFFF29"/>
<stop offset="1" stop-color="#FF7E59"/>
</linearGradient>
<linearGradient id="paint5_linear_468_4751" x1="589.083" y1="309.159" x2="590.024" y2="304.441" gradientUnits="userSpaceOnUse">
<stop stop-color="#FFFF29"/>
<stop offset="1" stop-color="#FF7E59"/>
</linearGradient>
<linearGradient id="paint6_linear_468_4751" x1="351.152" y1="251.733" x2="352.623" y2="244.356" gradientUnits="userSpaceOnUse">
<stop stop-color="#FFFF29"/>
<stop offset="1" stop-color="#FF7E59"/>
</linearGradient>
<linearGradient id="paint7_linear_468_4751" x1="277.784" y1="246.598" x2="278.725" y2="241.88" gradientUnits="userSpaceOnUse">
<stop stop-color="#FFFF29"/>
<stop offset="1" stop-color="#FF7E59"/>
</linearGradient>
<radialGradient id="paint8_radial_468_4751" cx="0" cy="0" r="1" gradientUnits="userSpaceOnUse" gradientTransform="translate(447.768 158.137) rotate(11.2773) scale(91.251 137.625)">
<stop offset="0.0223" stop-color="#725EB0"/>
<stop offset="0.3834" stop-color="#6D52AA"/>
<stop offset="0.9944" stop-color="#61349C"/>
</radialGradient>
<linearGradient id="paint9_linear_468_4751" x1="441.877" y1="230.78" x2="443.136" y2="224.466" gradientUnits="userSpaceOnUse">
<stop stop-color="#8DC7FF"/>
<stop offset="0.3156" stop-color="#5C4D86"/>
</linearGradient>
<linearGradient id="paint10_linear_468_4751" x1="666.662" y1="284.284" x2="667.921" y2="277.97" gradientUnits="userSpaceOnUse">
<stop stop-color="#8DC7FF"/>
<stop offset="0.3156" stop-color="#5C4D86"/>
</linearGradient>
<linearGradient id="paint11_linear_468_4751" x1="224.905" y1="196.195" x2="226.164" y2="189.881" gradientUnits="userSpaceOnUse">
<stop stop-color="#8DC7FF"/>
<stop offset="0.3156" stop-color="#5C4D86"/>
</linearGradient>
<linearGradient id="paint12_linear_468_4751" x1="520" y1="-35.581" x2="361" y2="625.919" gradientUnits="userSpaceOnUse">
<stop stop-color="#EE40FF"/>
<stop offset="1" stop-color="#EE40FF" stop-opacity="0"/>
</linearGradient>
</defs>
</svg>
