<svg width="28" height="28" viewBox="0 0 28 28" fill="none" xmlns="http://www.w3.org/2000/svg">
<path fill-rule="evenodd" clip-rule="evenodd" d="M14 3C11.1484 3 10.7908 3.01209 9.67086 3.06319C8.55326 3.11416 7.78998 3.29168 7.1221 3.55126C6.43163 3.81955 5.84607 4.17858 5.26231 4.76231C4.67858 5.34607 4.31955 5.93163 4.05126 6.6221C3.79168 7.28998 3.61416 8.05326 3.56319 9.17086C3.51209 10.2908 3.5 10.6484 3.5 13.5C3.5 16.3516 3.51209 16.7092 3.56319 17.8291C3.61416 18.9467 3.79168 19.71 4.05126 20.3779C4.31955 21.0684 4.67858 21.6539 5.26231 22.2377C5.84607 22.8214 6.43163 23.1805 7.1221 23.4488C7.78998 23.7083 8.55326 23.8858 9.67086 23.9368C10.7908 23.9879 11.1484 24 14 24C16.8516 24 17.2092 23.9879 18.3291 23.9368C19.4467 23.8858 20.21 23.7083 20.8779 23.4488C21.5684 23.1805 22.1539 22.8214 22.7377 22.2377C23.3214 21.6539 23.6805 21.0684 23.9488 20.3779C24.2083 19.71 24.3858 18.9467 24.4368 17.8291C24.4879 16.7092 24.5 16.3516 24.5 13.5C24.5 10.6484 24.4879 10.2908 24.4368 9.17086C24.3858 8.05326 24.2083 7.28998 23.9488 6.6221C23.6805 5.93163 23.3214 5.34607 22.7377 4.76231C22.1539 4.17858 21.5684 3.81955 20.8779 3.55126C20.21 3.29168 19.4467 3.11416 18.3291 3.06319C17.2092 3.01209 16.8516 3 14 3ZM14.0008 8.10815C11.0229 8.10815 8.6089 10.5222 8.6089 13.5001C8.6089 16.4779 11.0229 18.8919 14.0008 18.8919C16.9787 18.8919 19.3927 16.4779 19.3927 13.5001C19.3927 10.5222 16.9787 8.10815 14.0008 8.10815ZM19.4438 9.09264C20.0881 9.09264 20.6105 8.57033 20.6105 7.92601C20.6105 7.28168 20.0881 6.75934 19.4438 6.75934C18.7995 6.75934 18.2772 7.28168 18.2772 7.92601C18.2772 8.57033 18.7995 9.09264 19.4438 9.09264Z" fill="#D7B2FF"/>
</svg>
