<svg width="28" height="28" viewBox="0 0 28 28" fill="none" xmlns="http://www.w3.org/2000/svg">
<path fill-rule="evenodd" clip-rule="evenodd" d="M14 2C10.741 2 10.3323 2.01381 9.05241 2.07221C7.77516 2.13047 6.90283 2.33334 6.13954 2.63001C5.35044 2.93663 4.68123 3.34695 4.01406 4.01406C3.34695 4.68123 2.93663 5.35044 2.63001 6.13954C2.33334 6.90283 2.13047 7.77516 2.07221 9.05241C2.01381 10.3323 2 10.741 2 14C2 17.259 2.01381 17.6677 2.07221 18.9476C2.13047 20.2248 2.33334 21.0972 2.63001 21.8605C2.93663 22.6496 3.34695 23.3188 4.01406 23.9859C4.68123 24.6531 5.35044 25.0634 6.13954 25.37C6.90283 25.6667 7.77516 25.8695 9.05241 25.9278C10.3323 25.9862 10.741 26 14 26C17.259 26 17.6677 25.9862 18.9476 25.9278C20.2248 25.8695 21.0972 25.6667 21.8605 25.37C22.6496 25.0634 23.3188 24.6531 23.9859 23.9859C24.6531 23.3188 25.0634 22.6496 25.37 21.8605C25.6667 21.0972 25.8695 20.2248 25.9278 18.9476C25.9862 17.6677 26 17.259 26 14C26 10.741 25.9862 10.3323 25.9278 9.05241C25.8695 7.77516 25.6667 6.90283 25.37 6.13954C25.0634 5.35044 24.6531 4.68123 23.9859 4.01406C23.3188 3.34695 22.6496 2.93663 21.8605 2.63001C21.0972 2.33334 20.2248 2.13047 18.9476 2.07221C17.6677 2.01381 17.259 2 14 2ZM14.0007 4.16234C17.2048 4.16234 17.5843 4.17459 18.8497 4.23232C20.0197 4.28567 20.6551 4.48116 21.0779 4.6455C21.638 4.86318 22.0378 5.12322 22.4577 5.54316C22.8776 5.96305 23.1377 6.3628 23.3553 6.92293C23.5197 7.34578 23.7152 7.98117 23.7685 9.15115C23.8263 10.4165 23.8385 10.7961 23.8385 14.0002C23.8385 17.2043 23.8263 17.5839 23.7685 18.8492C23.7152 20.0192 23.5197 20.6546 23.3553 21.0774C23.1377 21.6376 22.8776 22.0373 22.4577 22.4572C22.0378 22.8772 21.638 23.1372 21.0779 23.3549C20.6551 23.5192 20.0197 23.7147 18.8497 23.7681C17.5845 23.8258 17.205 23.838 14.0007 23.838C10.7963 23.838 10.4168 23.8258 9.15162 23.7681C7.98164 23.7147 7.34625 23.5192 6.9234 23.3549C6.36327 23.1372 5.96352 22.8772 5.54363 22.4572C5.12373 22.0373 4.86365 21.6376 4.64596 21.0774C4.48163 20.6546 4.28614 20.0192 4.23279 18.8492C4.17505 17.5839 4.16281 17.2043 4.16281 14.0002C4.16281 10.7961 4.17505 10.4165 4.23279 9.15115C4.28614 7.98117 4.48163 7.34578 4.64596 6.92293C4.86365 6.3628 5.12369 5.96305 5.54363 5.54316C5.96352 5.12322 6.36327 4.86318 6.9234 4.6455C7.34625 4.48116 7.98164 4.28567 9.15162 4.23232C10.417 4.17459 10.7965 4.16234 14.0007 4.16234ZM14.0005 18.0001C11.7914 18.0001 10.0005 16.2092 10.0005 14.0001C10.0005 11.7909 11.7914 10.0001 14.0005 10.0001C16.2097 10.0001 18.0005 11.7909 18.0005 14.0001C18.0005 16.2092 16.2097 18.0001 14.0005 18.0001ZM14.0009 7.83781C10.5976 7.83781 7.83875 10.5967 7.83875 14C7.83875 17.4033 10.5976 20.1621 14.0009 20.1621C17.4042 20.1621 20.1631 17.4033 20.1631 14C20.1631 10.5967 17.4042 7.83781 14.0009 7.83781ZM20.2214 8.96295C20.9578 8.96295 21.5548 8.36604 21.5548 7.62966C21.5548 6.89329 20.9578 6.29633 20.2214 6.29633C19.4851 6.29633 18.8881 6.89329 18.8881 7.62966C18.8881 8.36604 19.4851 8.96295 20.2214 8.96295Z" fill="#D7B2FF"/>
</svg>
