<svg width="28" height="28" viewBox="0 0 28 28" fill="none" xmlns="http://www.w3.org/2000/svg">
<path fill-rule="evenodd" clip-rule="evenodd" d="M3.27138 6.16295L3.27189 6.32569L4.25325 7.37658C4.79299 7.95457 5.28184 8.47532 5.33956 8.53381C5.39728 8.5923 5.4731 8.69472 5.50806 8.76138L5.57163 8.8826L5.5738 13.4988C5.57616 18.4957 5.58447 18.193 5.43899 18.4025C5.41001 18.4442 4.84941 19.0581 4.19317 19.7666L3 21.0549V21.2183V21.3818H6.25033H9.50066L9.49917 21.219L9.49768 21.0563L8.26746 19.7309C7.0316 18.3994 6.94942 18.2993 6.9063 18.0726C6.8956 18.0164 6.89295 16.2565 6.9004 14.1619L6.91394 10.3534L9.75037 15.8616L12.5868 21.3697L12.923 21.3765L13.2591 21.3832L13.3057 21.28C13.3313 21.2233 14.4249 18.7521 15.7357 15.7885C17.0467 12.8249 18.1299 10.3838 18.1429 10.364C18.1565 10.3432 18.1669 12.2436 18.1674 14.8176C18.1681 18.8373 18.1638 19.3173 18.1258 19.4018C18.0943 19.4718 17.8434 19.7027 17.1507 20.2988L16.218 21.1014V21.2657V21.43H20.4988H24.7795L24.7716 21.2536L24.7637 21.0772L23.8834 20.3085C23.3992 19.8856 22.9787 19.5012 22.9489 19.4542C22.8952 19.3694 22.8947 19.3241 22.8947 13.7031C22.8947 8.46291 22.8981 8.03201 22.9398 7.9651C22.9646 7.92532 23.4 7.54018 23.9073 7.10923L24.8297 6.32569L24.8305 6.16286L24.8314 6L21.809 6.00615L18.7866 6.01227L16.6446 10.7686C15.4665 13.3846 14.4933 15.5164 14.482 15.506C14.4707 15.4956 13.3804 13.377 12.0592 10.7979C10.738 8.21885 9.64419 6.08431 9.62862 6.05446L9.60031 6.00022H6.43557H3.27086L3.27138 6.16295Z" fill="#D7B2FF"/>
</svg>
