<svg width="28" height="28" viewBox="0 0 28 28" fill="none" xmlns="http://www.w3.org/2000/svg">
<path fill-rule="evenodd" clip-rule="evenodd" d="M20.8601 4.02252C20.1974 4.12218 19.5153 4.51426 19.1333 5.01514C19.0209 5.16255 18.9232 5.28316 18.9163 5.28316C18.9093 5.28316 18.0634 5.08242 17.0365 4.83707C16.9806 4.82373 16.9251 4.81051 16.8701 4.79746C15.837 4.55243 14.7881 5.08097 14.4386 6.08349V6.08349C14.1142 7.01439 13.7079 8.18025 13.5359 8.67435L13.2231 9.57272L12.7674 9.60746C12.1662 9.65333 11.1226 9.82573 10.497 9.98259C9.56063 10.2174 8.2832 10.716 7.61832 11.1063L7.38583 11.2428L6.95087 11.0244C5.64311 10.3681 4.09614 10.6305 3.04699 11.6866C2.35488 12.3834 1.99848 13.2569 2 14.2526C2.00095 14.875 2.10082 15.3143 2.36501 15.858C2.64232 16.4288 2.91301 16.7387 3.61331 17.2872C3.69644 17.3523 3.74803 17.4737 3.78655 17.6948C3.9166 18.4416 4.28575 19.2913 4.78505 19.9933C6.94783 23.0338 11.8076 24.6087 16.4738 23.7812C19.6085 23.2252 22.1808 21.6765 23.4443 19.5841C23.7935 19.0059 24.1066 18.1664 24.1779 17.6172C24.2083 17.3831 24.2455 17.305 24.3775 17.1973C24.7704 16.8769 25.1904 16.3811 25.3966 15.9939C26.36 14.186 25.6562 11.8891 23.879 11.0408C23.2556 10.7431 22.9839 10.6789 22.3617 10.6817C21.7854 10.6844 21.3736 10.7786 20.8923 11.0177L20.5511 11.1872L19.8164 10.8367C18.9488 10.4228 18.0564 10.116 17.0991 9.90256C16.3561 9.73687 15.2716 9.58657 14.8192 9.58657C14.6205 9.58657 14.5421 9.56637 14.5421 9.51514C14.5421 9.4339 15.0989 6.17363 15.8243 5.82024C16.5497 5.46685 17.7588 6.22954 18.3462 6.39176C18.5281 6.44198 18.5306 6.44655 18.5306 6.72627C18.5306 8.34876 20.0864 9.66498 21.6698 9.382C22.6987 9.19816 23.6027 8.37815 23.8583 7.39687C24.2815 5.77207 23.1151 4.15235 21.4171 4.00693C21.2583 3.99334 21.0077 4.00037 20.8601 4.02252ZM9.8921 14.0137C9.42151 14.1679 9.00964 14.5672 8.84501 15.0287C8.74645 15.305 8.75212 15.8153 8.85718 16.1242C8.97679 16.4759 9.43709 16.9362 9.78882 17.0558C9.93109 17.1042 10.2048 17.1438 10.3971 17.1438C11.2535 17.1438 11.9705 16.4109 11.9705 15.5356C11.9705 14.9753 11.5358 14.3243 11.0109 14.0984C10.6783 13.9554 10.1843 13.918 9.8921 14.0137ZM16.8409 14.0128C15.6756 14.3413 15.2885 15.8382 16.1487 16.6897C16.4648 17.0027 16.71 17.106 17.2001 17.1329C17.5742 17.1534 17.6635 17.14 17.9131 17.0257C19.1561 16.4567 19.1948 14.7184 17.9779 14.123C17.6412 13.9583 17.1896 13.9145 16.8409 14.0128ZM10.0978 19.1099C9.82283 19.2295 9.69735 19.5795 9.81679 19.8936C9.88391 20.0702 10.2651 20.3443 10.8422 20.6309C12.4184 21.4137 14.1839 21.5651 15.7892 21.0552C16.6672 20.7762 17.684 20.2351 17.8541 19.9562C18.1175 19.5242 17.7725 18.9721 17.2883 19.0506C17.1913 19.0664 16.9056 19.1977 16.6536 19.3424C15.6064 19.9435 14.7717 20.1579 13.6237 20.1206C12.5599 20.086 11.8438 19.8625 10.8882 19.2669C10.4898 19.0186 10.3648 18.9937 10.0978 19.1099Z" fill="#D7B2FF"/>
</svg>
