<svg width="95" height="164" viewBox="0 0 95 164" fill="none" xmlns="http://www.w3.org/2000/svg">
<path d="M43.7902 33.8228L48.8465 13.8834L53.2675 33.9732C57.694 54.0874 70.032 71.4885 87.3706 82.35C69.6961 92.6559 56.8121 109.657 51.7497 129.62L46.6935 149.56L42.2724 129.47C37.846 109.356 25.5079 91.9547 8.16933 81.0932C25.8438 70.7873 38.7278 53.7864 43.7902 33.8228Z" fill="url(#paint0_linear_120_1646)" stroke="url(#paint1_linear_120_1646)" stroke-width="6"/>
<path fill-rule="evenodd" clip-rule="evenodd" d="M56.1927 33.5252L49.0488 1.10424L46.6862 10.4106L52.9102 38.7233C57.0303 57.4656 69.1725 73.4555 86.1234 82.4617C68.8952 90.9255 56.2518 106.522 51.5391 125.124L44.4199 153.225L46.486 162.602L54.655 130.424C59.9512 109.561 74.1614 92.0704 93.5249 82.579C74.4723 72.478 60.8243 54.5448 56.1927 33.5252ZM37.7505 124.179C33.4787 105.751 21.4326 90.0588 4.70185 81.1696C21.7066 72.8156 34.2447 57.5125 39.0988 39.2293C32.7901 57.4487 19.5029 72.5522 2.0098 81.1268C19.2218 90.2519 32.0229 105.769 37.7505 124.179Z" fill="#9C3CFB"/>
<defs>
<linearGradient id="paint0_linear_120_1646" x1="29.9585" y1="58.9879" x2="39.6943" y2="155.754" gradientUnits="userSpaceOnUse">
<stop stop-color="#D7B2FF"/>
<stop offset="1" stop-color="#912EEF"/>
</linearGradient>
<linearGradient id="paint1_linear_120_1646" x1="49.0531" y1="0.86368" x2="46.4869" y2="162.58" gradientUnits="userSpaceOnUse">
<stop stop-color="#E8D3FF"/>
<stop offset="1" stop-color="#E8D3FF" stop-opacity="0"/>
</linearGradient>
</defs>
</svg>
