<svg width="28" height="28" viewBox="0 0 28 28" fill="none" xmlns="http://www.w3.org/2000/svg">
<path transform="translate(-0.5, 0.5)" d="M3.8553 11.8438L23.4948 4.06539C23.9098 3.90103 24.6012 4.06539 24.8778 4.34824C25.0991 4.57453 24.97 5.7625 24.8778 6.32821C23.8636 10.9481 21.8074 20.4142 21.6968 21.3194C21.5585 22.4508 21.2818 22.5922 21.0052 22.8751C20.7839 23.1013 20.2676 22.9693 20.0371 22.8751L14.6431 18.9151C13.9977 19.528 12.5962 20.8668 12.1536 21.3194C11.711 21.7719 11.416 21.7908 11.3238 21.7437L11.6004 16.3695L20.7286 8.02532C20.913 7.8839 21.2265 7.57276 21.0052 7.45962C20.7839 7.34648 20.5442 7.50676 20.452 7.60104L8.69596 15.0966C7.72784 14.8138 5.40433 14.0784 3.8553 13.3995C2.30627 12.7207 3.20987 12.0795 3.8553 11.8438Z" fill="#D7B2FF"/>
</svg>
