<svg width="28" height="28" viewBox="0 0 28 28" fill="none" xmlns="http://www.w3.org/2000/svg">
<path d="M23.2504 9.56321C23.2641 9.76207 23.2641 9.96094 23.2641 10.1616C23.2641 16.2771 18.6082 23.33 10.0947 23.33V23.3263C7.57982 23.33 5.11715 22.6097 3 21.2515C3.36569 21.2955 3.73321 21.3175 4.10165 21.3184C6.1858 21.3202 8.21038 20.621 9.85003 19.3334C7.86944 19.2958 6.13265 18.0046 5.52591 16.1194C6.21971 16.2532 6.9346 16.2257 7.61557 16.0397C5.45626 15.6035 3.90277 13.7064 3.90277 11.5033C3.90277 11.4832 3.90277 11.4639 3.90277 11.4447C4.54616 11.803 5.26654 12.0019 6.00342 12.0239C3.96967 10.6648 3.34278 7.95943 4.57091 5.84428C6.92085 8.73566 10.388 10.4934 14.11 10.6794C13.737 9.07199 14.2465 7.38757 15.449 6.2576C17.3132 4.50536 20.2451 4.59517 21.9975 6.4583C23.0341 6.25393 24.0276 5.87361 24.9368 5.33474C24.5912 6.40606 23.8681 7.31609 22.9021 7.89436C23.8195 7.78622 24.7159 7.54062 25.56 7.16579C24.9386 8.0969 24.1559 8.90795 23.2504 9.56321Z" fill="#D7B2FF"/>
</svg>
