<svg width="28" height="28" viewBox="0 0 28 28" fill="none" xmlns="http://www.w3.org/2000/svg">
<path fill-rule="evenodd" clip-rule="evenodd" d="M21.9782 7.44322C22.8956 7.68498 23.6213 8.39683 23.8678 9.2967C24.3196 10.9353 24.3333 14.3333 24.3333 14.3333C24.3333 14.3333 24.3333 17.7448 23.8815 19.37C23.635 20.2698 22.9093 20.9817 21.9919 21.2234C20.335 21.6667 13.6667 21.6667 13.6667 21.6667C13.6667 21.6667 6.99829 21.6667 5.34146 21.2234C4.42405 20.9817 3.69833 20.2698 3.45186 19.37C3 17.7314 3 14.3333 3 14.3333C3 14.3333 3 10.9353 3.43817 9.31013C3.68464 8.41026 4.41036 7.69841 5.32777 7.45665C6.9846 7.01343 13.653 7 13.653 7C13.653 7 20.3214 7 21.9782 7.44322ZM17.0622 14.3334L11.5303 17.4763V11.1906L17.0622 14.3334Z" fill="#D7B2FF"/>
<path fill-rule="evenodd" clip-rule="evenodd" d="M21.9782 7.44322C22.8956 7.68498 23.6213 8.39683 23.8678 9.2967C24.3196 10.9353 24.3333 14.3333 24.3333 14.3333C24.3333 14.3333 24.3333 17.7448 23.8815 19.37C23.635 20.2698 22.9093 20.9817 21.9919 21.2234C20.335 21.6667 13.6667 21.6667 13.6667 21.6667C13.6667 21.6667 6.99829 21.6667 5.34146 21.2234C4.42405 20.9817 3.69833 20.2698 3.45186 19.37C3 17.7314 3 14.3333 3 14.3333C3 14.3333 3 10.9353 3.43817 9.31013C3.68464 8.41026 4.41036 7.69841 5.32777 7.45665C6.9846 7.01343 13.653 7 13.653 7C13.653 7 20.3214 7 21.9782 7.44322ZM17.0622 14.3334L11.5303 17.4763V11.1906L17.0622 14.3334Z" fill="#D7B2FF"/>
</svg>
