<svg width="40" height="40" viewBox="0 0 40 40" fill="none" xmlns="http://www.w3.org/2000/svg">
<path d="M5 8.33334V6.66667C5 4.89856 5.70238 3.20287 6.95262 1.95262C8.20286 0.702381 9.89856 2.05511e-06 11.6667 2.05511e-06H14.1167C15.1285 -0.000916349 16.1167 0.306004 16.95 0.880002L20.0917 3.04667C20.37 3.23517 20.6988 3.3351 21.035 3.33334H28.3333C29.807 3.33886 31.2374 3.83253 32.4007 4.73717C33.5641 5.64181 34.3949 6.90643 34.7633 8.33334H5ZM38.3333 33.3333H24.6933C24.4443 32.6363 24.0437 32.0032 23.5203 31.4798C22.9968 30.9563 22.3637 30.5557 21.6667 30.3067V25H28.3333C30.1014 25 31.7971 24.2976 33.0474 23.0474C34.2976 21.7971 35 20.1014 35 18.3333V11.6667H5V18.3333C5 20.1014 5.70238 21.7971 6.95262 23.0474C8.20286 24.2976 9.89856 25 11.6667 25H18.3333V30.3067C17.6363 30.5557 17.0032 30.9563 16.4797 31.4798C15.9563 32.0032 15.5557 32.6363 15.3067 33.3333H1.66667C1.22464 33.3333 0.800716 33.5089 0.488155 33.8215C0.175595 34.1341 0 34.558 0 35C0 35.442 0.175595 35.866 0.488155 36.1785C0.800716 36.4911 1.22464 36.6667 1.66667 36.6667H15.3067C15.6461 37.6409 16.2803 38.4854 17.1212 39.083C17.9622 39.6805 18.9683 40.0016 20 40.0016C21.0317 40.0016 22.0378 39.6805 22.8788 39.083C23.7197 38.4854 24.3539 37.6409 24.6933 36.6667H38.3333C38.7754 36.6667 39.1993 36.4911 39.5118 36.1785C39.8244 35.866 40 35.442 40 35C40 34.558 39.8244 34.1341 39.5118 33.8215C39.1993 33.5089 38.7754 33.3333 38.3333 33.3333Z" fill="#BF81FF"/>
</svg>
