<svg width="44" height="44" viewBox="0 0 44 44" fill="none" xmlns="http://www.w3.org/2000/svg">
<path d="M27.0634 21.2427C26.0612 21.8132 24.9686 22.2076 23.8331 22.4087V43.7688C24.7993 43.5807 25.7282 43.2358 26.5831 42.7477L37.6325 36.3695C39.0243 35.5626 40.18 34.4046 40.9843 33.0113C41.7885 31.618 42.2132 30.0381 42.2159 28.4293V15.6693C42.21 14.69 42.046 13.718 41.73 12.791L27.0634 21.2427Z" fill="#BF81FF"/>
<path d="M18.7769 18.0711C19.7588 18.6358 20.8717 18.9331 22.0045 18.9331C23.1372 18.9331 24.2501 18.6358 25.2321 18.0711L39.8987 9.61939C39.2491 8.87301 38.4826 8.23711 37.6291 7.73656L26.5832 1.35106C25.1888 0.549199 23.6084 0.127197 21.9999 0.127197C20.3914 0.127197 18.811 0.549199 17.4166 1.35106L6.36705 7.73106C5.54398 8.21303 4.80162 8.82115 4.16705 9.53323L18.7769 18.0711Z" fill="#BF81FF"/>
<path d="M20.1667 22.4093C19.0304 22.2087 17.9371 21.8143 16.9345 21.2433L2.30451 12.6926C1.96594 13.649 1.78995 14.6554 1.78384 15.67V28.43C1.78652 30.0387 2.2112 31.6186 3.01546 33.0119C3.81972 34.4052 4.97543 35.5632 6.36718 36.3701L17.4167 42.7483C18.2715 43.2364 19.2004 43.5813 20.1667 43.7695V22.4093Z" fill="#BF81FF"/>
</svg>
