<svg width="48" height="48" viewBox="0 0 48 48" fill="none" xmlns="http://www.w3.org/2000/svg">
<g clip-path="url(#clip0_120_1680)">
<path d="M48.0002 23.9661C47.996 22.338 47.4943 20.7501 46.5625 19.415C45.6306 18.08 44.313 17.0615 42.7862 16.4961L42.7102 16.3141C40.7262 11.461 36.9277 7.57289 32.1222 5.47613L31.4642 5.18813C30.8977 3.66596 29.8793 2.35344 28.5455 1.42666C27.2117 0.499882 25.6264 0.00317383 24.0022 0.00317383C22.3781 0.00317383 20.7927 0.499882 19.459 1.42666C18.1252 2.35344 17.1067 3.66596 16.5402 5.18813L15.7042 5.56413C10.9413 7.72742 7.19264 11.6394 5.23423 16.4901C3.70492 17.0473 2.38318 18.0599 1.44713 19.3915C0.511092 20.7231 0.00574822 22.3096 -0.000790233 23.9372C-0.00732868 25.5649 0.485253 27.1554 1.41057 28.4944C2.33588 29.8335 3.64945 30.8567 5.17423 31.4261L5.43023 32.0261C7.43693 36.6839 11.1223 40.4164 15.7542 42.4821L16.5402 42.8341C17.1083 44.3541 18.1272 45.6643 19.4604 46.5893C20.7936 47.5143 22.3776 48.01 24.0002 48.01C25.6229 48.01 27.2069 47.5143 28.5401 46.5893C29.8733 45.6643 30.8921 44.3541 31.4602 42.8341L32.1942 42.5081C37.0394 40.3417 40.8486 36.371 42.8122 31.4401C44.3338 30.8688 45.6453 29.8476 46.5721 28.5124C47.4989 27.1773 47.9971 25.5914 48.0002 23.9661ZM31.7862 38.2281C31.3881 36.4602 30.4002 34.8803 28.985 33.7483C27.5698 32.6164 25.8115 31.9997 23.9992 31.9997C22.187 31.9997 20.4287 32.6164 19.0135 33.7483C17.5983 34.8803 16.6104 36.4602 16.2122 38.2281C13.4814 36.7379 11.2379 34.4923 9.75023 31.7601C11.5127 31.3619 13.0878 30.3775 14.2182 28.9679C15.3485 27.5583 15.9672 25.8069 15.973 24C15.9788 22.1932 15.3714 20.4378 14.2502 19.021C13.1289 17.6042 11.5601 16.6097 9.80023 16.2001C11.2934 13.5064 13.5157 11.2882 16.2122 9.80013C16.612 11.5661 17.6004 13.1437 19.015 14.2739C20.4297 15.4041 22.1866 16.0197 23.9972 16.0197C25.8079 16.0197 27.5648 15.4041 28.9794 14.2739C30.3941 13.1437 31.3824 11.5661 31.7822 9.80013C34.4768 11.2866 36.7003 13.499 38.2002 16.1861C36.435 16.5893 34.8593 17.5807 33.7318 18.9975C32.6044 20.4144 31.9921 22.1724 31.9956 23.9831C31.9991 25.7938 32.6181 27.5495 33.751 28.962C34.884 30.3744 36.4635 31.3598 38.2302 31.7561C36.7378 34.4796 34.5032 36.7239 31.7862 38.2281Z" fill="#BF81FF"/>
</g>
<defs>
<clipPath id="clip0_120_1680">
<rect width="48" height="48" fill="white"/>
</clipPath>
</defs>
</svg>
