<svg width="36" height="36" viewBox="0 0 36 36" fill="none" xmlns="http://www.w3.org/2000/svg">
<g clip-path="url(#clip0_120_1687)">
<path d="M19.3246 22.8236L7.42206 34.7261C7.02194 35.1462 6.54181 35.482 6.00995 35.7138C5.47809 35.9456 4.90523 36.0687 4.3251 36.0757C3.74496 36.0828 3.16927 35.9738 2.63192 35.755C2.09456 35.5363 1.60639 35.2122 1.19614 34.802C0.785897 34.3917 0.461861 33.9036 0.243109 33.3662C0.0243562 32.8288 -0.0846923 32.2532 -0.0776185 31.673C-0.0705448 31.0929 0.0525083 30.52 0.284298 29.9882C0.516088 29.4563 0.85193 28.9762 1.27206 28.5761L13.1746 16.6736L19.3246 22.8236ZM25.6501 10.3496C24.822 9.55809 23.7206 9.11641 22.5751 9.11641C21.4296 9.11641 20.3282 9.55809 19.5001 10.3496L15.3001 14.5496L21.4501 20.6996L25.6501 16.4996C26.4653 15.6839 26.9232 14.5778 26.9232 13.4246C26.9232 12.2713 26.4653 11.1653 25.6501 10.3496V10.3496ZM7.29456 7.71706L9.61956 8.38006L10.2826 10.7051C10.3894 11.0781 10.6147 11.4063 10.9246 11.6399C11.2345 11.8735 11.612 11.9999 12.0001 11.9999C12.3881 11.9999 12.7656 11.8735 13.0755 11.6399C13.3854 11.4063 13.6108 11.0781 13.7176 10.7051L14.3806 8.38006L16.7056 7.71706C17.0786 7.61025 17.4068 7.38487 17.6404 7.075C17.874 6.76513 18.0004 6.38762 18.0004 5.99956C18.0004 5.6115 17.874 5.23399 17.6404 4.92412C17.4068 4.61425 17.0786 4.38887 16.7056 4.28206L14.3806 3.61906L13.7176 1.29406C13.6108 0.920987 13.3854 0.592836 13.0755 0.35923C12.7656 0.125624 12.3881 -0.000732422 12.0001 -0.000732422C11.612 -0.000732422 11.2345 0.125624 10.9246 0.35923C10.6147 0.592836 10.3894 0.920987 10.2826 1.29406L9.61956 3.61906L7.29456 4.28206C6.92149 4.38887 6.59334 4.61425 6.35973 4.92412C6.12612 5.23399 5.99977 5.6115 5.99977 5.99956C5.99977 6.38762 6.12612 6.76513 6.35973 7.075C6.59334 7.38487 6.92149 7.61025 7.29456 7.71706V7.71706ZM25.2946 25.7171L27.6196 26.3801L28.2826 28.7051C28.3894 29.0781 28.6148 29.4063 28.9246 29.6399C29.2345 29.8735 29.612 29.9998 30.0001 29.9998C30.3881 29.9998 30.7656 29.8735 31.0755 29.6399C31.3854 29.4063 31.6108 29.0781 31.7176 28.7051L32.3806 26.3801L34.7056 25.7171C35.0786 25.6103 35.4068 25.3849 35.6404 25.075C35.874 24.7651 36.0004 24.3876 36.0004 23.9996C36.0004 23.6115 35.874 23.234 35.6404 22.9241C35.4068 22.6142 35.0786 22.3889 34.7056 22.2821L32.3806 21.6191L31.7176 19.2941C31.6108 18.921 31.3854 18.5928 31.0755 18.3592C30.7656 18.1256 30.3881 17.9993 30.0001 17.9993C29.612 17.9993 29.2345 18.1256 28.9246 18.3592C28.6148 18.5928 28.3894 18.921 28.2826 19.2941L27.6196 21.6191L25.2946 22.2821C24.9215 22.3889 24.5933 22.6142 24.3597 22.9241C24.1261 23.234 23.9998 23.6115 23.9998 23.9996C23.9998 24.3876 24.1261 24.7651 24.3597 25.075C24.5933 25.3849 24.9215 25.6103 25.2946 25.7171V25.7171ZM26.6341 6.74956L28.6666 7.33006L29.2501 9.36556C29.345 9.68983 29.5425 9.9746 29.8129 10.1772C30.0834 10.3798 30.4122 10.4893 30.7501 10.4893C31.088 10.4893 31.4168 10.3798 31.6872 10.1772C31.9576 9.9746 32.1551 9.68983 32.2501 9.36556L32.8306 7.33306L34.8661 6.74956C35.1903 6.65459 35.4751 6.4571 35.6777 6.18667C35.8803 5.91625 35.9898 5.58745 35.9898 5.24956C35.9898 4.91167 35.8803 4.58287 35.6777 4.31244C35.4751 4.04202 35.1903 3.84453 34.8661 3.74956L32.8336 3.16906L32.2501 1.13356C32.1551 0.809286 31.9576 0.524518 31.6872 0.32193C31.4168 0.119341 31.088 0.00984272 30.7501 0.00984272C30.4122 0.00984272 30.0834 0.119341 29.8129 0.32193C29.5425 0.524518 29.345 0.809286 29.2501 1.13356L28.6696 3.16606L26.6341 3.74956C26.3098 3.84453 26.025 4.04202 25.8224 4.31244C25.6198 4.58287 25.5103 4.91167 25.5103 5.24956C25.5103 5.58745 25.6198 5.91625 25.8224 6.18667C26.025 6.4571 26.3098 6.65459 26.6341 6.74956Z" fill="#BF81FF"/>
</g>
<defs>
<clipPath id="clip0_120_1687">
<rect width="36" height="36" fill="white"/>
</clipPath>
</defs>
</svg>
