<svg width="1728" height="370" viewBox="0 0 1728 370" fill="none" xmlns="http://www.w3.org/2000/svg">
<path fill-rule="evenodd" clip-rule="evenodd" d="M1728.79 283.309L1728.22 263.034H1723.15L1716.41 285.996L1728.79 283.309Z" fill="#57198A"/>
<path fill-rule="evenodd" clip-rule="evenodd" d="M1664.86 297.191L1661.65 282.065H1653.5L1652.01 300.276L1664.86 297.191Z" fill="#57198A"/>
<path fill-rule="evenodd" clip-rule="evenodd" d="M176.316 218.975V171.259H179.621V213.651L183.797 215.268L180.069 128.643L183.797 124.762V80.6289L193.541 219.547L176.316 218.975Z" fill="#57198A"/>
<path fill-rule="evenodd" clip-rule="evenodd" d="M209.151 219.398V208.352L212.655 203.526V219.547L209.151 219.398Z" fill="#57198A"/>
<path fill-rule="evenodd" clip-rule="evenodd" d="M238.208 219.124V212.208L255.433 215.417L262.368 219.273L238.208 219.124Z" fill="#57198A"/>
<path fill-rule="evenodd" clip-rule="evenodd" d="M32.8949 213.726L27.7994 187.927L25.0154 186.435L11.6428 124.439L8.13806 122.374L20.5165 192.057L18.1551 194.918L16.4898 190.44L13.0845 192.057L14.1284 212.382L32.8949 213.726Z" fill="#57198A"/>
<path fill-rule="evenodd" clip-rule="evenodd" d="M1723.15 263.034H1726.48L1726 283.906L1716.41 285.996L1723.15 263.034Z" fill="#6A1DAC"/>
<path fill-rule="evenodd" clip-rule="evenodd" d="M1653.5 282.065H1657.75L1659.19 298.41L1652.01 300.276L1653.5 282.065Z" fill="#6A1DAC"/>
<path fill-rule="evenodd" clip-rule="evenodd" d="M16.4898 190.44L20.5165 212.83L16.4898 212.556L13.0845 192.057L16.4898 190.44Z" fill="#6A1DAC"/>
<path fill-rule="evenodd" clip-rule="evenodd" d="M22.1818 192.057L28.4953 213.402H31.2047L11.6428 124.439L8.13806 122.374L22.1818 192.057Z" fill="#6A1DAC"/>
<path fill-rule="evenodd" clip-rule="evenodd" d="M27.7994 187.927L26.656 187.305L32.895 213.725L27.7994 187.927Z" fill="#6A1DAC"/>
<path fill-rule="evenodd" clip-rule="evenodd" d="M709.656 129.141L704.611 112.995L799.189 94.5856L971.542 93.0432L969.653 69.3595L1043.95 60.279L1060.97 58.463L1382.52 0L1284.46 41.8943L784.946 186.683L289.884 196.162L709.656 129.141Z" fill="#BF81FF"/>
<path fill-rule="evenodd" clip-rule="evenodd" d="M289.884 196.162L302.461 220.144L961.624 234.126L368.38 203.327L289.884 196.162Z" fill="#57198A"/>
<path fill-rule="evenodd" clip-rule="evenodd" d="M2453 310.152L1495.56 296.967L1484.25 288.484L1278.91 263.034L1244.59 277.736L1114.09 253.928L1044.05 234.747L1116.9 230.966L1159.01 140.834L1174.34 147.426L1187.87 140.834L1204.49 96.5261L1227.11 120.085L1279.86 119.165L1314.71 51.2733H1332.6L1382.52 0L1056.62 65.6775L1041.54 63.1649L973.729 70.7029V94.5856L958.343 98.367L289.884 196.162L321.924 205.193L527.883 215.268L961.624 234.126L250.338 219.025L-529.528 223.751L-530 443H2453V310.152Z" fill="#BF81FF"/>
<g opacity="0.5" filter="url(#filter0_d_120_1098)">
<path fill-rule="evenodd" clip-rule="evenodd" d="M1382.52 0L1306.46 36.2719L1242.3 66.8468L1221.1 76.9472L1164.1 109.239L994.012 88.4408L1056.62 65.6775L1382.52 0Z" fill="url(#paint0_linear_120_1098)"/>
</g>
<path fill-rule="evenodd" clip-rule="evenodd" d="M1274.59 443L1387.44 405.658L1618.45 407.126L1891.8 388.891L1876.19 374.337L1899.55 372.372L2453 346.822L2452.85 367.048L1891.87 375.208L1878.85 375.357L1892.96 388.891L1900.57 400.16L1649.82 413.868H1574.93L1389.75 415.759L1325.89 443H1274.59Z" fill="#57198A"/>
<path fill-rule="evenodd" clip-rule="evenodd" d="M1278.91 263.034L1351.27 284.852L1446.47 307.117L1244.59 277.736L1278.91 263.034Z" fill="#57198A"/>
<path fill-rule="evenodd" clip-rule="evenodd" d="M1044.05 234.747L976.339 231.513L1108.35 228.603L1151.48 136.629L1221.1 76.9472L1382.52 0L1332.6 51.2733H1314.71L1279.86 119.165L1227.11 120.085L1204.49 96.5261L1191.97 139.366L1174.34 147.426L1159.01 140.834L1132.11 257.212L1114.09 253.928L1044.05 234.747Z" fill="url(#paint1_linear_120_1098)"/>
<path fill-rule="evenodd" clip-rule="evenodd" d="M979.446 230.095L947.705 227.856L936.022 232.782L979.446 230.095Z" fill="#57198A"/>
<path fill-rule="evenodd" clip-rule="evenodd" d="M980.341 72.0958L994.012 88.4405L1029.03 91.4259L1164.1 109.238L1150.06 110.035L1000.28 96.501L973.729 94.5854V70.7026L980.341 72.0958Z" fill="#57198A"/>
<path fill-rule="evenodd" clip-rule="evenodd" d="M1221.1 76.9471L1215.51 72.0959L1097.96 76.8973L1242.3 66.8467L1221.1 76.9471Z" fill="#57198A"/>
<path fill-rule="evenodd" clip-rule="evenodd" d="M1253.78 25.4004L1297.03 40.75L1306.46 36.272H1295.87L1253.78 25.4004Z" fill="#3B1163"/>
<path opacity="0.5" fill-rule="evenodd" clip-rule="evenodd" d="M973.729 70.703L985.561 76.9474L1041.54 63.165L973.729 70.703Z" fill="#542E74"/>
<path fill-rule="evenodd" clip-rule="evenodd" d="M-52.9586 221.512L-13.3875 221.363L284.316 269.8L350.956 266.84L368.579 272.761L433.106 268.407L373.028 266.84L351.353 264.203L283.297 259.501L-65.5359 206.66L-52.9586 221.512Z" fill="#57198A"/>
<path fill-rule="evenodd" clip-rule="evenodd" d="M-65.5359 206.66L32.8949 213.726L55.0418 192.057L112.534 210.218L115.791 220.219L122.029 215.144L187.7 219.597L162.893 224.025L29.1416 220.99L-65.5359 206.66Z" fill="#57198A"/>
<path fill-rule="evenodd" clip-rule="evenodd" d="M55.0419 192.057L66.8983 210.467L124.888 222.134L112.534 210.218L55.0419 192.057Z" fill="#6A1DAC"/>
<path fill-rule="evenodd" clip-rule="evenodd" d="M122.029 215.144L141.542 221.512L164.882 223.652L186.954 219.721L122.029 215.144Z" fill="#6A1DAC"/>
<path fill-rule="evenodd" clip-rule="evenodd" d="M67.5942 220.119L75.772 217.059L99.8577 221.512L67.5942 220.119Z" fill="#6A1DAC"/>
<path fill-rule="evenodd" clip-rule="evenodd" d="M32.8949 213.725L52.7551 217.781H-8.93817L-65.5359 206.66L32.8949 213.725Z" fill="#6A1DAC"/>
<g style="mix-blend-mode:multiply" opacity="0.3">
<path fill-rule="evenodd" clip-rule="evenodd" d="M284.316 269.8L283.297 259.501L351.353 264.203L350.956 266.84L284.316 269.8Z" fill="#57198A"/>
</g>
<g style="mix-blend-mode:multiply" opacity="0.3">
<path fill-rule="evenodd" clip-rule="evenodd" d="M368.579 272.761L373.028 266.84L433.106 268.407L368.579 272.761Z" fill="#57198A"/>
</g>
<g style="mix-blend-mode:multiply" opacity="0.3">
<path fill-rule="evenodd" clip-rule="evenodd" d="M51.7111 221.513L52.755 217.781L32.8949 213.726L55.0418 192.057L66.8982 210.467L75.7719 212.258V217.059L67.5942 220.119L74.9765 220.592L74.902 222.035L51.7111 221.513Z" fill="#57198A"/>
</g>
<path fill-rule="evenodd" clip-rule="evenodd" d="M707.37 115.607L961.301 95.7798L798.194 97.6208L707.37 115.607Z" fill="#4F1F74"/>
<path fill-rule="evenodd" clip-rule="evenodd" d="M707.37 115.607L711.322 134.49L940.844 101.302L973.729 94.5854L707.37 115.607Z" fill="url(#paint2_linear_120_1098)"/>
<g style="mix-blend-mode:multiply" opacity="0.3">
<path fill-rule="evenodd" clip-rule="evenodd" d="M823.796 118.568L821.609 106.602L903.187 100.158L901.348 106.85L823.796 118.568Z" fill="#57198A"/>
</g>
<g style="mix-blend-mode:multiply" opacity="0.3">
<path fill-rule="evenodd" clip-rule="evenodd" d="M913.503 105.258L914.671 99.2624L942.957 97.0234L940.844 101.302L913.503 105.258Z" fill="#57198A"/>
</g>
<path fill-rule="evenodd" clip-rule="evenodd" d="M551.471 217.407L553.609 210.516L585.648 200.814L616.321 219.099L551.471 217.407Z" fill="#57198A"/>
<path fill-rule="evenodd" clip-rule="evenodd" d="M417.272 210.516L448.69 188.574L463.38 182.827L527.883 215.268L417.272 210.516Z" fill="#57198A"/>
<path fill-rule="evenodd" clip-rule="evenodd" d="M463.381 182.827L448.69 188.574L459.901 208.078L524.701 213.651L463.381 182.827Z" fill="#BF81FF"/>
<path fill-rule="evenodd" clip-rule="evenodd" d="M436.586 206.934L442.949 202.157L455.675 209.969L436.586 206.934Z" fill="#BF81FF"/>
<path fill-rule="evenodd" clip-rule="evenodd" d="M585.648 200.814L570.586 205.391L578.117 213.651L616.321 219.099L585.648 200.814Z" fill="#BF81FF"/>
<path fill-rule="evenodd" clip-rule="evenodd" d="M542.995 217.209L553.112 214.771L566.186 217.806L542.995 217.209Z" fill="#BF81FF"/>
<path fill-rule="evenodd" clip-rule="evenodd" d="M711.322 134.49L742.889 156.308L906.12 162.278L917.554 173.473L1125.5 192.057L1127.52 187.753L928.044 173.473L917.678 171.807L904.604 160.512L751.166 154.84L740.478 152.949L711.322 134.49Z" fill="#541163"/>
<g style="mix-blend-mode:multiply" opacity="0.3">
<path fill-rule="evenodd" clip-rule="evenodd" d="M1612.76 357.296V367.048L1666.3 364.461V359.634L1612.76 357.296Z" fill="#57198A"/>
</g>
<g style="mix-blend-mode:multiply" opacity="0.3">
<path fill-rule="evenodd" clip-rule="evenodd" d="M1306.73 271.417L1304.49 286.469L1347.49 292.713L1351.27 284.852L1306.73 271.417Z" fill="#57198A"/>
</g>
<g style="mix-blend-mode:multiply" opacity="0.3">
<path fill-rule="evenodd" clip-rule="evenodd" d="M1361.34 294.728L1366.18 288.334L1446.47 307.117L1361.34 294.728Z" fill="#57198A"/>
</g>
<g style="mix-blend-mode:multiply" opacity="0.5">
<path fill-rule="evenodd" clip-rule="evenodd" d="M1108.35 228.603L1116.16 254.301L1044.05 234.747L1043.95 230.021L1108.35 228.603Z" fill="#57198A"/>
</g>
<g style="mix-blend-mode:multiply" opacity="0.5">
<path fill-rule="evenodd" clip-rule="evenodd" d="M1242.3 66.8467L1242.5 75.4295L1209.42 86.948L1221.1 76.9471L1215.51 72.0959L1242.3 66.8467Z" fill="#57198A"/>
</g>
<g style="mix-blend-mode:multiply" opacity="0.5">
<path fill-rule="evenodd" clip-rule="evenodd" d="M1297.03 40.7501L1296.26 59.1597H1302.16L1306.46 36.2721H1295.87L1288.76 34.4312L1289.75 38.1628L1297.03 40.7501Z" fill="#57198A"/>
</g>
<g style="mix-blend-mode:multiply" opacity="0.5">
<path fill-rule="evenodd" clip-rule="evenodd" d="M1314.71 51.2735L1307.95 41.8945L1332.6 51.2735H1314.71Z" fill="#57198A"/>
</g>
<path fill-rule="evenodd" clip-rule="evenodd" d="M1155.5 137.201L1209.42 86.948L1291.14 58.4629L1375.33 70.056L1349.06 87.371L1254.53 113.12L1155.5 137.201Z" fill="#57198A"/>
<path fill-rule="evenodd" clip-rule="evenodd" d="M1375.33 70.0562L1354.13 111.179L1309.91 174.941L1293.06 176.434L1289.65 131.703L1244.76 223.229L1202.78 255.521L1169.99 241.888L1155.5 137.201L1349.06 87.3711L1375.33 70.0562Z" fill="url(#paint3_linear_120_1098)"/>
<g style="mix-blend-mode:multiply" opacity="0.3">
<path fill-rule="evenodd" clip-rule="evenodd" d="M1155.5 137.201L1237.23 117.846L1244.76 223.229L1202.78 255.52L1183.64 173.647L1193.41 237.583L1197.39 253.281L1169.99 241.887L1155.5 137.201Z" fill="#57198A"/>
</g>
<g style="mix-blend-mode:multiply" opacity="0.3">
<path fill-rule="evenodd" clip-rule="evenodd" d="M1289.65 131.704L1288.76 101.825L1345.53 88.4409L1341.13 120.931L1309.91 174.941L1293.06 176.434L1289.65 131.704Z" fill="#57198A"/>
</g>
<path fill-rule="evenodd" clip-rule="evenodd" d="M1312.45 138.495L1338.22 121.528L1395.79 122.474L1354.13 137.002L1312.45 138.495Z" fill="#4F1F81"/>
<path fill-rule="evenodd" clip-rule="evenodd" d="M1312.45 138.495L1316.72 175.314L1343.71 193.923L1358.01 189.196L1375.13 143.247L1389.97 132.972L1395.79 122.474L1312.45 138.495Z" fill="url(#paint4_linear_120_1098)"/>
<g style="mix-blend-mode:multiply" opacity="0.3">
<path fill-rule="evenodd" clip-rule="evenodd" d="M1312.45 138.495L1356.59 130.012L1354.13 190.465L1352.69 152.103L1343.71 193.923L1316.72 175.314L1312.45 138.495Z" fill="#57198A"/>
</g>
<g style="mix-blend-mode:multiply" opacity="0.3">
<path fill-rule="evenodd" clip-rule="evenodd" d="M1375.13 143.247L1364.49 141.63L1389.97 132.972L1375.13 143.247Z" fill="#57198A"/>
</g>
<path fill-rule="evenodd" clip-rule="evenodd" d="M1288.43 102.97L1220.75 88.4409L1295.05 101.228L1288.43 102.97Z" fill="#57198A"/>
<path fill-rule="evenodd" clip-rule="evenodd" d="M1202.78 255.52L1242.3 190.44L1271.56 168.572L1244.76 223.229L1202.78 255.52Z" fill="#BF81FF"/>
<path fill-rule="evenodd" clip-rule="evenodd" d="M1375.13 143.247L1364.49 141.63L1389.97 132.972L1375.13 143.247Z" fill="#BF81FF"/>
<path fill-rule="evenodd" clip-rule="evenodd" d="M1309.91 174.941L1293.06 176.434L1314.51 161.308L1315.15 167.403L1309.91 174.941Z" fill="#BF81FF"/>
<path fill-rule="evenodd" clip-rule="evenodd" d="M1343.71 193.923L1352.69 152.103L1354.13 190.465L1355.67 152.103L1369.09 143.247H1375.13L1358.01 189.196L1343.71 193.923Z" fill="#BF81FF"/>
<path fill-rule="evenodd" clip-rule="evenodd" d="M1212.4 233.454L1230.39 202.979L1219.68 210.517L1212.4 233.454Z" fill="#BF81FF"/>
<g style="mix-blend-mode:multiply" opacity="0.3">
<path fill-rule="evenodd" clip-rule="evenodd" d="M1056.85 101.626L1063.46 95.979L1164.1 109.239L1150.06 110.035L1056.85 101.626Z" fill="#57198A"/>
</g>
<g style="mix-blend-mode:multiply" opacity="0.3">
<path fill-rule="evenodd" clip-rule="evenodd" d="M1053.52 101.328L1056.85 95.1082L1044.15 93.4165V100.457L1053.52 101.328Z" fill="#57198A"/>
</g>
<path fill-rule="evenodd" clip-rule="evenodd" d="M176.316 294.902L417.272 302.092L167.169 288.483L176.316 294.902Z" fill="#6A1DAC"/>
<path fill-rule="evenodd" clip-rule="evenodd" d="M-530 234.125L-100.235 252.883L167.168 288.484L176.316 294.902L417.272 302.092L705.953 334.931L445.832 381.178L72.9632 424.242L-530 443V234.125Z" fill="#D7B2FF"/>
<g style="mix-blend-mode:multiply" opacity="0.3">
<path fill-rule="evenodd" clip-rule="evenodd" d="M417.272 302.092L415.831 384.637L575.457 358.142L579.534 320.551V357.395L705.953 334.931L417.272 302.092Z" fill="#57198A"/>
</g>
<g style="mix-blend-mode:multiply" opacity="0.3">
<path fill-rule="evenodd" clip-rule="evenodd" d="M176.316 294.902L160.035 413.271L79.7241 423.446L110.223 280.896L138.633 285.673L110.223 397.971L145.991 284.852L167.168 288.484L176.316 294.902Z" fill="#57198A"/>
</g>
<g style="mix-blend-mode:multiply" opacity="0.3">
<path fill-rule="evenodd" clip-rule="evenodd" d="M47.3364 423.446L99.8577 279.528L-11.9955 275.746L-53.2321 430.909L47.3364 423.446Z" fill="#57198A"/>
</g>
<g style="mix-blend-mode:multiply" opacity="0.3">
<path fill-rule="evenodd" clip-rule="evenodd" d="M212.68 408.097L283.297 294.902L215.514 407.773L212.68 408.097Z" fill="#57198A"/>
</g>
<path fill-rule="evenodd" clip-rule="evenodd" d="M174.476 315.974L265.898 323.86L238.208 329.632L174.476 315.974Z" fill="#6A1DAC"/>
<g style="mix-blend-mode:multiply" opacity="0.3">
<path fill-rule="evenodd" clip-rule="evenodd" d="M238.208 329.632L203.409 408.843L160.035 413.271L174.476 315.974L238.208 329.632Z" fill="#57198A"/>
</g>
<path fill-rule="evenodd" clip-rule="evenodd" d="M204.652 331.498L259.286 345.852L300.249 371.501L224.139 348.589L204.652 331.498Z" fill="#6A1DAC"/>
<path fill-rule="evenodd" clip-rule="evenodd" d="M234.057 357.271L218.522 350.554L195.728 348.588L234.057 357.271Z" fill="#6A1DAC"/>
<path fill-rule="evenodd" clip-rule="evenodd" d="M466.239 341.374L660.814 342.369L613.463 352.171L466.239 341.374Z" fill="#6A1DAC"/>
<path fill-rule="evenodd" clip-rule="evenodd" d="M441.855 346.847L520.649 351.574L494.749 356.151L441.855 346.847Z" fill="#6A1DAC"/>
<path fill-rule="evenodd" clip-rule="evenodd" d="M-3.99182 275.746L52.755 280.896L29.4399 284.702L-3.99182 275.746Z" fill="#6A1DAC"/>
<path fill-rule="evenodd" clip-rule="evenodd" d="M1649.82 300.45L1944.86 236.414L1973.08 252.883L1977.5 303.087L1985.3 294.902L2025.94 291.941L2080.16 310.152L1649.82 300.45Z" fill="#57198A"/>
<path fill-rule="evenodd" clip-rule="evenodd" d="M1944.86 236.414L1958.76 249.574L1925.08 300.276L1858.81 285.075L1656.18 299.057L1944.86 236.414Z" fill="#6A1DAC"/>
<g style="mix-blend-mode:multiply" opacity="0.3">
<path fill-rule="evenodd" clip-rule="evenodd" d="M1768.86 303.137L1770.12 300.276L1796.62 296.793V289.354L1649.82 300.45L1768.86 303.137Z" fill="#57198A"/>
</g>
<path fill-rule="evenodd" clip-rule="evenodd" d="M705.953 334.931L807.54 317.64L1073.13 300.276L1244.59 277.736L1069.7 310.152L803.464 323.114L705.953 334.931Z" fill="#57198A"/>
<g style="mix-blend-mode:multiply" opacity="0.3">
<path fill-rule="evenodd" clip-rule="evenodd" d="M1073.13 300.276L1069.7 310.152L981.435 314.456L980.465 306.346L1073.13 300.276Z" fill="#57198A"/>
</g>
<g style="mix-blend-mode:multiply" opacity="0.3">
<path fill-rule="evenodd" clip-rule="evenodd" d="M975.27 314.456L968.708 307.092L945.318 308.635L951.756 315.899L975.27 314.456Z" fill="#57198A"/>
</g>
<g style="mix-blend-mode:multiply" opacity="0.3">
<path fill-rule="evenodd" clip-rule="evenodd" d="M941.391 315.899L935.152 309.307H925.284L935.674 316.695L941.391 315.899Z" fill="#57198A"/>
</g>
<path fill-rule="evenodd" clip-rule="evenodd" d="M2452.85 326.397L1703.48 360.828L1334.1 348.812L1277.27 378.218L980.341 394.239L509.563 443H629.868L961.624 397.971L1092.59 392.324L2452.85 338.314V326.397Z" fill="#57198A"/>
<path fill-rule="evenodd" clip-rule="evenodd" d="M1334.1 348.812L1180.91 325.925L1290.85 307.117H1476.47L1718.47 357.296L1334.1 348.812Z" fill="#6A1DAC"/>
<path fill-rule="evenodd" clip-rule="evenodd" d="M1277.27 378.218L1162.66 342.917L848.031 388.965L903.187 397.946L963.986 395.658L1277.27 378.218Z" fill="#6A1DAC"/>
<g style="mix-blend-mode:multiply" opacity="0.3">
<path fill-rule="evenodd" clip-rule="evenodd" d="M1387.44 349.981L1399.44 377.422L1477.64 373.615L1468.89 353.191L1387.44 349.981Z" fill="#57198A"/>
</g>
<g style="mix-blend-mode:multiply" opacity="0.3">
<path fill-rule="evenodd" clip-rule="evenodd" d="M1484.58 353.713L1489.57 373.043L1499.96 372.521V354.211L1484.58 353.713Z" fill="#57198A"/>
</g>
<g style="mix-blend-mode:multiply" opacity="0.3">
<path fill-rule="evenodd" clip-rule="evenodd" d="M1320.62 381.253L1294.85 369.138L1277.27 378.218L963.986 395.657L966.198 397.971L1320.62 381.253Z" fill="#57198A"/>
</g>
<path fill-rule="evenodd" clip-rule="evenodd" d="M1195.94 328.164L1312.45 342.917L1361.34 349.41L1320.62 355.778L1301.98 345.28L1195.94 328.164Z" fill="#7C1DD3"/>
<path fill-rule="evenodd" clip-rule="evenodd" d="M1377.25 349.758L1409.06 346.922L1449.68 351.375H1398.52L1377.25 349.758Z" fill="#7C1DD3"/>
<path fill-rule="evenodd" clip-rule="evenodd" d="M807.54 317.64L977.756 292.713H1133.03L1073.13 300.276L807.54 317.64Z" fill="#6A1DAC"/>
<path fill-rule="evenodd" clip-rule="evenodd" d="M797.971 311.496L838.81 305.052L792.751 300.276L735.134 313.013L797.971 311.496Z" fill="#6A1DAC"/>
<path fill-rule="evenodd" clip-rule="evenodd" d="M1046.81 284.852L1062.67 283.359L1088.69 287.538H1052.52L1046.81 284.852Z" fill="#6A1DAC"/>
<path fill-rule="evenodd" clip-rule="evenodd" d="M1095.72 287.538L1244.59 277.736L1130.67 291.942L1095.72 287.538Z" fill="#6A1DAC"/>
<g style="mix-blend-mode:multiply" opacity="0.3">
<path fill-rule="evenodd" clip-rule="evenodd" d="M321.924 205.193V220.542L302.461 220.144L289.884 196.162L321.924 205.193Z" fill="#57198A"/>
</g>
<g style="mix-blend-mode:multiply" opacity="0.3">
<path fill-rule="evenodd" clip-rule="evenodd" d="M369.995 221.562L377.651 208.352L419.435 209.969L412.5 222.458L369.995 221.562Z" fill="#57198A"/>
</g>
<path fill-rule="evenodd" clip-rule="evenodd" d="M1021.98 230.319L1120.38 202.979L1108.35 228.603L1021.98 230.319Z" fill="#7C1DD3"/>
<path fill-rule="evenodd" clip-rule="evenodd" d="M1011.71 230.319L1037.51 220.916L1006.29 215.94L984.119 230.319H1011.71Z" fill="#7C1DD3"/>
<path fill-rule="evenodd" clip-rule="evenodd" d="M757.256 208.949L752.608 204.894L754.945 197.729L760.661 208.252L757.256 208.949Z" fill="#7C1DD3"/>
<path fill-rule="evenodd" clip-rule="evenodd" d="M760.661 216.661L763.52 213.651L774.705 215.144L762.874 222.532L760.661 216.661Z" fill="#7C1DD3"/>
<path fill-rule="evenodd" clip-rule="evenodd" d="M1088.69 161.606L1097.17 152.725L1110.84 154.84L1098.58 166.383L1088.69 161.606Z" fill="#7C1DD3"/>
<path fill-rule="evenodd" clip-rule="evenodd" d="M937.116 162.8L935.152 153.347L946.263 147.575L941.391 164.89L937.116 162.8Z" fill="#7C1DD3"/>
<path fill-rule="evenodd" clip-rule="evenodd" d="M935.152 149.068L933.711 146.605L937.116 144.714V147.575L935.152 149.068Z" fill="#7C1DD3"/>
<path fill-rule="evenodd" clip-rule="evenodd" d="M971.542 165.338L976.339 161.606L988.171 163.273L975.27 169.692L971.542 165.338Z" fill="#7C1DD3"/>
<path fill-rule="evenodd" clip-rule="evenodd" d="M817.731 281.767L822.529 278.01L834.36 279.702L821.485 286.12L817.731 281.767Z" fill="#7C1DD3"/>
<path fill-rule="evenodd" clip-rule="evenodd" d="M869.83 137.202L866.35 134.241L871.545 129.141L872.887 131.704L869.83 137.202Z" fill="#7C1DD3"/>
<path fill-rule="evenodd" clip-rule="evenodd" d="M676.622 279.751L673.118 276.791L678.338 271.691L679.655 274.253L676.622 279.751Z" fill="#7C1DD3"/>
<path fill-rule="evenodd" clip-rule="evenodd" d="M1130.67 91.4262L1139.12 90.7545L1143.82 90.3813L1137.23 95.7052L1129.25 94.5857L1130.67 91.4262Z" fill="#7C1DD3"/>
<path fill-rule="evenodd" clip-rule="evenodd" d="M703.393 370.431L711.322 364.386L726.335 361.425L717.486 369.137L703.393 370.431Z" fill="#7C1DD3"/>
<path fill-rule="evenodd" clip-rule="evenodd" d="M613.463 298.808L625.742 292.713L655.42 302.092L638.866 306.346L613.463 298.808Z" fill="#7C1DD3"/>
<path fill-rule="evenodd" clip-rule="evenodd" d="M705.953 334.93L733.717 324.308L764.315 327.865L705.953 334.93Z" fill="#BF81FF"/>
<path fill-rule="evenodd" clip-rule="evenodd" d="M1278.91 263.034L1446.47 307.117H1463.7L1484.25 288.484L1278.91 263.034Z" fill="#6A1DAC"/>
<path fill-rule="evenodd" clip-rule="evenodd" d="M1244.61 277.736L1325.5 289.504C1326.22 289.504 1276.11 292.713 1276.11 292.713L1244.61 277.736Z" fill="#6A1DAC"/>
<path fill-rule="evenodd" clip-rule="evenodd" d="M1495.56 296.967L1476.47 307.117L1627.15 315.899L1777.9 303.136L1652.01 300.276L1495.56 296.967Z" fill="#6A1DAC"/>
<path fill-rule="evenodd" clip-rule="evenodd" d="M445.832 381.178L401.339 402.872L616.321 374.337L781.963 325.726L705.953 334.93L445.832 381.178Z" fill="#6A1DAC"/>
<path fill-rule="evenodd" clip-rule="evenodd" d="M1129.83 329.607L1135.64 325.9H1153.32L1142.65 333.338L1129.83 329.607Z" fill="#6A1DAC"/>
<path fill-rule="evenodd" clip-rule="evenodd" d="M394.728 300.873L452.568 306.346L427.886 298.808L394.728 300.873Z" fill="#7C1DD3"/>
<path fill-rule="evenodd" clip-rule="evenodd" d="M453.91 199.023L484.856 209.372L459.901 208.078L453.91 199.023Z" fill="#7C1DD3"/>
<path fill-rule="evenodd" clip-rule="evenodd" d="M1050.46 301.768L1098.58 296.942L1072.61 301.768H1050.46Z" fill="#7C1DD3"/>
<path fill-rule="evenodd" clip-rule="evenodd" d="M1042.95 302.266L1010.04 304.406L1028.04 301.769L1042.95 302.266Z" fill="#7C1DD3"/>
<path fill-rule="evenodd" clip-rule="evenodd" d="M1085.81 229.05L1110.84 221.512V236.165L1085.81 229.05Z" fill="#6A1DAC"/>
<path fill-rule="evenodd" clip-rule="evenodd" d="M140.796 237.907L199.109 230.667L509.564 244.375L536.98 259.501H283.297L140.796 237.907Z" fill="#912EEF"/>
<path fill-rule="evenodd" clip-rule="evenodd" d="M371.437 264.651L534.569 261.367L583.909 269.8L417.272 268.009L371.437 264.651Z" fill="#912EEF"/>
<path fill-rule="evenodd" clip-rule="evenodd" d="M621.143 219.099L673.118 208.352L840.226 227.807L621.143 219.099Z" fill="#912EEF"/>
<path fill-rule="evenodd" clip-rule="evenodd" d="M1080.06 277.736L843.284 269.8L607.994 230.667L1049.22 236.165L1114.09 253.928L1080.06 277.736Z" fill="#912EEF"/>
<path style="mix-blend-mode:screen" fill-rule="evenodd" clip-rule="evenodd" d="M1078.45 320.949C1078.45 330.9 1087.47 338.836 1098.61 338.836C1109.74 338.836 1118.79 330.826 1118.79 320.949C1118.79 311.073 1109.77 303.062 1098.61 303.062C1087.45 303.062 1078.45 311.147 1078.45 320.949Z" fill="url(#paint5_radial_120_1098)"/>
<path style="mix-blend-mode:screen" fill-rule="evenodd" clip-rule="evenodd" d="M1089.14 320.949C1088.9 322.869 1089.26 324.814 1090.16 326.526C1091.06 328.237 1092.46 329.635 1094.17 330.533C1095.88 331.431 1097.82 331.786 1099.74 331.552C1101.66 331.318 1103.46 330.505 1104.9 329.222C1106.35 327.94 1107.37 326.247 1107.83 324.369C1108.29 322.491 1108.17 320.518 1107.49 318.71C1106.8 316.903 1105.58 315.347 1103.99 314.249C1102.4 313.152 1100.51 312.564 1098.58 312.566C1096.22 312.429 1093.9 313.235 1092.13 314.806C1090.36 316.377 1089.28 318.586 1089.14 320.949Z" fill="url(#paint6_radial_120_1098)"/>
<path d="M1097.49 324.656C1099.29 324.656 1100.74 323.197 1100.74 321.397C1100.74 319.597 1099.29 318.138 1097.49 318.138C1095.69 318.138 1094.23 319.597 1094.23 321.397C1094.23 323.197 1095.69 324.656 1097.49 324.656Z" fill="#00D6C0"/>
<path style="mix-blend-mode:multiply" fill-rule="evenodd" clip-rule="evenodd" d="M245.764 295.748L464.176 279.204C464.176 279.204 437.555 289.802 435.641 292.165C433.727 294.529 468.675 297.141 491.692 293.21C514.709 289.28 588.507 278.582 591.415 280.423C594.323 282.264 515.827 309.605 515.827 309.605L518.686 341.001L509.017 342.842L511.129 354.584L487.118 350.355L482.147 377.521L245.764 406.33L256.502 351.599L260.653 340.802L256.502 325.875L267.538 323.785L245.764 295.748Z" fill="url(#paint7_linear_120_1098)"/>
<defs>
<filter id="filter0_d_120_1098" x="962.012" y="-32" width="452.503" height="173.239" filterUnits="userSpaceOnUse" color-interpolation-filters="sRGB">
<feFlood flood-opacity="0" result="BackgroundImageFix"/>
<feColorMatrix in="SourceAlpha" type="matrix" values="0 0 0 0 0 0 0 0 0 0 0 0 0 0 0 0 0 0 127 0" result="hardAlpha"/>
<feOffset/>
<feGaussianBlur stdDeviation="16"/>
<feComposite in2="hardAlpha" operator="out"/>
<feColorMatrix type="matrix" values="0 0 0 0 1 0 0 0 0 1 0 0 0 0 1 0 0 0 1 0"/>
<feBlend mode="normal" in2="BackgroundImageFix" result="effect1_dropShadow_120_1098"/>
<feBlend mode="normal" in="SourceGraphic" in2="effect1_dropShadow_120_1098" result="shape"/>
</filter>
<linearGradient id="paint0_linear_120_1098" x1="1303.5" y1="18" x2="1149" y2="55" gradientUnits="userSpaceOnUse">
<stop stop-color="#653897"/>
<stop offset="1" stop-color="#DAB8FF"/>
</linearGradient>
<linearGradient id="paint1_linear_120_1098" x1="976.339" y1="128.594" x2="1382.52" y2="128.594" gradientUnits="userSpaceOnUse">
<stop stop-color="#450C36"/>
<stop offset="1" stop-color="#361867"/>
</linearGradient>
<linearGradient id="paint2_linear_120_1098" x1="840.549" y1="134.49" x2="840.549" y2="94.5854" gradientUnits="userSpaceOnUse">
<stop stop-color="#450C36"/>
<stop offset="1" stop-color="#361867"/>
</linearGradient>
<linearGradient id="paint3_linear_120_1098" x1="1265.42" y1="255.521" x2="1265.42" y2="70.0562" gradientUnits="userSpaceOnUse">
<stop stop-color="#450C36"/>
<stop offset="1" stop-color="#361867"/>
</linearGradient>
<linearGradient id="paint4_linear_120_1098" x1="1354.13" y1="193.923" x2="1354.13" y2="122.474" gradientUnits="userSpaceOnUse">
<stop stop-color="#450C36"/>
<stop offset="1" stop-color="#361867"/>
</linearGradient>
<radialGradient id="paint5_radial_120_1098" cx="0" cy="0" r="1" gradientUnits="userSpaceOnUse" gradientTransform="translate(1098.57 320.378) rotate(180) scale(20.1756 17.878)">
<stop stop-color="#980300"/>
<stop offset="0.14" stop-color="#7C0200"/>
<stop offset="0.43" stop-color="#470100"/>
<stop offset="0.68" stop-color="#200100"/>
<stop offset="0.88" stop-color="#090000"/>
<stop offset="1"/>
</radialGradient>
<radialGradient id="paint6_radial_120_1098" cx="0" cy="0" r="1" gradientUnits="userSpaceOnUse" gradientTransform="translate(1098.57 320.378) rotate(180) scale(9.44389 8.3684)">
<stop stop-color="#FF36A8"/>
<stop offset="0.18" stop-color="#C1297F"/>
<stop offset="0.41" stop-color="#7D1A52"/>
<stop offset="0.61" stop-color="#470F2F"/>
<stop offset="0.78" stop-color="#200715"/>
<stop offset="0.92" stop-color="#090206"/>
<stop offset="1"/>
</radialGradient>
<linearGradient id="paint7_linear_120_1098" x1="418.565" y1="406.33" x2="418.565" y2="279.204" gradientUnits="userSpaceOnUse">
<stop stop-color="white"/>
<stop offset="0.17" stop-color="#ECE7FA"/>
<stop offset="0.52" stop-color="#BBA9EE"/>
<stop offset="1" stop-color="#724DDB"/>
</linearGradient>
</defs>
</svg>
