<svg width="1728" height="1117" viewBox="0 0 1728 1117" fill="none" xmlns="http://www.w3.org/2000/svg">
<path fill-rule="evenodd" clip-rule="evenodd" d="M1209.66 124.361L1207.57 138.993L1208.29 140.569L1216.36 150.281L1219.23 148.785L1221.6 132.438L1215.43 121.57L1209.66 124.361Z" fill="url(#paint0_linear_120_1306)"/>
<path fill-rule="evenodd" clip-rule="evenodd" d="M1508.74 492.762L1494.6 477.777L1494.13 473.139L1502.3 465.472L1524.01 479.283L1521.58 490.926L1508.74 492.762Z" fill="url(#paint1_linear_120_1306)"/>
<path fill-rule="evenodd" clip-rule="evenodd" d="M1115.47 756.25L1108.08 733.387L1103.05 731.829L1094.32 743.645L1100.78 754.969L1115.47 756.25Z" fill="url(#paint2_linear_120_1306)"/>
<path fill-rule="evenodd" clip-rule="evenodd" d="M1110.82 724.532L1111.57 718.176L1118.83 706.323L1123.94 711.844L1120.39 720.769L1110.82 724.532Z" fill="url(#paint3_linear_120_1306)"/>
<path fill-rule="evenodd" clip-rule="evenodd" d="M962.445 697.952L963.57 689.735L968.735 686.886L973.846 696.312L970.428 707.526L962.445 697.952Z" fill="url(#paint4_linear_120_1306)"/>
<path fill-rule="evenodd" clip-rule="evenodd" d="M954.108 703.688L950.888 699.832L942.17 702.66L937.238 719.914L944.461 735.409L956.164 730.481L956.461 721.676L954.108 703.688Z" fill="url(#paint5_linear_120_1306)"/>
<path fill-rule="evenodd" clip-rule="evenodd" d="M987.704 796.347L988.105 784.911L993.485 783.068L1000.22 792.1L993.264 801.862L987.704 796.347Z" fill="url(#paint6_linear_120_1306)"/>
<path fill-rule="evenodd" clip-rule="evenodd" d="M554.265 883.659L568.593 853.58L564.497 847.16L554.338 836.186L527.238 863.706L543.302 887.25L554.265 883.659Z" fill="url(#paint7_linear_120_1306)"/>
<path fill-rule="evenodd" clip-rule="evenodd" d="M563.665 882.793L564.583 874.624L570.655 872.898L576.051 883.368L569.148 889.974L563.665 882.793Z" fill="url(#paint8_linear_120_1306)"/>
<path fill-rule="evenodd" clip-rule="evenodd" d="M1471.23 253.852L1462.97 246.856L1464.58 239.361L1479.99 238.536L1483.9 251.993L1471.23 253.852Z" fill="url(#paint9_linear_120_1306)"/>
<path fill-rule="evenodd" clip-rule="evenodd" d="M965.186 554.682L964.267 547.879L969.476 543.609L974.607 548.672L974.081 558.237L965.186 554.682Z" fill="url(#paint10_linear_120_1306)"/>
<path fill-rule="evenodd" clip-rule="evenodd" d="M954.773 527.671L952.206 524.987L955.134 519.076L958.693 520.932L959.636 523.23L954.773 527.671Z" fill="url(#paint11_linear_120_1306)"/>
<path fill-rule="evenodd" clip-rule="evenodd" d="M971.54 570.563L964.339 570.668L957.227 579.999L962.189 584.501L971.893 578.34L971.54 570.563Z" fill="url(#paint12_linear_120_1306)"/>
<path fill-rule="evenodd" clip-rule="evenodd" d="M956.659 600.854L956.505 597.858L961.17 593.181L962.699 596.583L959.469 600.233L956.659 600.854Z" fill="url(#paint13_linear_120_1306)"/>
<path fill-rule="evenodd" clip-rule="evenodd" d="M1480.9 546.234L1465.44 546.118L1462.3 538.079L1479.14 521.509L1485.87 530.298L1480.9 546.234Z" fill="url(#paint14_linear_120_1306)"/>
<path fill-rule="evenodd" clip-rule="evenodd" d="M943.26 539.337L930.401 546.396L929.505 553.185L938.846 558.519L947.52 551.786L943.26 539.337Z" fill="url(#paint15_linear_120_1306)"/>
<path fill-rule="evenodd" clip-rule="evenodd" d="M954.735 678.419L934.961 652L941.314 635.373L979.762 642.548L978.678 675.888L954.735 678.419Z" fill="url(#paint16_linear_120_1306)"/>
<path fill-rule="evenodd" clip-rule="evenodd" d="M954.736 678.42L969.206 649.644L979.763 642.548L978.679 675.888L954.736 678.42Z" fill="#57198A"/>
<g style="mix-blend-mode:screen" opacity="0.5">
<path fill-rule="evenodd" clip-rule="evenodd" d="M941.315 635.373L943.871 641.019L969.206 649.644L979.763 642.548L941.315 635.373Z" fill="#D7B2FF"/>
</g>
<path fill-rule="evenodd" clip-rule="evenodd" d="M964.787 658.43L965.402 648.335L972.229 647.605L964.787 658.43Z" fill="#430F3F"/>
<path fill-rule="evenodd" clip-rule="evenodd" d="M1483.89 251.994L1471.23 253.853L1476.81 243.158L1479.99 238.536L1483.89 251.994Z" fill="#57198A"/>
<g style="mix-blend-mode:soft-light">
<path fill-rule="evenodd" clip-rule="evenodd" d="M1464.58 239.362L1464.46 241.892L1476.08 244.575L1479.99 238.537L1464.58 239.362Z" fill="#BF81FF"/>
</g>
<path fill-rule="evenodd" clip-rule="evenodd" d="M1474.23 248.092L1473.08 243.895L1478.11 241.467L1474.23 248.092Z" fill="#430F3F"/>
<g style="mix-blend-mode:soft-light">
<path fill-rule="evenodd" clip-rule="evenodd" d="M1209.66 124.361L1216.87 132.806L1221.6 132.438L1215.43 121.57L1209.66 124.361Z" fill="#BF81FF"/>
</g>
<g style="mix-blend-mode:soft-light">
<path fill-rule="evenodd" clip-rule="evenodd" d="M1465.44 546.118L1482.35 533.126L1479.14 521.509L1462.3 538.079L1465.44 546.118Z" fill="#BF81FF"/>
</g>
<g style="mix-blend-mode:soft-light">
<path fill-rule="evenodd" clip-rule="evenodd" d="M1494.13 473.139L1506.45 486.193L1513.9 485.734L1524.01 479.283L1502.31 465.472L1494.13 473.139Z" fill="#BF81FF"/>
</g>
<g style="mix-blend-mode:screen" opacity="0.5">
<path fill-rule="evenodd" clip-rule="evenodd" d="M964.266 547.879L966.567 551.486L970.996 552.173L974.606 548.672L969.475 543.608L964.266 547.879Z" fill="#D7B2FF"/>
</g>
<g style="mix-blend-mode:screen" opacity="0.5">
<path fill-rule="evenodd" clip-rule="evenodd" d="M955.134 519.077L954.148 523.191L955.323 525.034L959.636 523.231L958.693 520.933L955.134 519.077Z" fill="#D7B2FF"/>
</g>
<path fill-rule="evenodd" clip-rule="evenodd" d="M930.401 546.396L938.557 555.72L947.52 551.786L943.26 539.337L930.401 546.396Z" fill="#57198A"/>
<path fill-rule="evenodd" clip-rule="evenodd" d="M964.337 570.667L962.295 576.961L964.698 579.164L971.891 578.339L971.539 570.563L964.337 570.667Z" fill="#57198A"/>
<path fill-rule="evenodd" clip-rule="evenodd" d="M956.504 597.858L957.326 599.146L958.663 599.269L962.698 596.583L961.169 593.181L956.504 597.858Z" fill="#57198A"/>
<g style="mix-blend-mode:soft-light">
<path fill-rule="evenodd" clip-rule="evenodd" d="M1111.56 718.175L1119.32 719.754L1123.94 711.843L1118.82 706.322L1111.56 718.175Z" fill="#E4D4CD"/>
</g>
<g style="mix-blend-mode:soft-light">
<path fill-rule="evenodd" clip-rule="evenodd" d="M1103.05 731.829L1100.88 747.743L1106.6 752.511L1115.47 756.25L1108.08 733.387L1103.05 731.829Z" fill="#E4D4CD"/>
</g>
<g style="mix-blend-mode:screen" opacity="0.5">
<path fill-rule="evenodd" clip-rule="evenodd" d="M968.734 686.887L966.658 693.313L966.511 698.482L970.427 707.526L973.845 696.313L968.734 686.887Z" fill="#D7B2FF"/>
</g>
<g style="mix-blend-mode:screen" opacity="0.5">
<path fill-rule="evenodd" clip-rule="evenodd" d="M950.889 699.832L943.301 708.157L940.705 721.885L947.332 728.141L956.164 730.481L956.462 721.676L954.109 703.688L950.889 699.832Z" fill="#D7B2FF"/>
</g>
<g style="mix-blend-mode:soft-light">
<path fill-rule="evenodd" clip-rule="evenodd" d="M554.338 836.186L545.649 849.674L553.417 875.89L568.592 853.58L564.496 847.16L554.338 836.186Z" fill="#BF81FF"/>
</g>
<g style="mix-blend-mode:soft-light">
<path fill-rule="evenodd" clip-rule="evenodd" d="M564.581 874.624L570.149 882.086L576.05 883.368L570.653 872.898L564.581 874.624Z" fill="#BF81FF"/>
</g>
<g style="mix-blend-mode:soft-light">
<path fill-rule="evenodd" clip-rule="evenodd" d="M988.105 784.912L993.174 792.858L1000.22 792.1L993.485 783.069L988.105 784.912Z" fill="#E4D4CD"/>
</g>
<path fill-rule="evenodd" clip-rule="evenodd" d="M1482.35 533.126L1480.9 546.234L1485.87 530.298L1479.14 521.509L1482.35 533.126Z" fill="#57198A"/>
<path fill-rule="evenodd" clip-rule="evenodd" d="M1513.9 485.734L1508.74 492.761L1521.58 490.926L1524.01 479.283L1513.9 485.734Z" fill="#6C1E90"/>
<path fill-rule="evenodd" clip-rule="evenodd" d="M1216.36 150.281L1214.42 139.277L1216.87 132.806L1221.6 132.438L1219.23 148.785L1216.36 150.281Z" fill="#57198A"/>
<path fill-rule="evenodd" clip-rule="evenodd" d="M955.323 525.034L954.773 527.671L959.636 523.23L955.323 525.034Z" fill="#57198A"/>
<path fill-rule="evenodd" clip-rule="evenodd" d="M970.995 552.173L974.079 558.236L974.605 548.672L970.995 552.173Z" fill="#57198A"/>
<path fill-rule="evenodd" clip-rule="evenodd" d="M964.699 579.165L962.189 584.502L971.893 578.34L964.699 579.165Z" fill="#57198A"/>
<path fill-rule="evenodd" clip-rule="evenodd" d="M938.557 555.719L938.846 558.518L947.521 551.786L938.557 555.719Z" fill="#57198A"/>
<path fill-rule="evenodd" clip-rule="evenodd" d="M958.664 599.269L959.469 600.233L962.699 596.584L958.664 599.269Z" fill="#57198A"/>
<path fill-rule="evenodd" clip-rule="evenodd" d="M966.512 698.481L962.446 697.953L970.429 707.526L966.512 698.481Z" fill="#57198A"/>
<path fill-rule="evenodd" clip-rule="evenodd" d="M940.705 721.885L937.239 719.914L944.462 735.409L956.164 730.481L947.332 728.141L940.705 721.885Z" fill="#57198A"/>
<path fill-rule="evenodd" clip-rule="evenodd" d="M1493.23 263.545L1495.62 246.436L1506.38 240.469L1517.03 260.157L1509.87 283.518L1493.23 263.545Z" fill="url(#paint17_linear_120_1306)"/>
<path fill-rule="evenodd" clip-rule="evenodd" d="M1475.85 275.499L1469.13 267.461L1450.96 273.42L1440.68 309.363L1455.74 341.688L1480.14 331.37L1480.74 313.03L1475.85 275.499Z" fill="url(#paint18_linear_120_1306)"/>
<g style="mix-blend-mode:soft-light">
<path fill-rule="evenodd" clip-rule="evenodd" d="M1506.38 240.469L1502.02 253.897L1501.73 264.65L1509.87 283.518L1517.03 260.157L1506.38 240.469Z" fill="#BF81FF"/>
</g>
<g style="mix-blend-mode:soft-light">
<path fill-rule="evenodd" clip-rule="evenodd" d="M1469.13 267.461L1453.3 284.835L1447.91 313.476L1461.74 326.515L1480.13 331.371L1480.74 313.03L1475.85 275.499L1469.13 267.461Z" fill="#BF81FF"/>
</g>
<path fill-rule="evenodd" clip-rule="evenodd" d="M1501.73 264.649L1493.23 263.544L1509.87 283.518L1501.73 264.649Z" fill="#57198A"/>
<path fill-rule="evenodd" clip-rule="evenodd" d="M1447.91 313.476L1440.68 309.363L1455.74 341.688L1480.14 331.371L1461.74 326.515L1447.91 313.476Z" fill="#57198A"/>
<path fill-rule="evenodd" clip-rule="evenodd" d="M1646.21 -67.6515L1636.89 -67.4782L1632.82 -47.4264L1655.36 -12.9847L1687.12 -3.1878L1690.82 -31.7562L1677.14 -45.3072L1646.21 -67.6515Z" fill="url(#paint19_linear_120_1306)"/>
<path fill-rule="evenodd" clip-rule="evenodd" d="M1661.92 -16.3625L1655.36 -12.9849L1687.12 -3.18798L1690.82 -31.7564L1678.39 -19.1745L1661.92 -16.3625Z" fill="#57198A"/>
<path fill-rule="evenodd" clip-rule="evenodd" d="M1106.6 752.511L1100.78 754.969L1115.47 756.25L1106.6 752.511Z" fill="#57198A"/>
<path fill-rule="evenodd" clip-rule="evenodd" d="M1119.32 719.754L1120.39 720.769L1123.94 711.843L1119.32 719.754Z" fill="#57198A"/>
<path fill-rule="evenodd" clip-rule="evenodd" d="M1654.38 36.3771L1649.12 20.1301L1645.54 19.0154L1639.32 27.411L1643.92 35.4668L1654.38 36.3771Z" fill="url(#paint20_linear_120_1306)"/>
<path fill-rule="evenodd" clip-rule="evenodd" d="M1651.06 13.8206L1651.59 9.29727L1656.76 0.869312L1660.4 4.79143L1657.88 11.1435L1651.06 13.8206Z" fill="url(#paint21_linear_120_1306)"/>
<g style="mix-blend-mode:soft-light">
<path fill-rule="evenodd" clip-rule="evenodd" d="M1651.59 9.29727L1657.11 10.4313L1660.41 4.79143L1656.76 0.869312L1651.59 9.29727Z" fill="#BF81FF"/>
</g>
<g style="mix-blend-mode:soft-light">
<path fill-rule="evenodd" clip-rule="evenodd" d="M1645.54 19.0159L1643.98 30.3222L1648.07 33.7106L1654.38 36.3775L1649.12 20.1306L1645.54 19.0159Z" fill="#BF81FF"/>
</g>
<path fill-rule="evenodd" clip-rule="evenodd" d="M1657.11 10.4318L1657.88 11.144L1660.4 4.79192L1657.11 10.4318Z" fill="#57198A"/>
<path fill-rule="evenodd" clip-rule="evenodd" d="M993.174 792.858L993.264 801.862L1000.22 792.099L993.174 792.858Z" fill="#57198A"/>
<path fill-rule="evenodd" clip-rule="evenodd" d="M570.149 882.086L569.147 889.974L576.05 883.368L570.149 882.086Z" fill="#57198A"/>
<path fill-rule="evenodd" clip-rule="evenodd" d="M398.659 1056.02L399.577 1047.85L405.632 1046.14L411.057 1056.62L404.125 1063.21L398.659 1056.02Z" fill="url(#paint22_linear_120_1306)"/>
<g style="mix-blend-mode:soft-light">
<path fill-rule="evenodd" clip-rule="evenodd" d="M399.577 1047.85L405.144 1055.31L411.058 1056.62L405.632 1046.14L399.577 1047.85Z" fill="#BF81FF"/>
</g>
<path fill-rule="evenodd" clip-rule="evenodd" d="M405.144 1055.31L404.125 1063.21L411.057 1056.62L405.144 1055.31Z" fill="#57198A"/>
<path fill-rule="evenodd" clip-rule="evenodd" d="M553.418 875.89L543.301 887.25L554.264 883.659L568.592 853.58L553.418 875.89Z" fill="#57198A"/>
<path fill-rule="evenodd" clip-rule="evenodd" d="M355.312 1061.53L346.471 1025.74L339.804 1023.11L326.301 1020.82L325.063 1063.38L350.204 1072.29L355.312 1061.53Z" fill="url(#paint23_linear_120_1306)"/>
<g style="mix-blend-mode:soft-light">
<path fill-rule="evenodd" clip-rule="evenodd" d="M326.301 1020.82L328.764 1038.46L349.996 1055.47L346.471 1025.74L339.803 1023.11L326.301 1020.82Z" fill="#BF81FF"/>
</g>
<path fill-rule="evenodd" clip-rule="evenodd" d="M349.996 1055.47L350.203 1072.29L355.312 1061.53L346.471 1025.74L349.996 1055.47Z" fill="#57198A"/>
<path fill-rule="evenodd" clip-rule="evenodd" d="M966.568 551.486L965.186 554.681L964.267 547.879L966.568 551.486Z" fill="#57198A"/>
<path fill-rule="evenodd" clip-rule="evenodd" d="M954.148 523.19L952.206 524.987L954.773 527.671L955.324 525.033L954.148 523.19Z" fill="#57198A"/>
<path fill-rule="evenodd" clip-rule="evenodd" d="M611.676 762.754L610.757 755.951L615.966 751.68L621.096 756.744L620.57 766.308L611.676 762.754Z" fill="url(#paint24_linear_120_1306)"/>
<path fill-rule="evenodd" clip-rule="evenodd" d="M763.469 633.307L760.918 630.612L763.842 624.732L767.389 626.568L768.349 628.856L763.469 633.307Z" fill="url(#paint25_linear_120_1306)"/>
<path fill-rule="evenodd" clip-rule="evenodd" d="M618.03 778.635L610.828 778.74L603.717 788.072L608.696 792.563L618.383 786.412L618.03 778.635Z" fill="url(#paint26_linear_120_1306)"/>
<path fill-rule="evenodd" clip-rule="evenodd" d="M603.149 808.927L602.995 805.93L607.66 801.253L609.201 804.675L605.959 808.305L603.149 808.927Z" fill="url(#paint27_linear_120_1306)"/>
<path fill-rule="evenodd" clip-rule="evenodd" d="M589.75 747.409L576.89 754.469L575.995 761.257L585.336 766.591L594.01 759.859L589.75 747.409Z" fill="url(#paint28_linear_120_1306)"/>
<g style="mix-blend-mode:screen" opacity="0.5">
<path fill-rule="evenodd" clip-rule="evenodd" d="M610.758 755.951L613.058 759.558L617.487 760.246L621.097 756.744L615.967 751.68L610.758 755.951Z" fill="#D7B2FF"/>
</g>
<g style="mix-blend-mode:screen" opacity="0.5">
<path fill-rule="evenodd" clip-rule="evenodd" d="M763.842 624.732L762.843 628.826L764.019 630.669L768.349 628.856L767.388 626.568L763.842 624.732Z" fill="#D7B2FF"/>
</g>
<path fill-rule="evenodd" clip-rule="evenodd" d="M576.89 754.469L585.047 763.792L594.01 759.859L589.75 747.409L576.89 754.469Z" fill="#57198A"/>
<path fill-rule="evenodd" clip-rule="evenodd" d="M610.829 778.74L608.786 785.034L611.189 787.237L618.383 786.412L618.03 778.635L610.829 778.74Z" fill="#57198A"/>
<path fill-rule="evenodd" clip-rule="evenodd" d="M602.994 805.93L603.816 807.218L605.153 807.341L609.201 804.675L607.659 801.253L602.994 805.93Z" fill="#57198A"/>
<path fill-rule="evenodd" clip-rule="evenodd" d="M764.019 630.669L763.468 633.307L768.349 628.855L764.019 630.669Z" fill="#57198A"/>
<path fill-rule="evenodd" clip-rule="evenodd" d="M617.487 760.246L620.57 766.309L621.097 756.744L617.487 760.246Z" fill="#57198A"/>
<path fill-rule="evenodd" clip-rule="evenodd" d="M611.188 787.237L608.695 792.563L618.382 786.412L611.188 787.237Z" fill="#57198A"/>
<path fill-rule="evenodd" clip-rule="evenodd" d="M585.045 763.792L585.334 766.591L594.009 759.859L585.045 763.792Z" fill="#57198A"/>
<path fill-rule="evenodd" clip-rule="evenodd" d="M605.153 807.341L605.958 808.305L609.2 804.676L605.153 807.341Z" fill="#57198A"/>
<path fill-rule="evenodd" clip-rule="evenodd" d="M613.057 759.558L611.675 762.754L610.757 755.951L613.057 759.558Z" fill="#57198A"/>
<path fill-rule="evenodd" clip-rule="evenodd" d="M238.887 1059.24L243.101 1064.91L241.362 1071.91L234.875 1070.3L230.288 1061.21L238.887 1059.24Z" fill="url(#paint29_linear_120_1306)"/>
<g style="mix-blend-mode:screen" opacity="0.5">
<path fill-rule="evenodd" clip-rule="evenodd" d="M243.1 1064.91L239.478 1062.96L235.768 1064.96L234.874 1070.3L241.361 1071.91L243.1 1064.91Z" fill="#D7B2FF"/>
</g>
<path fill-rule="evenodd" clip-rule="evenodd" d="M235.769 1064.96L230.288 1061.21L234.875 1070.3L235.769 1064.96Z" fill="#57198A"/>
<path fill-rule="evenodd" clip-rule="evenodd" d="M239.479 1062.96L238.887 1059.24L243.101 1064.91L239.479 1062.96Z" fill="#57198A"/>
<path fill-rule="evenodd" clip-rule="evenodd" d="M762.843 628.827L760.918 630.612L763.468 633.307L764.019 630.67L762.843 628.827Z" fill="#57198A"/>
<path fill-rule="evenodd" clip-rule="evenodd" d="M1465.43 546.118L1482.35 533.126L1480.9 546.234L1465.43 546.118Z" fill="#6C1E90"/>
<path fill-rule="evenodd" clip-rule="evenodd" d="M1594.29 524.064L1557.73 440.462L1603.32 399.477L1618.14 416.677L1622.95 457.964L1625.29 428.868L1636.84 421.501L1652.58 446.174L1640.91 509.494L1610.91 527.454L1594.29 524.064Z" fill="url(#paint30_linear_120_1306)"/>
<g style="mix-blend-mode:multiply" opacity="0.5">
<path fill-rule="evenodd" clip-rule="evenodd" d="M1603.32 399.477L1616.8 471.926L1619.73 472.902L1619.38 447.862L1627.59 504.186L1610.61 519.676L1594.29 524.064L1610.91 527.454L1640.91 509.494L1652.58 446.174L1636.84 421.501L1635.21 472.673L1631.18 488.21L1622.95 457.964L1618.14 416.677L1603.32 399.477Z" fill="#A359AA"/>
</g>
<g style="mix-blend-mode:multiply" opacity="0.5">
<path fill-rule="evenodd" clip-rule="evenodd" d="M1614.96 510.072L1619.58 476.286L1615.75 478.731L1609.79 518.053L1614.96 510.072Z" fill="#A359AA"/>
</g>
<g style="mix-blend-mode:screen" opacity="0.3">
<path fill-rule="evenodd" clip-rule="evenodd" d="M1594.29 524.064L1609.79 518.053L1615.47 474.085L1603.32 399.477L1557.73 440.462L1594.29 524.064Z" fill="#D7B2FF"/>
</g>
<g style="mix-blend-mode:screen" opacity="0.3">
<path fill-rule="evenodd" clip-rule="evenodd" d="M1625.29 428.868L1622.95 457.964L1636.84 421.502L1625.29 428.868Z" fill="#D7B2FF"/>
</g>
<g style="mix-blend-mode:multiply" opacity="0.5">
<path fill-rule="evenodd" clip-rule="evenodd" d="M1631.18 488.21L1627.99 476.471L1623.61 476.867L1627.59 504.187L1610.61 519.676L1594.29 524.065L1610.92 527.455L1640.91 509.495L1632.72 494.533L1631.18 488.21Z" fill="#A359AA"/>
</g>
<path fill-rule="evenodd" clip-rule="evenodd" d="M1557.73 440.462L1558.91 443.167L1603.32 399.477L1557.73 440.462Z" fill="#9C3CFB"/>
<path fill-rule="evenodd" clip-rule="evenodd" d="M1596.81 504.192L1593.81 497.883L1599.92 485.535L1596.81 504.192Z" fill="#451134"/>
<path fill-rule="evenodd" clip-rule="evenodd" d="M1584.69 421.063L1599.56 485.234L1589.96 428.069L1584.69 421.063Z" fill="#451134"/>
<path fill-rule="evenodd" clip-rule="evenodd" d="M1557.73 440.462L1594.29 524.064L1560 442.467L1557.73 440.462Z" fill="#9C3CFB"/>
<path fill-rule="evenodd" clip-rule="evenodd" d="M1640.91 509.494L1627.59 504.186L1609.79 518.053L1594.29 524.064L1610.91 527.454L1640.91 509.494Z" fill="#6C1E90"/>
<path fill-rule="evenodd" clip-rule="evenodd" d="M824.972 560.673L835.682 534.938L866.121 545.159L836.767 583.818L824.972 560.673Z" fill="url(#paint31_linear_120_1306)"/>
<g style="mix-blend-mode:multiply" opacity="0.5">
<path fill-rule="evenodd" clip-rule="evenodd" d="M835.682 534.938L856.514 545.739L837.762 567.877L836.767 583.818L824.972 560.673L835.682 534.938Z" fill="#A359AA"/>
</g>
<g style="mix-blend-mode:screen" opacity="0.5">
<path fill-rule="evenodd" clip-rule="evenodd" d="M856.515 545.739L866.122 545.159L836.768 583.818L837.763 567.877L856.515 545.739Z" fill="#D7B2FF"/>
</g>
<path fill-rule="evenodd" clip-rule="evenodd" d="M835.682 534.938L856.514 545.739L866.121 545.16L835.682 534.938Z" fill="#9C3CFB"/>
<defs>
<linearGradient id="paint0_linear_120_1306" x1="1218.66" y1="153.168" x2="1229.11" y2="129.35" gradientUnits="userSpaceOnUse">
<stop stop-color="#3B1B36"/>
<stop offset="1" stop-color="#311134"/>
</linearGradient>
<linearGradient id="paint1_linear_120_1306" x1="1518.48" y1="492.908" x2="1501.36" y2="466.075" gradientUnits="userSpaceOnUse">
<stop stop-color="#5C214A"/>
<stop offset="1" stop-color="#4F1D4F"/>
</linearGradient>
<linearGradient id="paint2_linear_120_1306" x1="1098.28" y1="751.045" x2="1113.25" y2="741.492" gradientUnits="userSpaceOnUse">
<stop stop-color="#5C214A"/>
<stop offset="1" stop-color="#4F1D4F"/>
</linearGradient>
<linearGradient id="paint3_linear_120_1306" x1="1108.38" y1="720.708" x2="1123.46" y2="711.091" gradientUnits="userSpaceOnUse">
<stop stop-color="#5C214A"/>
<stop offset="1" stop-color="#4F1D4F"/>
</linearGradient>
<linearGradient id="paint4_linear_120_1306" x1="958.713" y1="697.09" x2="969.789" y2="694.27" gradientUnits="userSpaceOnUse">
<stop stop-color="#5C214A"/>
<stop offset="1" stop-color="#4F1D4F"/>
</linearGradient>
<linearGradient id="paint5_linear_120_1306" x1="933.299" y1="717.949" x2="952.968" y2="712.942" gradientUnits="userSpaceOnUse">
<stop stop-color="#5C214A"/>
<stop offset="1" stop-color="#4F1D4F"/>
</linearGradient>
<linearGradient id="paint6_linear_120_1306" x1="987.224" y1="795.594" x2="998.045" y2="788.691" gradientUnits="userSpaceOnUse">
<stop stop-color="#5C214A"/>
<stop offset="1" stop-color="#4F1D4F"/>
</linearGradient>
<linearGradient id="paint7_linear_120_1306" x1="533.344" y1="873.277" x2="567.329" y2="851.599" gradientUnits="userSpaceOnUse">
<stop stop-color="#5C214A"/>
<stop offset="1" stop-color="#4F1D4F"/>
</linearGradient>
<linearGradient id="paint8_linear_120_1306" x1="564.361" y1="883.883" x2="573.815" y2="877.852" gradientUnits="userSpaceOnUse">
<stop stop-color="#5C214A"/>
<stop offset="1" stop-color="#4F1D4F"/>
</linearGradient>
<linearGradient id="paint9_linear_120_1306" x1="1465.69" y1="251.117" x2="1481.56" y2="240.994" gradientUnits="userSpaceOnUse">
<stop stop-color="#5C214A"/>
<stop offset="1" stop-color="#4F1D4F"/>
</linearGradient>
<linearGradient id="paint10_linear_120_1306" x1="965.388" y1="554.999" x2="974.809" y2="548.99" gradientUnits="userSpaceOnUse">
<stop stop-color="#5C214A"/>
<stop offset="1" stop-color="#4F1D4F"/>
</linearGradient>
<linearGradient id="paint11_linear_120_1306" x1="952.269" y1="525.086" x2="958.718" y2="520.972" gradientUnits="userSpaceOnUse">
<stop stop-color="#5C214A"/>
<stop offset="1" stop-color="#4F1D4F"/>
</linearGradient>
<linearGradient id="paint12_linear_120_1306" x1="957.885" y1="581.03" x2="972.336" y2="571.811" gradientUnits="userSpaceOnUse">
<stop stop-color="#5C214A"/>
<stop offset="1" stop-color="#4F1D4F"/>
</linearGradient>
<linearGradient id="paint13_linear_120_1306" x1="955.837" y1="599.566" x2="962.523" y2="595.302" gradientUnits="userSpaceOnUse">
<stop stop-color="#5C214A"/>
<stop offset="1" stop-color="#4F1D4F"/>
</linearGradient>
<linearGradient id="paint14_linear_120_1306" x1="1465.05" y1="541.245" x2="1465.09" y2="516.449" gradientUnits="userSpaceOnUse">
<stop stop-color="#5C214A"/>
<stop offset="1" stop-color="#4F1D4F"/>
</linearGradient>
<linearGradient id="paint15_linear_120_1306" x1="930.656" y1="554.988" x2="946.711" y2="544.747" gradientUnits="userSpaceOnUse">
<stop stop-color="#5C214A"/>
<stop offset="1" stop-color="#4F1D4F"/>
</linearGradient>
<linearGradient id="paint16_linear_120_1306" x1="933.007" y1="657.938" x2="977.233" y2="646.681" gradientUnits="userSpaceOnUse">
<stop stop-color="#5C214A"/>
<stop offset="1" stop-color="#4F1D4F"/>
</linearGradient>
<linearGradient id="paint17_linear_120_1306" x1="1488.36" y1="264.543" x2="1511.46" y2="258.663" gradientUnits="userSpaceOnUse">
<stop stop-color="#5C214A"/>
<stop offset="1" stop-color="#4F1D4F"/>
</linearGradient>
<linearGradient id="paint18_linear_120_1306" x1="1435.38" y1="308.023" x2="1476.4" y2="297.583" gradientUnits="userSpaceOnUse">
<stop stop-color="#5C214A"/>
<stop offset="1" stop-color="#4F1D4F"/>
</linearGradient>
<linearGradient id="paint19_linear_120_1306" x1="1649.24" y1="-11.7627" x2="1670.12" y2="-49.8008" gradientUnits="userSpaceOnUse">
<stop stop-color="#5C214A"/>
<stop offset="1" stop-color="#4F1D4F"/>
</linearGradient>
<linearGradient id="paint20_linear_120_1306" x1="1642.13" y1="32.6726" x2="1652.8" y2="25.8664" gradientUnits="userSpaceOnUse">
<stop stop-color="#5C214A"/>
<stop offset="1" stop-color="#4F1D4F"/>
</linearGradient>
<linearGradient id="paint21_linear_120_1306" x1="1649.33" y1="11.1057" x2="1660.06" y2="4.25635" gradientUnits="userSpaceOnUse">
<stop stop-color="#5C214A"/>
<stop offset="1" stop-color="#4F1D4F"/>
</linearGradient>
<linearGradient id="paint22_linear_120_1306" x1="399.367" y1="1057.13" x2="408.805" y2="1051.11" gradientUnits="userSpaceOnUse">
<stop stop-color="#5C214A"/>
<stop offset="1" stop-color="#4F1D4F"/>
</linearGradient>
<linearGradient id="paint23_linear_120_1306" x1="334.961" y1="1067.28" x2="350.696" y2="1027.42" gradientUnits="userSpaceOnUse">
<stop stop-color="#5C214A"/>
<stop offset="1" stop-color="#4F1D4F"/>
</linearGradient>
<linearGradient id="paint24_linear_120_1306" x1="611.878" y1="763.071" x2="621.299" y2="757.061" gradientUnits="userSpaceOnUse">
<stop stop-color="#5C214A"/>
<stop offset="1" stop-color="#4F1D4F"/>
</linearGradient>
<linearGradient id="paint25_linear_120_1306" x1="760.981" y1="630.711" x2="767.414" y2="626.608" gradientUnits="userSpaceOnUse">
<stop stop-color="#5C214A"/>
<stop offset="1" stop-color="#4F1D4F"/>
</linearGradient>
<linearGradient id="paint26_linear_120_1306" x1="604.374" y1="789.102" x2="618.826" y2="779.884" gradientUnits="userSpaceOnUse">
<stop stop-color="#5C214A"/>
<stop offset="1" stop-color="#4F1D4F"/>
</linearGradient>
<linearGradient id="paint27_linear_120_1306" x1="602.327" y1="807.639" x2="609.013" y2="803.374" gradientUnits="userSpaceOnUse">
<stop stop-color="#5C214A"/>
<stop offset="1" stop-color="#4F1D4F"/>
</linearGradient>
<linearGradient id="paint28_linear_120_1306" x1="577.146" y1="763.061" x2="593.201" y2="752.819" gradientUnits="userSpaceOnUse">
<stop stop-color="#5C214A"/>
<stop offset="1" stop-color="#4F1D4F"/>
</linearGradient>
<linearGradient id="paint29_linear_120_1306" x1="238.432" y1="1058.99" x2="232.904" y2="1069.24" gradientUnits="userSpaceOnUse">
<stop stop-color="#5C214A"/>
<stop offset="1" stop-color="#4F1D4F"/>
</linearGradient>
<linearGradient id="paint30_linear_120_1306" x1="1639.54" y1="510.367" x2="1578.79" y2="415.124" gradientUnits="userSpaceOnUse">
<stop stop-color="#520C36"/>
<stop offset="1" stop-color="#431135"/>
</linearGradient>
<linearGradient id="paint31_linear_120_1306" x1="838.155" y1="584.456" x2="855.823" y2="541.029" gradientUnits="userSpaceOnUse">
<stop stop-color="#520C36"/>
<stop offset="1" stop-color="#431135"/>
</linearGradient>
</defs>
</svg>
