<svg width="377" height="377" viewBox="0 0 377 377" fill="none" xmlns="http://www.w3.org/2000/svg">
<g filter="url(#filter0_f_614_150)">
<circle cx="188.5" cy="188.5" r="88.5" fill="#6A1DAC"/>
</g>
<g filter="url(#filter1_f_614_150)">
<path fill-rule="evenodd" clip-rule="evenodd" d="M122.139 196.876C117.858 177.086 129.816 155.832 151.642 151.11C172.98 146.494 192.918 160.495 197.248 180.51C202.27 203.724 186.453 222.229 167.82 226.26C161.659 227.593 154.464 227.417 148.279 225.367C146.111 224.616 144.308 224.1 142.388 225.224L135.288 229.123C133.503 230.139 131.449 229.008 131.573 226.855L132.267 217.882C132.428 216.627 132.084 215.401 131.271 214.553C126.755 209.308 123.506 203.197 122.139 196.876ZM154.821 189.807C155.399 192.478 158.004 194.159 160.679 193.62C163.347 193.043 165.016 190.397 164.446 187.764C163.868 185.093 161.263 183.411 158.596 183.988C155.958 184.519 154.251 187.173 154.821 189.807ZM172.145 186.098C172.715 188.732 175.328 190.451 177.995 189.874C180.663 189.297 182.332 186.652 181.762 184.018C181.184 181.347 178.579 179.665 175.912 180.242C173.245 180.819 171.567 183.427 172.145 186.098ZM143.361 197.366C140.732 197.935 138.081 196.224 137.511 193.59C136.933 190.919 138.611 188.311 141.278 187.734C143.945 187.157 146.55 188.839 147.128 191.51C147.698 194.144 146.021 196.751 143.361 197.366Z" fill="url(#paint0_linear_614_150)"/>
<g filter="url(#filter2_biiii_614_150)">
<path fill-rule="evenodd" clip-rule="evenodd" d="M122.139 196.876C117.858 177.086 129.816 155.832 151.642 151.11C172.98 146.494 192.918 160.495 197.248 180.51C202.27 203.724 186.453 222.229 167.82 226.26C161.659 227.593 154.464 227.417 148.279 225.367C146.111 224.616 144.308 224.1 142.388 225.224L135.288 229.123C133.503 230.139 131.449 229.008 131.573 226.855L132.267 217.882C132.428 216.627 132.084 215.401 131.271 214.553C126.755 209.308 123.506 203.197 122.139 196.876ZM154.821 189.807C155.399 192.478 158.004 194.159 160.679 193.62C163.347 193.043 165.016 190.397 164.446 187.764C163.868 185.093 161.263 183.411 158.596 183.988C155.958 184.519 154.251 187.173 154.821 189.807ZM172.145 186.098C172.715 188.732 175.328 190.451 177.995 189.874C180.663 189.297 182.332 186.652 181.762 184.018C181.184 181.347 178.579 179.665 175.912 180.242C173.245 180.819 171.567 183.427 172.145 186.098ZM143.361 197.366C140.732 197.935 138.081 196.224 137.511 193.59C136.933 190.919 138.611 188.311 141.278 187.734C143.945 187.157 146.55 188.839 147.128 191.51C147.698 194.144 146.021 196.751 143.361 197.366Z" fill="#FAF5FF" fill-opacity="0.088"/>
</g>
</g>
<g filter="url(#filter3_d_614_150)">
<path fill-rule="evenodd" clip-rule="evenodd" d="M155.976 148.818C163.876 123.14 191.518 106.314 219.838 115.028C247.526 123.547 261.501 152.696 253.511 178.667C244.243 208.788 213.923 219.927 189.745 212.488C181.751 210.028 173.54 205.15 167.715 198.762C165.695 196.484 163.944 194.716 160.993 194.77L150.245 194.67C147.519 194.686 145.878 192.043 147.42 189.632L154.05 179.702C155.052 178.353 155.45 176.712 155.061 175.203C153.242 166.2 153.452 157.02 155.976 148.818ZM198.382 161.866C197.316 165.332 199.238 168.97 202.684 170.083C206.145 171.148 209.794 169.172 210.846 165.754C211.912 162.288 209.99 158.651 206.529 157.586C203.132 156.487 199.434 158.449 198.382 161.866ZM220.836 168.828C219.784 172.245 221.691 175.931 225.152 176.996C228.613 178.061 232.263 176.085 233.314 172.667C234.381 169.201 232.458 165.564 228.998 164.499C225.537 163.434 221.902 165.362 220.836 168.828ZM180.213 163.17C176.801 162.12 174.845 158.418 175.896 155.001C176.963 151.535 180.598 149.607 184.058 150.672C187.519 151.737 189.442 155.374 188.375 158.841C187.324 162.258 183.689 164.186 180.213 163.17Z" fill="url(#paint1_linear_614_150)"/>
<g filter="url(#filter4_biiii_614_150)">
<path fill-rule="evenodd" clip-rule="evenodd" d="M155.976 148.818C163.876 123.14 191.518 106.314 219.838 115.028C247.526 123.547 261.501 152.696 253.511 178.667C244.243 208.788 213.923 219.927 189.745 212.488C181.751 210.028 173.54 205.15 167.715 198.762C165.695 196.484 163.944 194.716 160.993 194.77L150.245 194.67C147.519 194.686 145.878 192.043 147.42 189.632L154.05 179.702C155.052 178.353 155.45 176.712 155.061 175.203C153.242 166.2 153.452 157.02 155.976 148.818ZM198.382 161.866C197.316 165.332 199.238 168.97 202.684 170.083C206.145 171.148 209.794 169.172 210.846 165.754C211.912 162.288 209.99 158.651 206.529 157.586C203.132 156.487 199.434 158.449 198.382 161.866ZM220.836 168.828C219.784 172.245 221.691 175.931 225.152 176.996C228.613 178.061 232.263 176.085 233.314 172.667C234.381 169.201 232.458 165.564 228.998 164.499C225.537 163.434 221.902 165.362 220.836 168.828ZM180.213 163.17C176.801 162.12 174.845 158.418 175.896 155.001C176.963 151.535 180.598 149.607 184.058 150.672C187.519 151.737 189.442 155.374 188.375 158.841C187.324 162.258 183.689 164.186 180.213 163.17Z" fill="#FAF5FF" fill-opacity="0.088"/>
</g>
</g>
<defs>
<filter id="filter0_f_614_150" x="0" y="0" width="377" height="377" filterUnits="userSpaceOnUse" color-interpolation-filters="sRGB">
<feFlood flood-opacity="0" result="BackgroundImageFix"/>
<feBlend mode="normal" in="SourceGraphic" in2="BackgroundImageFix" result="shape"/>
<feGaussianBlur stdDeviation="50" result="effect1_foregroundBlur_614_150"/>
</filter>
<filter id="filter1_f_614_150" x="114.277" y="143.226" width="90.9128" height="93.2739" filterUnits="userSpaceOnUse" color-interpolation-filters="sRGB">
<feFlood flood-opacity="0" result="BackgroundImageFix"/>
<feBlend mode="normal" in="SourceGraphic" in2="BackgroundImageFix" result="shape"/>
<feGaussianBlur stdDeviation="3.5" result="effect1_foregroundBlur_614_150"/>
</filter>
<filter id="filter2_biiii_614_150" x="102.877" y="131.826" width="113.713" height="116.074" filterUnits="userSpaceOnUse" color-interpolation-filters="sRGB">
<feFlood flood-opacity="0" result="BackgroundImageFix"/>
<feGaussianBlur in="BackgroundImage" stdDeviation="9.2"/>
<feComposite in2="SourceAlpha" operator="in" result="effect1_backgroundBlur_614_150"/>
<feBlend mode="normal" in="SourceGraphic" in2="effect1_backgroundBlur_614_150" result="shape"/>
<feColorMatrix in="SourceAlpha" type="matrix" values="0 0 0 0 0 0 0 0 0 0 0 0 0 0 0 0 0 0 127 0" result="hardAlpha"/>
<feOffset dx="-2.45333" dy="2.45333"/>
<feGaussianBlur stdDeviation="1.22667"/>
<feComposite in2="hardAlpha" operator="arithmetic" k2="-1" k3="1"/>
<feColorMatrix type="matrix" values="0 0 0 0 0.784314 0 0 0 0 0.768627 0 0 0 0 0.8 0 0 0 0.376 0"/>
<feBlend mode="normal" in2="shape" result="effect2_innerShadow_614_150"/>
<feColorMatrix in="SourceAlpha" type="matrix" values="0 0 0 0 0 0 0 0 0 0 0 0 0 0 0 0 0 0 127 0" result="hardAlpha"/>
<feOffset dx="-1.22667" dy="1.22667"/>
<feGaussianBlur stdDeviation="0.613333"/>
<feComposite in2="hardAlpha" operator="arithmetic" k2="-1" k3="1"/>
<feColorMatrix type="matrix" values="0 0 0 0 1 0 0 0 0 1 0 0 0 0 1 0 0 0 0.376 0"/>
<feBlend mode="normal" in2="effect2_innerShadow_614_150" result="effect3_innerShadow_614_150"/>
<feColorMatrix in="SourceAlpha" type="matrix" values="0 0 0 0 0 0 0 0 0 0 0 0 0 0 0 0 0 0 127 0" result="hardAlpha"/>
<feOffset dx="2.45333" dy="-2.45333"/>
<feGaussianBlur stdDeviation="1.22667"/>
<feComposite in2="hardAlpha" operator="arithmetic" k2="-1" k3="1"/>
<feColorMatrix type="matrix" values="0 0 0 0 1 0 0 0 0 1 0 0 0 0 1 0 0 0 0.376 0"/>
<feBlend mode="normal" in2="effect3_innerShadow_614_150" result="effect4_innerShadow_614_150"/>
<feColorMatrix in="SourceAlpha" type="matrix" values="0 0 0 0 0 0 0 0 0 0 0 0 0 0 0 0 0 0 127 0" result="hardAlpha"/>
<feOffset dx="1.22667" dy="-1.22667"/>
<feGaussianBlur stdDeviation="0.613333"/>
<feComposite in2="hardAlpha" operator="arithmetic" k2="-1" k3="1"/>
<feColorMatrix type="matrix" values="0 0 0 0 0.784314 0 0 0 0 0.768627 0 0 0 0 0.8 0 0 0 0.376 0"/>
<feBlend mode="normal" in2="effect4_innerShadow_614_150" result="effect5_innerShadow_614_150"/>
</filter>
<filter id="filter3_d_614_150" x="104.826" y="73.7075" width="204.917" height="198.011" filterUnits="userSpaceOnUse" color-interpolation-filters="sRGB">
<feFlood flood-opacity="0" result="BackgroundImageFix"/>
<feColorMatrix in="SourceAlpha" type="matrix" values="0 0 0 0 0 0 0 0 0 0 0 0 0 0 0 0 0 0 127 0" result="hardAlpha"/>
<feOffset dx="6" dy="9"/>
<feGaussianBlur stdDeviation="24"/>
<feComposite in2="hardAlpha" operator="out"/>
<feColorMatrix type="matrix" values="0 0 0 0 0.325521 0 0 0 0 0.173177 0 0 0 0 0.395833 0 0 0 1 0"/>
<feBlend mode="normal" in2="BackgroundImageFix" result="effect1_dropShadow_614_150"/>
<feBlend mode="normal" in="SourceGraphic" in2="effect1_dropShadow_614_150" result="shape"/>
</filter>
<filter id="filter4_biiii_614_150" x="128.426" y="94.3075" width="145.717" height="138.811" filterUnits="userSpaceOnUse" color-interpolation-filters="sRGB">
<feFlood flood-opacity="0" result="BackgroundImageFix"/>
<feGaussianBlur in="BackgroundImage" stdDeviation="9.2"/>
<feComposite in2="SourceAlpha" operator="in" result="effect1_backgroundBlur_614_150"/>
<feBlend mode="normal" in="SourceGraphic" in2="effect1_backgroundBlur_614_150" result="shape"/>
<feColorMatrix in="SourceAlpha" type="matrix" values="0 0 0 0 0 0 0 0 0 0 0 0 0 0 0 0 0 0 127 0" result="hardAlpha"/>
<feOffset dx="-2.45333" dy="2.45333"/>
<feGaussianBlur stdDeviation="1.22667"/>
<feComposite in2="hardAlpha" operator="arithmetic" k2="-1" k3="1"/>
<feColorMatrix type="matrix" values="0 0 0 0 0.784314 0 0 0 0 0.768627 0 0 0 0 0.8 0 0 0 0.376 0"/>
<feBlend mode="normal" in2="shape" result="effect2_innerShadow_614_150"/>
<feColorMatrix in="SourceAlpha" type="matrix" values="0 0 0 0 0 0 0 0 0 0 0 0 0 0 0 0 0 0 127 0" result="hardAlpha"/>
<feOffset dx="-1.22667" dy="1.22667"/>
<feGaussianBlur stdDeviation="0.613333"/>
<feComposite in2="hardAlpha" operator="arithmetic" k2="-1" k3="1"/>
<feColorMatrix type="matrix" values="0 0 0 0 1 0 0 0 0 1 0 0 0 0 1 0 0 0 0.376 0"/>
<feBlend mode="normal" in2="effect2_innerShadow_614_150" result="effect3_innerShadow_614_150"/>
<feColorMatrix in="SourceAlpha" type="matrix" values="0 0 0 0 0 0 0 0 0 0 0 0 0 0 0 0 0 0 127 0" result="hardAlpha"/>
<feOffset dx="2.45333" dy="-2.45333"/>
<feGaussianBlur stdDeviation="1.22667"/>
<feComposite in2="hardAlpha" operator="arithmetic" k2="-1" k3="1"/>
<feColorMatrix type="matrix" values="0 0 0 0 1 0 0 0 0 1 0 0 0 0 1 0 0 0 0.376 0"/>
<feBlend mode="normal" in2="effect3_innerShadow_614_150" result="effect4_innerShadow_614_150"/>
<feColorMatrix in="SourceAlpha" type="matrix" values="0 0 0 0 0 0 0 0 0 0 0 0 0 0 0 0 0 0 127 0" result="hardAlpha"/>
<feOffset dx="1.22667" dy="-1.22667"/>
<feGaussianBlur stdDeviation="0.613333"/>
<feComposite in2="hardAlpha" operator="arithmetic" k2="-1" k3="1"/>
<feColorMatrix type="matrix" values="0 0 0 0 0.784314 0 0 0 0 0.768627 0 0 0 0 0.8 0 0 0 0.376 0"/>
<feBlend mode="normal" in2="effect4_innerShadow_614_150" result="effect5_innerShadow_614_150"/>
</filter>
<linearGradient id="paint0_linear_614_150" x1="125.752" y1="206.761" x2="197.876" y2="191.14" gradientUnits="userSpaceOnUse">
<stop stop-color="#BF81FF"/>
<stop offset="0.515625" stop-color="#D17558"/>
<stop offset="1" stop-color="#F84FE7"/>
</linearGradient>
<linearGradient id="paint1_linear_614_150" x1="153.736" y1="162.601" x2="247.333" y2="191.374" gradientUnits="userSpaceOnUse">
<stop stop-color="#BF81FF"/>
<stop offset="0.515625" stop-color="#D17558"/>
<stop offset="1" stop-color="#F84FE7"/>
</linearGradient>
</defs>
</svg>
