<svg width="377" height="377" viewBox="0 0 377 377" fill="none" xmlns="http://www.w3.org/2000/svg">
<g filter="url(#filter0_f_614_956)">
<circle cx="188.5" cy="188.5" r="88.5" fill="#6A1DAC"/>
</g>
<g filter="url(#filter1_f_614_956)">
<path d="M193.994 187.019C192.162 187.829 190.718 189.322 189.969 191.181L186.554 191.016C185.524 182.51 177.802 176.443 169.308 177.464C166.201 177.837 163.281 179.144 160.933 181.213L157.984 178.973C159.34 174.926 157.16 170.54 153.116 169.178C149.072 167.816 144.694 169.992 143.339 174.04C141.984 178.087 144.163 182.472 148.208 183.835C150.042 184.453 152.041 184.359 153.808 183.572C154.143 183.412 154.467 183.229 154.776 183.023L157.699 185.245C153.568 192.538 156.013 201.807 163.206 206.119L159.251 215.782C154.878 215.757 151.317 219.286 151.298 223.665C151.279 228.044 154.809 231.614 159.183 231.639C163.556 231.664 167.117 228.134 167.136 223.755C167.147 221.315 166.035 219.005 164.122 217.491L167.996 208.019C176.318 209.807 184.503 204.508 186.285 196.181L189.746 196.348C189.827 196.653 189.927 196.952 190.046 197.245C191.777 201.164 196.353 202.939 200.265 201.211C204.177 199.482 205.945 194.904 204.213 190.985C202.481 187.066 197.906 185.291 193.994 187.019Z" fill="url(#paint0_linear_614_956)"/>
<g filter="url(#filter2_biiii_614_956)">
<path d="M193.994 187.019C192.162 187.829 190.718 189.322 189.969 191.181L186.554 191.016C185.524 182.51 177.802 176.443 169.308 177.464C166.201 177.837 163.281 179.144 160.933 181.213L157.984 178.973C159.34 174.926 157.16 170.54 153.116 169.178C149.072 167.816 144.694 169.992 143.339 174.04C141.984 178.087 144.163 182.472 148.208 183.835C150.042 184.453 152.041 184.359 153.808 183.572C154.143 183.412 154.467 183.229 154.776 183.023L157.699 185.245C153.568 192.538 156.013 201.807 163.206 206.119L159.251 215.782C154.878 215.757 151.317 219.286 151.298 223.665C151.279 228.044 154.809 231.614 159.183 231.639C163.556 231.664 167.117 228.134 167.136 223.755C167.147 221.315 166.035 219.005 164.122 217.491L167.996 208.019C176.318 209.807 184.503 204.508 186.285 196.181L189.746 196.348C189.827 196.653 189.927 196.952 190.046 197.245C191.777 201.164 196.353 202.939 200.265 201.211C204.177 199.482 205.945 194.904 204.213 190.985C202.481 187.066 197.906 185.291 193.994 187.019Z" fill="#FAF5FF" fill-opacity="0.106"/>
</g>
</g>
<g filter="url(#filter3_d_614_956)">
<path d="M237.61 195.808C234.259 194.543 230.547 194.635 227.259 196.064L223.114 191.571C232.469 179.437 230.237 162.019 218.13 152.666C213.702 149.245 208.34 147.248 202.753 146.939L201.804 140.386C208.608 136.927 211.33 128.604 207.884 121.795C204.438 114.986 196.129 112.27 189.324 115.728C182.52 119.187 179.798 127.511 183.244 134.32C184.808 137.409 187.473 139.796 190.712 141.009C191.34 141.226 191.982 141.398 192.635 141.523L193.574 148.023C179.16 152.136 170.651 167.017 174.411 181.535L157.251 188.892C151.707 183.375 142.741 183.407 137.224 188.965C131.708 194.522 131.729 203.5 137.273 209.018C142.817 214.535 151.783 214.503 157.3 208.945C160.373 205.849 161.854 201.509 161.314 197.18L178.133 189.966C186.497 202.682 203.577 206.196 216.293 197.817L220.494 202.37C220.215 202.861 219.968 203.368 219.752 203.889C217.044 211.057 220.648 219.059 227.803 221.762C234.957 224.466 242.952 220.848 245.661 213.681C248.369 206.514 244.765 198.512 237.61 195.808Z" fill="url(#paint1_linear_614_956)"/>
<g filter="url(#filter4_biiii_614_956)">
<path d="M237.61 195.808C234.259 194.543 230.547 194.635 227.259 196.064L223.114 191.571C232.469 179.437 230.237 162.019 218.13 152.666C213.702 149.245 208.34 147.248 202.753 146.939L201.804 140.386C208.608 136.927 211.33 128.604 207.884 121.795C204.438 114.986 196.129 112.27 189.324 115.728C182.52 119.187 179.798 127.511 183.244 134.32C184.808 137.409 187.473 139.796 190.712 141.009C191.34 141.226 191.982 141.398 192.635 141.523L193.574 148.023C179.16 152.136 170.651 167.017 174.411 181.535L157.251 188.892C151.707 183.375 142.741 183.407 137.224 188.965C131.708 194.522 131.729 203.5 137.273 209.018C142.817 214.535 151.783 214.503 157.3 208.945C160.373 205.849 161.854 201.509 161.314 197.18L178.133 189.966C186.497 202.682 203.577 206.196 216.293 197.817L220.494 202.37C220.215 202.861 219.968 203.368 219.752 203.889C217.044 211.057 220.648 219.059 227.803 221.762C234.957 224.466 242.952 220.848 245.661 213.681C248.369 206.514 244.765 198.512 237.61 195.808Z" fill="#FAF5FF" fill-opacity="0.106"/>
</g>
</g>
<defs>
<filter id="filter0_f_614_956" x="0" y="0" width="377" height="377" filterUnits="userSpaceOnUse" color-interpolation-filters="sRGB">
<feFlood flood-opacity="0" result="BackgroundImageFix"/>
<feBlend mode="normal" in="SourceGraphic" in2="BackgroundImageFix" result="shape"/>
<feGaussianBlur stdDeviation="50" result="effect1_foregroundBlur_614_956"/>
</filter>
<filter id="filter1_f_614_956" x="135.937" y="161.772" width="75.9412" height="76.8669" filterUnits="userSpaceOnUse" color-interpolation-filters="sRGB">
<feFlood flood-opacity="0" result="BackgroundImageFix"/>
<feBlend mode="normal" in="SourceGraphic" in2="BackgroundImageFix" result="shape"/>
<feGaussianBlur stdDeviation="3.5" result="effect1_foregroundBlur_614_956"/>
</filter>
<filter id="filter2_biiii_614_956" x="140.537" y="166.372" width="66.7412" height="67.6669" filterUnits="userSpaceOnUse" color-interpolation-filters="sRGB">
<feFlood flood-opacity="0" result="BackgroundImageFix"/>
<feGaussianBlur in="BackgroundImage" stdDeviation="0.06"/>
<feComposite in2="SourceAlpha" operator="in" result="effect1_backgroundBlur_614_956"/>
<feBlend mode="normal" in="SourceGraphic" in2="effect1_backgroundBlur_614_956" result="shape"/>
<feColorMatrix in="SourceAlpha" type="matrix" values="0 0 0 0 0 0 0 0 0 0 0 0 0 0 0 0 0 0 127 0" result="hardAlpha"/>
<feOffset dx="-2.4" dy="2.4"/>
<feGaussianBlur stdDeviation="1.2"/>
<feComposite in2="hardAlpha" operator="arithmetic" k2="-1" k3="1"/>
<feColorMatrix type="matrix" values="0 0 0 0 0.784314 0 0 0 0 0.768627 0 0 0 0 0.8 0 0 0 0.412 0"/>
<feBlend mode="normal" in2="shape" result="effect2_innerShadow_614_956"/>
<feColorMatrix in="SourceAlpha" type="matrix" values="0 0 0 0 0 0 0 0 0 0 0 0 0 0 0 0 0 0 127 0" result="hardAlpha"/>
<feOffset dx="-1.2" dy="1.2"/>
<feGaussianBlur stdDeviation="0.6"/>
<feComposite in2="hardAlpha" operator="arithmetic" k2="-1" k3="1"/>
<feColorMatrix type="matrix" values="0 0 0 0 1 0 0 0 0 1 0 0 0 0 1 0 0 0 0.412 0"/>
<feBlend mode="normal" in2="effect2_innerShadow_614_956" result="effect3_innerShadow_614_956"/>
<feColorMatrix in="SourceAlpha" type="matrix" values="0 0 0 0 0 0 0 0 0 0 0 0 0 0 0 0 0 0 127 0" result="hardAlpha"/>
<feOffset dx="2.4" dy="-2.4"/>
<feGaussianBlur stdDeviation="1.2"/>
<feComposite in2="hardAlpha" operator="arithmetic" k2="-1" k3="1"/>
<feColorMatrix type="matrix" values="0 0 0 0 1 0 0 0 0 1 0 0 0 0 1 0 0 0 0.412 0"/>
<feBlend mode="normal" in2="effect3_innerShadow_614_956" result="effect4_innerShadow_614_956"/>
<feColorMatrix in="SourceAlpha" type="matrix" values="0 0 0 0 0 0 0 0 0 0 0 0 0 0 0 0 0 0 127 0" result="hardAlpha"/>
<feOffset dx="1.2" dy="-1.2"/>
<feGaussianBlur stdDeviation="0.6"/>
<feComposite in2="hardAlpha" operator="arithmetic" k2="-1" k3="1"/>
<feColorMatrix type="matrix" values="0 0 0 0 0.784314 0 0 0 0 0.768627 0 0 0 0 0.8 0 0 0 0.412 0"/>
<feBlend mode="normal" in2="effect4_innerShadow_614_956" result="effect5_innerShadow_614_956"/>
</filter>
<filter id="filter3_d_614_956" x="91.1011" y="75.2261" width="209.46" height="204.433" filterUnits="userSpaceOnUse" color-interpolation-filters="sRGB">
<feFlood flood-opacity="0" result="BackgroundImageFix"/>
<feColorMatrix in="SourceAlpha" type="matrix" values="0 0 0 0 0 0 0 0 0 0 0 0 0 0 0 0 0 0 127 0" result="hardAlpha"/>
<feOffset dx="6" dy="9"/>
<feGaussianBlur stdDeviation="24"/>
<feComposite in2="hardAlpha" operator="out"/>
<feColorMatrix type="matrix" values="0 0 0 0 0.325521 0 0 0 0 0.173177 0 0 0 0 0.395833 0 0 0 1 0"/>
<feBlend mode="normal" in2="BackgroundImageFix" result="effect1_dropShadow_614_956"/>
<feBlend mode="normal" in="SourceGraphic" in2="effect1_dropShadow_614_956" result="shape"/>
</filter>
<filter id="filter4_biiii_614_956" x="130.701" y="111.826" width="118.26" height="113.233" filterUnits="userSpaceOnUse" color-interpolation-filters="sRGB">
<feFlood flood-opacity="0" result="BackgroundImageFix"/>
<feGaussianBlur in="BackgroundImage" stdDeviation="0.06"/>
<feComposite in2="SourceAlpha" operator="in" result="effect1_backgroundBlur_614_956"/>
<feBlend mode="normal" in="SourceGraphic" in2="effect1_backgroundBlur_614_956" result="shape"/>
<feColorMatrix in="SourceAlpha" type="matrix" values="0 0 0 0 0 0 0 0 0 0 0 0 0 0 0 0 0 0 127 0" result="hardAlpha"/>
<feOffset dx="-2.4" dy="2.4"/>
<feGaussianBlur stdDeviation="1.2"/>
<feComposite in2="hardAlpha" operator="arithmetic" k2="-1" k3="1"/>
<feColorMatrix type="matrix" values="0 0 0 0 0.784314 0 0 0 0 0.768627 0 0 0 0 0.8 0 0 0 0.412 0"/>
<feBlend mode="normal" in2="shape" result="effect2_innerShadow_614_956"/>
<feColorMatrix in="SourceAlpha" type="matrix" values="0 0 0 0 0 0 0 0 0 0 0 0 0 0 0 0 0 0 127 0" result="hardAlpha"/>
<feOffset dx="-1.2" dy="1.2"/>
<feGaussianBlur stdDeviation="0.6"/>
<feComposite in2="hardAlpha" operator="arithmetic" k2="-1" k3="1"/>
<feColorMatrix type="matrix" values="0 0 0 0 1 0 0 0 0 1 0 0 0 0 1 0 0 0 0.412 0"/>
<feBlend mode="normal" in2="effect2_innerShadow_614_956" result="effect3_innerShadow_614_956"/>
<feColorMatrix in="SourceAlpha" type="matrix" values="0 0 0 0 0 0 0 0 0 0 0 0 0 0 0 0 0 0 127 0" result="hardAlpha"/>
<feOffset dx="2.4" dy="-2.4"/>
<feGaussianBlur stdDeviation="1.2"/>
<feComposite in2="hardAlpha" operator="arithmetic" k2="-1" k3="1"/>
<feColorMatrix type="matrix" values="0 0 0 0 1 0 0 0 0 1 0 0 0 0 1 0 0 0 0.412 0"/>
<feBlend mode="normal" in2="effect3_innerShadow_614_956" result="effect4_innerShadow_614_956"/>
<feColorMatrix in="SourceAlpha" type="matrix" values="0 0 0 0 0 0 0 0 0 0 0 0 0 0 0 0 0 0 127 0" result="hardAlpha"/>
<feOffset dx="1.2" dy="-1.2"/>
<feGaussianBlur stdDeviation="0.6"/>
<feComposite in2="hardAlpha" operator="arithmetic" k2="-1" k3="1"/>
<feColorMatrix type="matrix" values="0 0 0 0 0.784314 0 0 0 0 0.768627 0 0 0 0 0.8 0 0 0 0.412 0"/>
<feBlend mode="normal" in2="effect4_innerShadow_614_956" result="effect5_innerShadow_614_956"/>
</filter>
<linearGradient id="paint0_linear_614_956" x1="147.092" y1="212.972" x2="201.794" y2="188.786" gradientUnits="userSpaceOnUse">
<stop stop-color="#BF81FF"/>
<stop offset="0.515625" stop-color="#D17558"/>
<stop offset="1" stop-color="#F84FE7"/>
</linearGradient>
<linearGradient id="paint1_linear_614_956" x1="145.276" y1="170.06" x2="245.336" y2="207.843" gradientUnits="userSpaceOnUse">
<stop stop-color="#BF81FF"/>
<stop offset="0.515625" stop-color="#D17558"/>
<stop offset="1" stop-color="#F84FE7"/>
</linearGradient>
</defs>
</svg>
