<svg width="377" height="377" viewBox="0 0 377 377" fill="none" xmlns="http://www.w3.org/2000/svg">
<g filter="url(#filter0_f_614_970)">
<circle cx="188.5" cy="188.5" r="88.5" fill="#6A1DAC"/>
</g>
<g filter="url(#filter1_f_614_970)">
<path d="M190.948 205.805L191.326 205.943C192.186 206.262 193.112 206.359 194.02 206.224C194.927 206.089 195.785 205.726 196.515 205.171C197.237 204.632 197.811 203.92 198.186 203.102C198.561 202.283 198.724 201.383 198.66 200.485C198.35 196.082 197.184 191.782 195.227 187.826C191.29 180.1 184.594 174.133 176.466 171.111C168.339 168.088 159.372 168.23 151.343 171.507C147.121 173.29 143.301 175.905 140.11 179.195C136.92 182.486 134.425 186.385 132.774 190.661C131.123 194.936 130.35 199.5 130.5 204.081C130.651 208.662 131.723 213.166 133.651 217.324C137.469 225.531 144.386 231.888 152.884 235.002C161.383 238.115 170.77 237.731 178.986 233.932C179.858 233.528 180.689 233.074 181.507 232.606C182.128 232.252 182.593 231.677 182.809 230.996C183.025 230.314 182.977 229.576 182.674 228.929L178.297 219.707C177.427 217.886 177.12 215.848 177.414 213.852C177.708 211.857 178.59 209.994 179.948 208.502C181.306 207.01 183.078 205.956 185.037 205.476C186.996 204.996 189.054 205.11 190.948 205.805ZM172.881 186.743C173.53 186.203 174.325 185.868 175.164 185.78C176.003 185.692 176.85 185.854 177.597 186.248C178.344 186.641 178.957 187.246 179.36 187.988C179.763 188.73 179.937 189.574 179.859 190.415C179.782 191.255 179.457 192.054 178.926 192.71C178.395 193.366 177.682 193.849 176.876 194.1C176.07 194.35 175.207 194.356 174.398 194.116C173.589 193.876 172.869 193.402 172.329 192.753C171.971 192.322 171.701 191.825 171.534 191.29C171.368 190.755 171.309 190.192 171.36 189.634C171.411 189.075 171.572 188.533 171.833 188.037C172.094 187.541 172.45 187.101 172.881 186.743ZM159.712 220.761C159.063 221.301 158.269 221.636 157.43 221.724C156.59 221.812 155.744 221.649 154.997 221.256C154.25 220.863 153.636 220.257 153.234 219.516C152.831 218.774 152.657 217.929 152.734 217.089C152.812 216.249 153.136 215.45 153.667 214.794C154.199 214.138 154.912 213.654 155.718 213.404C156.524 213.154 157.386 213.148 158.196 213.388C159.005 213.627 159.725 214.101 160.265 214.75C160.623 215.181 160.893 215.678 161.059 216.214C161.226 216.749 161.285 217.312 161.234 217.87C161.182 218.428 161.022 218.971 160.761 219.467C160.5 219.963 160.143 220.403 159.712 220.761ZM152.531 205.275C151.882 205.815 151.087 206.15 150.248 206.238C149.409 206.326 148.562 206.163 147.815 205.77C147.068 205.377 146.455 204.771 146.052 204.03C145.649 203.288 145.476 202.443 145.553 201.603C145.63 200.763 145.955 199.964 146.486 199.308C147.017 198.652 147.73 198.168 148.536 197.918C149.342 197.668 150.205 197.662 151.014 197.902C151.823 198.141 152.543 198.615 153.083 199.264C153.441 199.695 153.711 200.192 153.878 200.728C154.044 201.263 154.103 201.826 154.052 202.384C154.001 202.942 153.84 203.485 153.579 203.981C153.318 204.477 152.962 204.917 152.531 205.275ZM161.844 191.547C161.195 192.087 160.401 192.422 159.562 192.51C158.722 192.598 157.876 192.435 157.129 192.042C156.382 191.649 155.768 191.044 155.366 190.302C154.963 189.56 154.789 188.716 154.867 187.875C154.944 187.035 155.268 186.236 155.8 185.58C156.331 184.924 157.044 184.441 157.85 184.19C158.656 183.94 159.518 183.934 160.328 184.174C161.137 184.414 161.857 184.888 162.397 185.537C162.755 185.968 163.025 186.465 163.192 187C163.358 187.535 163.417 188.098 163.366 188.656C163.314 189.215 163.154 189.757 162.893 190.253C162.632 190.749 162.275 191.189 161.844 191.547Z" fill="url(#paint0_linear_614_970)"/>
<g filter="url(#filter2_biiii_614_970)">
<path d="M190.948 205.805L191.326 205.943C192.186 206.262 193.112 206.359 194.02 206.224C194.927 206.089 195.785 205.726 196.515 205.171C197.237 204.632 197.811 203.92 198.186 203.102C198.561 202.283 198.724 201.383 198.66 200.485C198.35 196.082 197.184 191.782 195.227 187.826C191.29 180.1 184.594 174.133 176.466 171.111C168.339 168.088 159.372 168.23 151.343 171.507C147.121 173.29 143.301 175.905 140.11 179.195C136.92 182.486 134.425 186.385 132.774 190.661C131.123 194.936 130.35 199.5 130.5 204.081C130.651 208.662 131.723 213.166 133.651 217.324C137.469 225.531 144.386 231.888 152.884 235.002C161.383 238.115 170.77 237.731 178.986 233.932C179.858 233.528 180.689 233.074 181.507 232.606C182.128 232.252 182.593 231.677 182.809 230.996C183.025 230.314 182.977 229.576 182.674 228.929L178.297 219.707C177.427 217.886 177.12 215.848 177.414 213.852C177.708 211.857 178.59 209.994 179.948 208.502C181.306 207.01 183.078 205.956 185.037 205.476C186.996 204.996 189.054 205.11 190.948 205.805ZM172.881 186.743C173.53 186.203 174.325 185.868 175.164 185.78C176.003 185.692 176.85 185.854 177.597 186.248C178.344 186.641 178.957 187.246 179.36 187.988C179.763 188.73 179.937 189.574 179.859 190.415C179.782 191.255 179.457 192.054 178.926 192.71C178.395 193.366 177.682 193.849 176.876 194.1C176.07 194.35 175.207 194.356 174.398 194.116C173.589 193.876 172.869 193.402 172.329 192.753C171.971 192.322 171.701 191.825 171.534 191.29C171.368 190.755 171.309 190.192 171.36 189.634C171.411 189.075 171.572 188.533 171.833 188.037C172.094 187.541 172.45 187.101 172.881 186.743ZM159.712 220.761C159.063 221.301 158.269 221.636 157.43 221.724C156.59 221.812 155.744 221.649 154.997 221.256C154.25 220.863 153.636 220.257 153.234 219.516C152.831 218.774 152.657 217.929 152.734 217.089C152.812 216.249 153.136 215.45 153.667 214.794C154.199 214.138 154.912 213.654 155.718 213.404C156.524 213.154 157.386 213.148 158.196 213.388C159.005 213.627 159.725 214.101 160.265 214.75C160.623 215.181 160.893 215.678 161.059 216.214C161.226 216.749 161.285 217.312 161.234 217.87C161.182 218.428 161.022 218.971 160.761 219.467C160.5 219.963 160.143 220.403 159.712 220.761ZM152.531 205.275C151.882 205.815 151.087 206.15 150.248 206.238C149.409 206.326 148.562 206.163 147.815 205.77C147.068 205.377 146.455 204.771 146.052 204.03C145.649 203.288 145.476 202.443 145.553 201.603C145.63 200.763 145.955 199.964 146.486 199.308C147.017 198.652 147.73 198.168 148.536 197.918C149.342 197.668 150.205 197.662 151.014 197.902C151.823 198.141 152.543 198.615 153.083 199.264C153.441 199.695 153.711 200.192 153.878 200.728C154.044 201.263 154.103 201.826 154.052 202.384C154.001 202.942 153.84 203.485 153.579 203.981C153.318 204.477 152.962 204.917 152.531 205.275ZM161.844 191.547C161.195 192.087 160.401 192.422 159.562 192.51C158.722 192.598 157.876 192.435 157.129 192.042C156.382 191.649 155.768 191.044 155.366 190.302C154.963 189.56 154.789 188.716 154.867 187.875C154.944 187.035 155.268 186.236 155.8 185.58C156.331 184.924 157.044 184.441 157.85 184.19C158.656 183.94 159.518 183.934 160.328 184.174C161.137 184.414 161.857 184.888 162.397 185.537C162.755 185.968 163.025 186.465 163.192 187C163.358 187.535 163.417 188.098 163.366 188.656C163.314 189.215 163.154 189.757 162.893 190.253C162.632 190.749 162.275 191.189 161.844 191.547Z" fill="#FAF5FF" fill-opacity="0.186"/>
</g>
</g>
<g filter="url(#filter3_d_614_970)">
<path d="M222.88 187.885L223.332 188.178C224.36 188.849 225.541 189.25 226.765 189.343C227.989 189.435 229.217 189.217 230.334 188.708C231.435 188.219 232.396 187.46 233.128 186.503C233.86 185.545 234.339 184.419 234.522 183.228C235.422 177.39 235.175 171.433 233.793 165.691C230.946 154.44 223.977 144.669 214.265 138.315C204.554 131.961 192.809 129.488 181.36 131.385C175.321 132.46 169.561 134.74 164.422 138.089C159.283 141.437 154.871 145.787 151.449 150.877C148.027 155.967 145.665 161.695 144.503 167.718C143.342 173.741 143.406 179.936 144.69 185.934C147.239 197.776 154.382 208.123 164.55 214.706C174.719 221.289 187.083 223.569 198.931 221.047C200.19 220.778 201.408 220.431 202.614 220.064C203.53 219.786 204.307 219.173 204.791 218.348C205.275 217.523 205.431 216.546 205.228 215.611L202.249 202.278C201.653 199.644 201.856 196.893 202.832 194.376C203.807 191.858 205.511 189.689 207.725 188.144C209.939 186.6 212.564 185.75 215.263 185.704C217.963 185.658 220.614 186.417 222.88 187.885ZM204.953 157.652C205.96 157.14 207.096 156.939 208.217 157.073C209.339 157.206 210.395 157.67 211.254 158.404C212.112 159.138 212.733 160.111 213.039 161.198C213.344 162.285 213.321 163.439 212.971 164.513C212.621 165.587 211.96 166.533 211.073 167.232C210.185 167.93 209.111 168.35 207.985 168.438C206.859 168.525 205.732 168.277 204.747 167.725C203.762 167.172 202.962 166.34 202.45 165.333C202.11 164.664 201.905 163.935 201.847 163.188C201.788 162.44 201.878 161.688 202.11 160.974C202.343 160.261 202.713 159.601 203.201 159.031C203.689 158.461 204.284 157.992 204.953 157.652ZM177.682 198.145C176.676 198.657 175.54 198.858 174.418 198.725C173.297 198.591 172.24 198.127 171.382 197.393C170.523 196.659 169.902 195.687 169.597 194.599C169.291 193.512 169.315 192.358 169.664 191.284C170.014 190.21 170.675 189.264 171.562 188.566C172.45 187.867 173.525 187.447 174.651 187.36C175.777 187.272 176.904 187.52 177.889 188.073C178.874 188.625 179.673 189.457 180.185 190.464C180.525 191.133 180.73 191.862 180.789 192.61C180.847 193.358 180.757 194.11 180.525 194.823C180.292 195.536 179.922 196.197 179.434 196.767C178.946 197.337 178.351 197.805 177.682 198.145ZM172.9 175.806C171.893 176.318 170.757 176.52 169.636 176.386C168.514 176.252 167.458 175.789 166.599 175.054C165.741 174.32 165.12 173.348 164.814 172.26C164.509 171.173 164.532 170.019 164.882 168.945C165.232 167.871 165.893 166.925 166.78 166.227C167.668 165.528 168.742 165.108 169.868 165.021C170.995 164.933 172.121 165.181 173.106 165.734C174.092 166.286 174.891 167.118 175.403 168.125C175.743 168.794 175.948 169.523 176.006 170.271C176.065 171.019 175.975 171.771 175.743 172.484C175.51 173.197 175.14 173.858 174.652 174.428C174.164 174.998 173.569 175.466 172.9 175.806ZM189.124 160.651C188.118 161.163 186.982 161.365 185.86 161.231C184.739 161.097 183.682 160.634 182.824 159.9C181.965 159.165 181.344 158.193 181.039 157.106C180.733 156.018 180.757 154.865 181.106 153.791C181.456 152.717 182.117 151.771 183.004 151.072C183.892 150.374 184.967 149.954 186.093 149.866C187.219 149.778 188.346 150.026 189.331 150.579C190.316 151.132 191.115 151.964 191.627 152.971C191.967 153.639 192.172 154.368 192.231 155.116C192.289 155.864 192.199 156.616 191.967 157.329C191.734 158.043 191.364 158.703 190.876 159.273C190.388 159.843 189.793 160.311 189.124 160.651Z" fill="url(#paint1_linear_614_970)"/>
<g filter="url(#filter4_biiii_614_970)">
<path d="M222.88 187.885L223.332 188.178C224.36 188.849 225.541 189.25 226.765 189.343C227.989 189.435 229.217 189.217 230.334 188.708C231.435 188.219 232.396 187.46 233.128 186.503C233.86 185.545 234.339 184.419 234.522 183.228C235.422 177.39 235.175 171.433 233.793 165.691C230.946 154.44 223.977 144.669 214.265 138.315C204.554 131.961 192.809 129.488 181.36 131.385C175.321 132.46 169.561 134.74 164.422 138.089C159.283 141.437 154.871 145.787 151.449 150.877C148.027 155.967 145.665 161.695 144.503 167.718C143.342 173.741 143.406 179.936 144.69 185.934C147.239 197.776 154.382 208.123 164.55 214.706C174.719 221.289 187.083 223.569 198.931 221.047C200.19 220.778 201.408 220.431 202.614 220.064C203.53 219.786 204.307 219.173 204.791 218.348C205.275 217.523 205.431 216.546 205.228 215.611L202.249 202.278C201.653 199.644 201.856 196.893 202.832 194.376C203.807 191.858 205.511 189.689 207.725 188.144C209.939 186.6 212.564 185.75 215.263 185.704C217.963 185.658 220.614 186.417 222.88 187.885ZM204.953 157.652C205.96 157.14 207.096 156.939 208.217 157.073C209.339 157.206 210.395 157.67 211.254 158.404C212.112 159.138 212.733 160.111 213.039 161.198C213.344 162.285 213.321 163.439 212.971 164.513C212.621 165.587 211.96 166.533 211.073 167.232C210.185 167.93 209.111 168.35 207.985 168.438C206.859 168.525 205.732 168.277 204.747 167.725C203.762 167.172 202.962 166.34 202.45 165.333C202.11 164.664 201.905 163.935 201.847 163.188C201.788 162.44 201.878 161.688 202.11 160.974C202.343 160.261 202.713 159.601 203.201 159.031C203.689 158.461 204.284 157.992 204.953 157.652ZM177.682 198.145C176.676 198.657 175.54 198.858 174.418 198.725C173.297 198.591 172.24 198.127 171.382 197.393C170.523 196.659 169.902 195.687 169.597 194.599C169.291 193.512 169.315 192.358 169.664 191.284C170.014 190.21 170.675 189.264 171.562 188.566C172.45 187.867 173.525 187.447 174.651 187.36C175.777 187.272 176.904 187.52 177.889 188.073C178.874 188.625 179.673 189.457 180.185 190.464C180.525 191.133 180.73 191.862 180.789 192.61C180.847 193.358 180.757 194.11 180.525 194.823C180.292 195.536 179.922 196.197 179.434 196.767C178.946 197.337 178.351 197.805 177.682 198.145ZM172.9 175.806C171.893 176.318 170.757 176.52 169.636 176.386C168.514 176.252 167.458 175.789 166.599 175.054C165.741 174.32 165.12 173.348 164.814 172.26C164.509 171.173 164.532 170.019 164.882 168.945C165.232 167.871 165.893 166.925 166.78 166.227C167.668 165.528 168.742 165.108 169.868 165.021C170.995 164.933 172.121 165.181 173.106 165.734C174.092 166.286 174.891 167.118 175.403 168.125C175.743 168.794 175.948 169.523 176.006 170.271C176.065 171.019 175.975 171.771 175.743 172.484C175.51 173.197 175.14 173.858 174.652 174.428C174.164 174.998 173.569 175.466 172.9 175.806ZM189.124 160.651C188.118 161.163 186.982 161.365 185.86 161.231C184.739 161.097 183.682 160.634 182.824 159.9C181.965 159.165 181.344 158.193 181.039 157.106C180.733 156.018 180.757 154.865 181.106 153.791C181.456 152.717 182.117 151.771 183.004 151.072C183.892 150.374 184.967 149.954 186.093 149.866C187.219 149.778 188.346 150.026 189.331 150.579C190.316 151.132 191.115 151.964 191.627 152.971C191.967 153.639 192.172 154.368 192.231 155.116C192.289 155.864 192.199 156.616 191.967 157.329C191.734 158.043 191.364 158.703 190.876 159.273C190.388 159.843 189.793 160.311 189.124 160.651Z" fill="#FAF5FF" fill-opacity="0.186"/>
</g>
</g>
<defs>
<filter id="filter0_f_614_970" x="0" y="0" width="377" height="377" filterUnits="userSpaceOnUse" color-interpolation-filters="sRGB">
<feFlood flood-opacity="0" result="BackgroundImageFix"/>
<feBlend mode="normal" in="SourceGraphic" in2="BackgroundImageFix" result="shape"/>
<feGaussianBlur stdDeviation="50" result="effect1_foregroundBlur_614_970"/>
</filter>
<filter id="filter1_f_614_970" x="123.482" y="161.942" width="82.1917" height="82.1455" filterUnits="userSpaceOnUse" color-interpolation-filters="sRGB">
<feFlood flood-opacity="0" result="BackgroundImageFix"/>
<feBlend mode="normal" in="SourceGraphic" in2="BackgroundImageFix" result="shape"/>
<feGaussianBlur stdDeviation="3.5" result="effect1_foregroundBlur_614_970"/>
</filter>
<filter id="filter2_biiii_614_970" x="117.415" y="155.876" width="94.325" height="94.2788" filterUnits="userSpaceOnUse" color-interpolation-filters="sRGB">
<feFlood flood-opacity="0" result="BackgroundImageFix"/>
<feGaussianBlur in="BackgroundImage" stdDeviation="6.53333"/>
<feComposite in2="SourceAlpha" operator="in" result="effect1_backgroundBlur_614_970"/>
<feBlend mode="normal" in="SourceGraphic" in2="effect1_backgroundBlur_614_970" result="shape"/>
<feColorMatrix in="SourceAlpha" type="matrix" values="0 0 0 0 0 0 0 0 0 0 0 0 0 0 0 0 0 0 127 0" result="hardAlpha"/>
<feOffset dx="-2.61333" dy="2.61333"/>
<feGaussianBlur stdDeviation="1.30667"/>
<feComposite in2="hardAlpha" operator="arithmetic" k2="-1" k3="1"/>
<feColorMatrix type="matrix" values="0 0 0 0 0.784314 0 0 0 0 0.768627 0 0 0 0 0.8 0 0 0 0.572 0"/>
<feBlend mode="normal" in2="shape" result="effect2_innerShadow_614_970"/>
<feColorMatrix in="SourceAlpha" type="matrix" values="0 0 0 0 0 0 0 0 0 0 0 0 0 0 0 0 0 0 127 0" result="hardAlpha"/>
<feOffset dx="-1.30667" dy="1.30667"/>
<feGaussianBlur stdDeviation="0.653333"/>
<feComposite in2="hardAlpha" operator="arithmetic" k2="-1" k3="1"/>
<feColorMatrix type="matrix" values="0 0 0 0 1 0 0 0 0 1 0 0 0 0 1 0 0 0 0.572 0"/>
<feBlend mode="normal" in2="effect2_innerShadow_614_970" result="effect3_innerShadow_614_970"/>
<feColorMatrix in="SourceAlpha" type="matrix" values="0 0 0 0 0 0 0 0 0 0 0 0 0 0 0 0 0 0 127 0" result="hardAlpha"/>
<feOffset dx="2.61333" dy="-2.61333"/>
<feGaussianBlur stdDeviation="1.30667"/>
<feComposite in2="hardAlpha" operator="arithmetic" k2="-1" k3="1"/>
<feColorMatrix type="matrix" values="0 0 0 0 1 0 0 0 0 1 0 0 0 0 1 0 0 0 0.572 0"/>
<feBlend mode="normal" in2="effect3_innerShadow_614_970" result="effect4_innerShadow_614_970"/>
<feColorMatrix in="SourceAlpha" type="matrix" values="0 0 0 0 0 0 0 0 0 0 0 0 0 0 0 0 0 0 127 0" result="hardAlpha"/>
<feOffset dx="1.30667" dy="-1.30667"/>
<feGaussianBlur stdDeviation="0.653333"/>
<feComposite in2="hardAlpha" operator="arithmetic" k2="-1" k3="1"/>
<feColorMatrix type="matrix" values="0 0 0 0 0.784314 0 0 0 0 0.768627 0 0 0 0 0.8 0 0 0 0.572 0"/>
<feBlend mode="normal" in2="effect4_innerShadow_614_970" result="effect5_innerShadow_614_970"/>
</filter>
<filter id="filter3_d_614_970" x="101.677" y="91.7622" width="187.375" height="187.288" filterUnits="userSpaceOnUse" color-interpolation-filters="sRGB">
<feFlood flood-opacity="0" result="BackgroundImageFix"/>
<feColorMatrix in="SourceAlpha" type="matrix" values="0 0 0 0 0 0 0 0 0 0 0 0 0 0 0 0 0 0 127 0" result="hardAlpha"/>
<feOffset dx="6" dy="9"/>
<feGaussianBlur stdDeviation="24"/>
<feComposite in2="hardAlpha" operator="out"/>
<feColorMatrix type="matrix" values="0 0 0 0 0.325521 0 0 0 0 0.173177 0 0 0 0 0.395833 0 0 0 1 0"/>
<feBlend mode="normal" in2="BackgroundImageFix" result="effect1_dropShadow_614_970"/>
<feBlend mode="normal" in="SourceGraphic" in2="effect1_dropShadow_614_970" result="shape"/>
</filter>
<filter id="filter4_biiii_614_970" x="130.61" y="117.696" width="117.509" height="117.421" filterUnits="userSpaceOnUse" color-interpolation-filters="sRGB">
<feFlood flood-opacity="0" result="BackgroundImageFix"/>
<feGaussianBlur in="BackgroundImage" stdDeviation="6.53333"/>
<feComposite in2="SourceAlpha" operator="in" result="effect1_backgroundBlur_614_970"/>
<feBlend mode="normal" in="SourceGraphic" in2="effect1_backgroundBlur_614_970" result="shape"/>
<feColorMatrix in="SourceAlpha" type="matrix" values="0 0 0 0 0 0 0 0 0 0 0 0 0 0 0 0 0 0 127 0" result="hardAlpha"/>
<feOffset dx="-2.61333" dy="2.61333"/>
<feGaussianBlur stdDeviation="1.30667"/>
<feComposite in2="hardAlpha" operator="arithmetic" k2="-1" k3="1"/>
<feColorMatrix type="matrix" values="0 0 0 0 0.784314 0 0 0 0 0.768627 0 0 0 0 0.8 0 0 0 0.572 0"/>
<feBlend mode="normal" in2="shape" result="effect2_innerShadow_614_970"/>
<feColorMatrix in="SourceAlpha" type="matrix" values="0 0 0 0 0 0 0 0 0 0 0 0 0 0 0 0 0 0 127 0" result="hardAlpha"/>
<feOffset dx="-1.30667" dy="1.30667"/>
<feGaussianBlur stdDeviation="0.653333"/>
<feComposite in2="hardAlpha" operator="arithmetic" k2="-1" k3="1"/>
<feColorMatrix type="matrix" values="0 0 0 0 1 0 0 0 0 1 0 0 0 0 1 0 0 0 0.572 0"/>
<feBlend mode="normal" in2="effect2_innerShadow_614_970" result="effect3_innerShadow_614_970"/>
<feColorMatrix in="SourceAlpha" type="matrix" values="0 0 0 0 0 0 0 0 0 0 0 0 0 0 0 0 0 0 127 0" result="hardAlpha"/>
<feOffset dx="2.61333" dy="-2.61333"/>
<feGaussianBlur stdDeviation="1.30667"/>
<feComposite in2="hardAlpha" operator="arithmetic" k2="-1" k3="1"/>
<feColorMatrix type="matrix" values="0 0 0 0 1 0 0 0 0 1 0 0 0 0 1 0 0 0 0.572 0"/>
<feBlend mode="normal" in2="effect3_innerShadow_614_970" result="effect4_innerShadow_614_970"/>
<feColorMatrix in="SourceAlpha" type="matrix" values="0 0 0 0 0 0 0 0 0 0 0 0 0 0 0 0 0 0 127 0" result="hardAlpha"/>
<feOffset dx="1.30667" dy="-1.30667"/>
<feGaussianBlur stdDeviation="0.653333"/>
<feComposite in2="hardAlpha" operator="arithmetic" k2="-1" k3="1"/>
<feColorMatrix type="matrix" values="0 0 0 0 0.784314 0 0 0 0 0.768627 0 0 0 0 0.8 0 0 0 0.572 0"/>
<feBlend mode="normal" in2="effect4_innerShadow_614_970" result="effect5_innerShadow_614_970"/>
</filter>
<linearGradient id="paint0_linear_614_970" x1="138.73" y1="225.232" x2="198.189" y2="197.638" gradientUnits="userSpaceOnUse">
<stop stop-color="#BF81FF"/>
<stop offset="0.515625" stop-color="#D17558"/>
<stop offset="1" stop-color="#F84FE7"/>
</linearGradient>
<linearGradient id="paint1_linear_614_970" x1="148.974" y1="197.76" x2="234.752" y2="179.374" gradientUnits="userSpaceOnUse">
<stop stop-color="#BF81FF"/>
<stop offset="0.515625" stop-color="#D17558"/>
<stop offset="1" stop-color="#F84FE7"/>
</linearGradient>
</defs>
</svg>
