<svg width="377" height="377" viewBox="0 0 377 377" fill="none" xmlns="http://www.w3.org/2000/svg">
<g filter="url(#filter0_f_614_136)">
<circle cx="188.5" cy="188.5" r="88.5" fill="#6A1DAC"/>
</g>
<g filter="url(#filter1_f_614_136)">
<path d="M195.251 163.6C190.531 159.525 184.412 158.498 178.712 160.582L141.027 174.354C135.327 176.437 131.312 181.167 130.332 187.325C129.185 194.994 129.857 202.724 132.545 210.079C138.972 227.667 151.198 239.511 160.065 236.271C164.816 234.535 166.98 228.669 166.441 218.353C166.29 216.958 167.206 215.536 168.789 214.958L184.307 209.287C185.573 208.824 187.191 209.32 188.291 210.368C194.531 218.6 199.967 221.688 204.717 219.952C213.584 216.712 215.292 199.775 208.864 182.187C205.543 175.063 201.072 168.722 195.251 163.6ZM159.877 196.465L156.71 197.622L157.879 200.82C158.58 202.739 157.781 204.481 155.881 205.175C153.981 205.869 152.247 205.053 151.545 203.135L150.377 199.937L147.21 201.094C145.31 201.788 143.576 200.972 142.875 199.053C142.173 197.135 142.973 195.393 144.873 194.698L148.039 193.541L146.871 190.343C146.169 188.424 146.969 186.682 148.869 185.988C150.769 185.294 152.503 186.11 153.204 188.029L154.373 191.226L157.54 190.069C159.44 189.375 161.174 190.191 161.875 192.11C162.576 194.028 161.777 195.77 159.877 196.465ZM183.115 195.222C180.582 196.148 177.547 194.72 176.612 192.161C175.677 189.603 177.076 186.554 179.609 185.628C182.143 184.703 185.177 186.131 186.112 188.689C187.047 191.248 185.332 194.412 183.115 195.222ZM188.793 182.272C186.576 183.082 183.225 181.77 182.29 179.211C181.355 176.653 183.07 173.489 185.287 172.679C187.504 171.869 190.855 173.181 191.79 175.739C192.725 178.298 191.326 181.346 188.793 182.272Z" fill="url(#paint0_linear_614_136)"/>
<g filter="url(#filter2_bii_614_136)">
<path d="M195.251 163.6C190.531 159.525 184.412 158.498 178.712 160.582L141.027 174.354C135.327 176.437 131.312 181.167 130.332 187.325C129.185 194.994 129.857 202.724 132.545 210.079C138.972 227.667 151.198 239.511 160.065 236.271C164.816 234.535 166.98 228.669 166.441 218.353C166.29 216.958 167.206 215.536 168.789 214.958L184.307 209.287C185.573 208.824 187.191 209.32 188.291 210.368C194.531 218.6 199.967 221.688 204.717 219.952C213.584 216.712 215.292 199.775 208.864 182.187C205.543 175.063 201.072 168.722 195.251 163.6ZM159.877 196.465L156.71 197.622L157.879 200.82C158.58 202.739 157.781 204.481 155.881 205.175C153.981 205.869 152.247 205.053 151.545 203.135L150.377 199.937L147.21 201.094C145.31 201.788 143.576 200.972 142.875 199.053C142.173 197.135 142.973 195.393 144.873 194.698L148.039 193.541L146.871 190.343C146.169 188.424 146.969 186.682 148.869 185.988C150.769 185.294 152.503 186.11 153.204 188.029L154.373 191.226L157.54 190.069C159.44 189.375 161.174 190.191 161.875 192.11C162.576 194.028 161.777 195.77 159.877 196.465ZM183.115 195.222C180.582 196.148 177.547 194.72 176.612 192.161C175.677 189.603 177.076 186.554 179.609 185.628C182.143 184.703 185.177 186.131 186.112 188.689C187.047 191.248 185.332 194.412 183.115 195.222ZM188.793 182.272C186.576 183.082 183.225 181.77 182.29 179.211C181.355 176.653 183.07 173.489 185.287 172.679C187.504 171.869 190.855 173.181 191.79 175.739C192.725 178.298 191.326 181.346 188.793 182.272Z" fill="#FAF5FF" fill-opacity="0.147"/>
</g>
</g>
<g filter="url(#filter3_d_614_136)">
<path d="M272.868 145.691C270.57 136.981 264.115 130.762 255.62 128.591L199.459 114.237C190.964 112.066 182.317 114.425 176.12 120.965C168.493 129.169 162.982 138.93 160.18 149.891C153.481 176.103 158.383 200.202 171.597 203.58C178.676 205.389 186.045 200.164 193.825 187.429C194.784 185.643 197.037 184.696 199.397 185.299L222.522 191.21C224.41 191.692 225.932 193.604 226.389 195.752C227.104 210.658 231.062 218.777 238.141 220.587C251.356 223.964 267.219 205.172 273.918 178.96C275.776 167.758 275.624 156.55 272.868 145.691ZM203.873 155.981L199.154 154.775L197.936 159.541C197.205 162.4 194.83 163.824 191.998 163.1C189.167 162.377 187.766 159.988 188.497 157.128L189.715 152.363L184.996 151.157C182.164 150.433 180.764 148.044 181.494 145.185C182.225 142.325 184.6 140.902 187.432 141.625L192.151 142.831L193.369 138.066C194.1 135.206 196.475 133.783 199.307 134.506C202.138 135.23 203.539 137.619 202.808 140.478L201.59 145.244L206.309 146.45C209.141 147.174 210.541 149.562 209.811 152.422C209.08 155.281 206.705 156.705 203.873 155.981ZM232.585 173.473C228.81 172.509 226.359 168.328 227.333 164.516C228.308 160.703 232.464 158.211 236.239 159.176C240.015 160.141 242.466 164.322 241.491 168.134C240.517 171.947 235.889 174.318 232.585 173.473ZM249.926 162.674C246.622 161.83 243.699 157.529 244.674 153.717C245.648 149.904 250.276 147.533 253.58 148.377C256.883 149.222 259.806 153.523 258.832 157.335C257.857 161.148 253.701 163.639 249.926 162.674Z" fill="url(#paint1_linear_614_136)"/>
<g filter="url(#filter4_bii_614_136)">
<path d="M272.868 145.691C270.57 136.981 264.115 130.762 255.62 128.591L199.459 114.237C190.964 112.066 182.317 114.425 176.12 120.965C168.493 129.169 162.982 138.93 160.18 149.891C153.481 176.103 158.383 200.202 171.597 203.58C178.676 205.389 186.045 200.164 193.825 187.429C194.784 185.643 197.037 184.696 199.397 185.299L222.522 191.21C224.41 191.692 225.932 193.604 226.389 195.752C227.104 210.658 231.062 218.777 238.141 220.587C251.356 223.964 267.219 205.172 273.918 178.96C275.776 167.758 275.624 156.55 272.868 145.691ZM203.873 155.981L199.154 154.775L197.936 159.541C197.205 162.4 194.83 163.824 191.998 163.1C189.167 162.377 187.766 159.988 188.497 157.128L189.715 152.363L184.996 151.157C182.164 150.433 180.764 148.044 181.494 145.185C182.225 142.325 184.6 140.902 187.432 141.625L192.151 142.831L193.369 138.066C194.1 135.206 196.475 133.783 199.307 134.506C202.138 135.23 203.539 137.619 202.808 140.478L201.59 145.244L206.309 146.45C209.141 147.174 210.541 149.562 209.811 152.422C209.08 155.281 206.705 156.705 203.873 155.981ZM232.585 173.473C228.81 172.509 226.359 168.328 227.333 164.516C228.308 160.703 232.464 158.211 236.239 159.176C240.015 160.141 242.466 164.322 241.491 168.134C240.517 171.947 235.889 174.318 232.585 173.473ZM249.926 162.674C246.622 161.83 243.699 157.529 244.674 153.717C245.648 149.904 250.276 147.533 253.58 148.377C256.883 149.222 259.806 153.523 258.832 157.335C257.857 161.148 253.701 163.639 249.926 162.674Z" fill="#FAF5FF" fill-opacity="0.147"/>
</g>
</g>
<defs>
<filter id="filter0_f_614_136" x="0" y="0" width="377" height="377" filterUnits="userSpaceOnUse" color-interpolation-filters="sRGB">
<feFlood flood-opacity="0" result="BackgroundImageFix"/>
<feBlend mode="normal" in="SourceGraphic" in2="BackgroundImageFix" result="shape"/>
<feGaussianBlur stdDeviation="50" result="effect1_foregroundBlur_614_136"/>
</filter>
<filter id="filter1_f_614_136" x="122.796" y="152.532" width="96.9401" height="91.2725" filterUnits="userSpaceOnUse" color-interpolation-filters="sRGB">
<feFlood flood-opacity="0" result="BackgroundImageFix"/>
<feBlend mode="normal" in="SourceGraphic" in2="BackgroundImageFix" result="shape"/>
<feGaussianBlur stdDeviation="3.5" result="effect1_foregroundBlur_614_136"/>
</filter>
<filter id="filter2_bii_614_136" x="110.926" y="140.662" width="120.68" height="115.012" filterUnits="userSpaceOnUse" color-interpolation-filters="sRGB">
<feFlood flood-opacity="0" result="BackgroundImageFix"/>
<feGaussianBlur in="BackgroundImage" stdDeviation="9.435"/>
<feComposite in2="SourceAlpha" operator="in" result="effect1_backgroundBlur_614_136"/>
<feBlend mode="normal" in="SourceGraphic" in2="effect1_backgroundBlur_614_136" result="shape"/>
<feColorMatrix in="SourceAlpha" type="matrix" values="0 0 0 0 0 0 0 0 0 0 0 0 0 0 0 0 0 0 127 0" result="hardAlpha"/>
<feOffset dx="-1.23333" dy="1.23333"/>
<feGaussianBlur stdDeviation="0.616667"/>
<feComposite in2="hardAlpha" operator="arithmetic" k2="-1" k3="1"/>
<feColorMatrix type="matrix" values="0 0 0 0 1 0 0 0 0 1 0 0 0 0 1 0 0 0 0.494 0"/>
<feBlend mode="normal" in2="shape" result="effect2_innerShadow_614_136"/>
<feColorMatrix in="SourceAlpha" type="matrix" values="0 0 0 0 0 0 0 0 0 0 0 0 0 0 0 0 0 0 127 0" result="hardAlpha"/>
<feOffset dx="1.23333" dy="-1.23333"/>
<feGaussianBlur stdDeviation="0.616667"/>
<feComposite in2="hardAlpha" operator="arithmetic" k2="-1" k3="1"/>
<feColorMatrix type="matrix" values="0 0 0 0 0.823529 0 0 0 0 0.807059 0 0 0 0 0.84 0 0 0 0.494 0"/>
<feBlend mode="normal" in2="effect2_innerShadow_614_136" result="effect3_innerShadow_614_136"/>
</filter>
<filter id="filter3_d_614_136" x="115.195" y="74.4519" width="213.958" height="203.527" filterUnits="userSpaceOnUse" color-interpolation-filters="sRGB">
<feFlood flood-opacity="0" result="BackgroundImageFix"/>
<feColorMatrix in="SourceAlpha" type="matrix" values="0 0 0 0 0 0 0 0 0 0 0 0 0 0 0 0 0 0 127 0" result="hardAlpha"/>
<feOffset dx="6" dy="9"/>
<feGaussianBlur stdDeviation="24"/>
<feComposite in2="hardAlpha" operator="out"/>
<feColorMatrix type="matrix" values="0 0 0 0 0.325521 0 0 0 0 0.173177 0 0 0 0 0.395833 0 0 0 1 0"/>
<feBlend mode="normal" in2="BackgroundImageFix" result="effect1_dropShadow_614_136"/>
<feBlend mode="normal" in="SourceGraphic" in2="effect1_dropShadow_614_136" result="shape"/>
</filter>
<filter id="filter4_bii_614_136" x="138.325" y="94.5819" width="155.698" height="145.267" filterUnits="userSpaceOnUse" color-interpolation-filters="sRGB">
<feFlood flood-opacity="0" result="BackgroundImageFix"/>
<feGaussianBlur in="BackgroundImage" stdDeviation="9.435"/>
<feComposite in2="SourceAlpha" operator="in" result="effect1_backgroundBlur_614_136"/>
<feBlend mode="normal" in="SourceGraphic" in2="effect1_backgroundBlur_614_136" result="shape"/>
<feColorMatrix in="SourceAlpha" type="matrix" values="0 0 0 0 0 0 0 0 0 0 0 0 0 0 0 0 0 0 127 0" result="hardAlpha"/>
<feOffset dx="-1.23333" dy="1.23333"/>
<feGaussianBlur stdDeviation="0.616667"/>
<feComposite in2="hardAlpha" operator="arithmetic" k2="-1" k3="1"/>
<feColorMatrix type="matrix" values="0 0 0 0 1 0 0 0 0 1 0 0 0 0 1 0 0 0 0.494 0"/>
<feBlend mode="normal" in2="shape" result="effect2_innerShadow_614_136"/>
<feColorMatrix in="SourceAlpha" type="matrix" values="0 0 0 0 0 0 0 0 0 0 0 0 0 0 0 0 0 0 127 0" result="hardAlpha"/>
<feOffset dx="1.23333" dy="-1.23333"/>
<feGaussianBlur stdDeviation="0.616667"/>
<feComposite in2="hardAlpha" operator="arithmetic" k2="-1" k3="1"/>
<feColorMatrix type="matrix" values="0 0 0 0 0.823529 0 0 0 0 0.807059 0 0 0 0 0.84 0 0 0 0.494 0"/>
<feBlend mode="normal" in2="effect2_innerShadow_614_136" result="effect3_innerShadow_614_136"/>
</filter>
<linearGradient id="paint0_linear_614_136" x1="137.588" y1="219.44" x2="210.847" y2="192.641" gradientUnits="userSpaceOnUse">
<stop stop-color="#BF81FF"/>
<stop offset="0.515625" stop-color="#D17558"/>
<stop offset="1" stop-color="#F84FE7"/>
</linearGradient>
<linearGradient id="paint1_linear_614_136" x1="158.548" y1="165.167" x2="267.746" y2="193.039" gradientUnits="userSpaceOnUse">
<stop stop-color="#BF81FF"/>
<stop offset="0.515625" stop-color="#D17558"/>
<stop offset="1" stop-color="#F84FE7"/>
</linearGradient>
</defs>
</svg>
