<svg width="377" height="377" viewBox="0 0 377 377" fill="none" xmlns="http://www.w3.org/2000/svg">
<g filter="url(#filter0_f_614_254)">
<circle cx="188.5" cy="188.5" r="88.5" fill="#6A1DAC"/>
</g>
<g filter="url(#filter1_f_614_254)">
<path d="M161.67 194.996C174.662 190.681 181.574 176.673 177.203 163.512C172.832 150.351 158.913 143.26 145.921 147.575C132.928 151.89 126.017 165.899 130.387 179.06C134.758 192.221 148.677 199.311 161.67 194.996Z" fill="url(#paint0_linear_614_254)"/>
<path d="M165.526 206.607C146.442 212.944 131.163 221.406 135.211 233.596C139.258 245.782 156.502 243.565 175.684 237.194C194.762 230.858 210.047 222.394 205.998 210.204C201.95 198.014 184.708 200.236 165.526 206.607Z" fill="url(#paint1_linear_614_254)"/>
<path d="M206.069 164.718L211.744 162.834C214.08 162.058 216.625 163.357 217.412 165.726C218.199 168.094 216.936 170.658 214.6 171.434L208.925 173.318L210.769 178.871C211.556 181.24 210.298 183.802 207.957 184.579C205.621 185.355 203.075 184.056 202.289 181.688L200.445 176.135L194.78 178.016C192.439 178.793 189.898 177.493 189.111 175.124C188.325 172.756 189.583 170.194 191.924 169.416L197.589 167.535L195.746 161.987C194.959 159.618 196.222 157.054 198.558 156.279C200.899 155.501 203.44 156.802 204.227 159.17L206.069 164.718Z" fill="url(#paint2_linear_614_254)"/>
<g filter="url(#filter2_bii_614_254)">
<path d="M161.615 195.755C174.558 191.293 181.31 177.207 176.789 164.096C172.269 150.986 158.271 144.054 145.328 148.517C132.385 152.979 125.634 167.066 130.154 180.176C134.674 193.286 148.673 200.218 161.615 195.755Z" fill="#FAF5FF" fill-opacity="0.115"/>
<path d="M165.603 207.321C146.593 213.875 131.411 222.511 135.598 234.654C139.783 246.792 157 244.379 176.109 237.791C195.114 231.238 210.301 222.601 206.114 210.458C201.927 198.315 184.712 200.733 165.603 207.321Z" fill="#FAF5FF" fill-opacity="0.115"/>
<path d="M205.667 164.974L211.32 163.025C213.647 162.223 216.208 163.493 217.021 165.852C217.835 168.212 216.601 170.79 214.274 171.592L208.621 173.541L210.528 179.073C211.342 181.432 210.113 184.008 207.781 184.812C205.454 185.615 202.894 184.345 202.08 181.985L200.173 176.454L194.53 178.399C192.198 179.203 189.643 177.932 188.829 175.572C188.016 173.213 189.245 170.637 191.576 169.833L197.219 167.887L195.314 162.36C194.5 160.001 195.734 157.423 198.061 156.62C200.393 155.816 202.948 157.088 203.762 159.447L205.667 164.974Z" fill="#FAF5FF" fill-opacity="0.115"/>
</g>
</g>
<g filter="url(#filter3_d_614_254)">
<path d="M204.797 168.483C220.506 171.394 235.462 160.971 238.41 145.059C241.358 129.146 231.128 114.058 215.419 111.148C199.71 108.237 184.754 118.66 181.806 134.572C178.858 150.485 189.088 165.573 204.797 168.483Z" fill="url(#paint3_linear_614_254)"/>
<path d="M202.196 182.521C179.124 178.246 158.741 178.286 156.01 193.025C153.281 207.758 172.152 215.207 195.345 219.504C218.412 223.777 238.801 223.739 241.531 209C244.262 194.261 225.389 186.818 202.196 182.521Z" fill="url(#paint4_linear_614_254)"/>
<path d="M267.23 162.555L274.091 163.826C276.916 164.349 278.786 167.111 278.255 169.975C277.724 172.838 274.989 174.747 272.165 174.224L265.304 172.953L264.06 179.667C263.53 182.53 260.8 184.44 257.97 183.916C255.146 183.393 253.276 180.631 253.806 177.767L255.05 171.053L248.201 169.784C245.371 169.26 243.507 166.499 244.037 163.635C244.568 160.772 247.297 158.862 250.127 159.386L256.977 160.655L258.219 153.947C258.75 151.083 261.485 149.175 264.309 149.698C267.139 150.222 269.004 152.983 268.473 155.847L267.23 162.555Z" fill="url(#paint5_linear_614_254)"/>
<g filter="url(#filter4_bii_614_254)">
<path d="M204.314 169.229C220.055 171.96 234.891 161.368 237.658 145.423C240.425 129.478 230.024 114.507 214.283 111.776C198.542 109.044 183.706 119.636 180.939 135.581C178.172 151.526 188.573 166.497 204.314 169.229Z" fill="#FAF5FF" fill-opacity="0.115"/>
<path d="M201.873 183.295C178.753 179.283 158.372 179.555 155.81 194.323C153.248 209.086 172.203 216.32 195.443 220.353C218.557 224.364 238.944 224.093 241.507 209.324C244.069 194.556 225.113 187.327 201.873 183.295Z" fill="#FAF5FF" fill-opacity="0.115"/>
<path d="M266.676 162.59L273.551 163.783C276.381 164.274 278.282 167.014 277.784 169.884C277.286 172.754 274.573 174.693 271.743 174.202L264.868 173.009L263.7 179.737C263.202 182.606 260.495 184.547 257.659 184.055C254.829 183.564 252.928 180.824 253.426 177.954L254.593 171.226L247.73 170.035C244.894 169.543 242.998 166.804 243.496 163.934C243.994 161.065 246.702 159.124 249.538 159.616L256.401 160.807L257.567 154.085C258.065 151.216 260.779 149.276 263.609 149.767C266.444 150.259 268.34 152.998 267.842 155.868L266.676 162.59Z" fill="#FAF5FF" fill-opacity="0.115"/>
</g>
</g>
<defs>
<filter id="filter0_f_614_254" x="0" y="0" width="377" height="377" filterUnits="userSpaceOnUse" color-interpolation-filters="sRGB">
<feFlood flood-opacity="0" result="BackgroundImageFix"/>
<feBlend mode="normal" in="SourceGraphic" in2="BackgroundImageFix" result="shape"/>
<feGaussianBlur stdDeviation="50" result="effect1_foregroundBlur_614_254"/>
</filter>
<filter id="filter1_f_614_254" x="121.75" y="139.312" width="102.896" height="110.936" filterUnits="userSpaceOnUse" color-interpolation-filters="sRGB">
<feFlood flood-opacity="0" result="BackgroundImageFix"/>
<feBlend mode="normal" in="SourceGraphic" in2="BackgroundImageFix" result="shape"/>
<feGaussianBlur stdDeviation="3.5" result="effect1_foregroundBlur_614_254"/>
</filter>
<filter id="filter2_bii_614_254" x="115.027" y="133.441" width="115.967" height="123.53" filterUnits="userSpaceOnUse" color-interpolation-filters="sRGB">
<feFlood flood-opacity="0" result="BackgroundImageFix"/>
<feGaussianBlur in="BackgroundImage" stdDeviation="6.86141"/>
<feComposite in2="SourceAlpha" operator="in" result="effect1_backgroundBlur_614_254"/>
<feBlend mode="normal" in="SourceGraphic" in2="effect1_backgroundBlur_614_254" result="shape"/>
<feColorMatrix in="SourceAlpha" type="matrix" values="0 0 0 0 0 0 0 0 0 0 0 0 0 0 0 0 0 0 127 0" result="hardAlpha"/>
<feOffset dx="-1.508" dy="1.508"/>
<feGaussianBlur stdDeviation="0.754001"/>
<feComposite in2="hardAlpha" operator="arithmetic" k2="-1" k3="1"/>
<feColorMatrix type="matrix" values="0 0 0 0 1 0 0 0 0 1 0 0 0 0 1 0 0 0 0.43 0"/>
<feBlend mode="normal" in2="shape" result="effect2_innerShadow_614_254"/>
<feColorMatrix in="SourceAlpha" type="matrix" values="0 0 0 0 0 0 0 0 0 0 0 0 0 0 0 0 0 0 127 0" result="hardAlpha"/>
<feOffset dx="1.508" dy="-1.508"/>
<feGaussianBlur stdDeviation="0.754001"/>
<feComposite in2="hardAlpha" operator="arithmetic" k2="-1" k3="1"/>
<feColorMatrix type="matrix" values="0 0 0 0 0.823529 0 0 0 0 0.807059 0 0 0 0 0.84 0 0 0 0.43 0"/>
<feBlend mode="normal" in2="effect2_innerShadow_614_254" result="effect3_innerShadow_614_254"/>
</filter>
<filter id="filter3_d_614_254" x="113.577" y="71.6604" width="218.768" height="207.898" filterUnits="userSpaceOnUse" color-interpolation-filters="sRGB">
<feFlood flood-opacity="0" result="BackgroundImageFix"/>
<feColorMatrix in="SourceAlpha" type="matrix" values="0 0 0 0 0 0 0 0 0 0 0 0 0 0 0 0 0 0 127 0" result="hardAlpha"/>
<feOffset dx="6" dy="9"/>
<feGaussianBlur stdDeviation="24"/>
<feComposite in2="hardAlpha" operator="out"/>
<feColorMatrix type="matrix" values="0 0 0 0 0.325521 0 0 0 0 0.173177 0 0 0 0 0.395833 0 0 0 1 0"/>
<feBlend mode="normal" in2="BackgroundImageFix" result="effect1_dropShadow_614_254"/>
<feBlend mode="normal" in="SourceGraphic" in2="effect1_dropShadow_614_254" result="shape"/>
</filter>
<filter id="filter4_bii_614_254" x="141.854" y="97.6239" width="149.732" height="138.657" filterUnits="userSpaceOnUse" color-interpolation-filters="sRGB">
<feFlood flood-opacity="0" result="BackgroundImageFix"/>
<feGaussianBlur in="BackgroundImage" stdDeviation="6.86141"/>
<feComposite in2="SourceAlpha" operator="in" result="effect1_backgroundBlur_614_254"/>
<feBlend mode="normal" in="SourceGraphic" in2="effect1_backgroundBlur_614_254" result="shape"/>
<feColorMatrix in="SourceAlpha" type="matrix" values="0 0 0 0 0 0 0 0 0 0 0 0 0 0 0 0 0 0 127 0" result="hardAlpha"/>
<feOffset dx="-1.508" dy="1.508"/>
<feGaussianBlur stdDeviation="0.754001"/>
<feComposite in2="hardAlpha" operator="arithmetic" k2="-1" k3="1"/>
<feColorMatrix type="matrix" values="0 0 0 0 1 0 0 0 0 1 0 0 0 0 1 0 0 0 0.43 0"/>
<feBlend mode="normal" in2="shape" result="effect2_innerShadow_614_254"/>
<feColorMatrix in="SourceAlpha" type="matrix" values="0 0 0 0 0 0 0 0 0 0 0 0 0 0 0 0 0 0 127 0" result="hardAlpha"/>
<feOffset dx="1.508" dy="-1.508"/>
<feGaussianBlur stdDeviation="0.754001"/>
<feComposite in2="hardAlpha" operator="arithmetic" k2="-1" k3="1"/>
<feColorMatrix type="matrix" values="0 0 0 0 0.823529 0 0 0 0 0.807059 0 0 0 0 0.84 0 0 0 0.43 0"/>
<feBlend mode="normal" in2="effect2_innerShadow_614_254" result="effect3_innerShadow_614_254"/>
</filter>
<linearGradient id="paint0_linear_614_254" x1="131.254" y1="215.767" x2="221.809" y2="185.666" gradientUnits="userSpaceOnUse">
<stop stop-color="#BF81FF"/>
<stop offset="0.515625" stop-color="#D17558"/>
<stop offset="1" stop-color="#F84FE7"/>
</linearGradient>
<linearGradient id="paint1_linear_614_254" x1="131.254" y1="215.767" x2="221.809" y2="185.666" gradientUnits="userSpaceOnUse">
<stop stop-color="#BF81FF"/>
<stop offset="0.515625" stop-color="#D17558"/>
<stop offset="1" stop-color="#F84FE7"/>
</linearGradient>
<linearGradient id="paint2_linear_614_254" x1="131.254" y1="215.767" x2="221.809" y2="185.666" gradientUnits="userSpaceOnUse">
<stop stop-color="#BF81FF"/>
<stop offset="0.515625" stop-color="#D17558"/>
<stop offset="1" stop-color="#F84FE7"/>
</linearGradient>
<linearGradient id="paint3_linear_614_254" x1="162.011" y1="172.574" x2="271.514" y2="192.83" gradientUnits="userSpaceOnUse">
<stop stop-color="#BF81FF"/>
<stop offset="0.515625" stop-color="#D17558"/>
<stop offset="1" stop-color="#F84FE7"/>
</linearGradient>
<linearGradient id="paint4_linear_614_254" x1="162.011" y1="172.574" x2="271.514" y2="192.83" gradientUnits="userSpaceOnUse">
<stop stop-color="#BF81FF"/>
<stop offset="0.515625" stop-color="#D17558"/>
<stop offset="1" stop-color="#F84FE7"/>
</linearGradient>
<linearGradient id="paint5_linear_614_254" x1="162.011" y1="172.574" x2="271.514" y2="192.83" gradientUnits="userSpaceOnUse">
<stop stop-color="#BF81FF"/>
<stop offset="0.515625" stop-color="#D17558"/>
<stop offset="1" stop-color="#F84FE7"/>
</linearGradient>
</defs>
</svg>
