<svg width="377" height="377" viewBox="0 0 377 377" fill="none" xmlns="http://www.w3.org/2000/svg">
<g filter="url(#filter0_f_614_940)">
<circle cx="188.5" cy="188.5" r="88.5" fill="#6A1DAC"/>
</g>
<g filter="url(#filter1_f_614_940)">
<g filter="url(#filter2_b_614_940)">
<path fill-rule="evenodd" clip-rule="evenodd" d="M149.857 267.282L193.018 253.249C209.902 247.76 217.391 232.229 211.661 214.607L198.439 173.936C192.709 156.313 177.519 148.156 160.64 153.644L117.473 167.678C100.594 173.166 93.1053 188.696 98.8349 206.319L112.058 246.99C117.787 264.613 132.977 272.769 149.857 267.282ZM136.19 211.152C129.324 213.384 121.929 209.612 119.697 202.748C117.466 195.884 121.228 188.484 128.094 186.251C134.955 184.021 142.355 187.792 144.587 194.656C146.819 201.52 143.051 208.922 136.19 211.152ZM198.946 212.412C202.004 216.146 202.808 221.567 202.402 226.381C201.927 232.105 199.12 237.234 194.563 240.557C192.54 242.033 190.272 243.129 187.903 243.899L145.931 257.545C141.755 258.902 137.733 259.102 134.097 258.221C131.818 257.667 130.603 255.072 131.441 252.862C132.842 249.167 134.21 245.472 135.589 241.745C138.212 234.618 140.687 231.995 144.502 232.352C146.053 232.507 147.706 232.958 149.415 233.448C153.977 234.772 160.305 236.573 165.914 230.561C169.743 226.417 170.996 221.037 172.087 216.352L172.105 216.274C172.183 215.946 172.26 215.618 172.336 215.292L172.337 215.288C172.704 213.715 173.066 212.163 173.564 210.679C174.19 208.822 176.791 202.805 183.212 204.4C187.294 205.391 191.076 207.299 195.124 209.341C196.668 210.123 197.929 211.174 198.946 212.412Z" fill="url(#paint0_linear_614_940)"/>
</g>
<g filter="url(#filter3_biiii_614_940)">
<path fill-rule="evenodd" clip-rule="evenodd" d="M149.857 267.282L193.018 253.249C209.902 247.76 217.391 232.229 211.661 214.607L198.439 173.936C192.709 156.313 177.519 148.156 160.64 153.644L117.473 167.678C100.594 173.166 93.1053 188.696 98.8349 206.319L112.058 246.99C117.787 264.613 132.977 272.769 149.857 267.282ZM136.19 211.152C129.324 213.384 121.929 209.612 119.697 202.748C117.466 195.884 121.228 188.484 128.094 186.251C134.955 184.021 142.355 187.792 144.587 194.656C146.819 201.52 143.051 208.922 136.19 211.152ZM198.946 212.412C202.004 216.146 202.808 221.567 202.402 226.381C201.927 232.105 199.12 237.234 194.563 240.557C192.54 242.033 190.272 243.129 187.903 243.899L145.931 257.545C141.755 258.902 137.733 259.102 134.097 258.221C131.818 257.667 130.603 255.072 131.441 252.862C132.842 249.167 134.21 245.472 135.589 241.745C138.212 234.618 140.687 231.995 144.502 232.352C146.053 232.507 147.706 232.958 149.415 233.448C153.977 234.772 160.305 236.573 165.914 230.561C169.743 226.417 170.996 221.037 172.087 216.352L172.105 216.274C172.183 215.946 172.26 215.618 172.336 215.292L172.337 215.288C172.704 213.715 173.066 212.163 173.564 210.679C174.19 208.822 176.791 202.805 183.212 204.4C187.294 205.391 191.076 207.299 195.124 209.341C196.668 210.123 197.929 211.174 198.946 212.412Z" fill="#FAF5FF" fill-opacity="0.1"/>
</g>
</g>
<g filter="url(#filter4_d_614_940)">
<g filter="url(#filter5_b_614_940)">
<path fill-rule="evenodd" clip-rule="evenodd" d="M166.65 215.817L216.971 230.694C236.657 236.513 253.959 226.614 260.034 206.067L274.052 158.649C280.127 138.103 270.989 120.386 251.309 114.568L200.981 99.6889C181.302 93.8709 163.999 103.771 157.925 124.317L143.906 171.735C137.832 192.282 146.97 209.999 166.65 215.817ZM190.364 153.375C182.359 151.008 177.78 142.572 180.146 134.569C182.512 126.567 190.942 121.976 198.947 124.343C206.946 126.708 211.531 135.146 209.165 143.148C206.799 151.151 198.363 155.74 190.364 153.375ZM249.351 195.652C249.822 201.213 247.04 206.906 243.502 211.229C239.302 216.373 233.27 219.424 226.752 219.609C223.858 219.691 220.978 219.251 218.217 218.434L169.282 203.967C164.412 202.527 160.449 200.085 157.559 196.866C155.75 194.845 156.291 191.578 158.536 190.019C162.29 187.415 166.012 184.789 169.767 182.139C176.931 177.063 181.007 176.183 184.409 179.02C185.786 180.183 187.066 181.695 188.375 183.281C191.856 187.529 196.708 193.388 205.989 191.329C212.351 189.886 217.067 185.578 221.173 181.827L221.242 181.764C221.531 181.503 221.818 181.241 222.104 180.979L222.108 180.976C223.487 179.717 224.849 178.475 226.295 177.387C228.106 176.027 234.524 171.995 239.6 177.718C242.842 181.335 245.198 185.628 247.718 190.224C248.678 191.98 249.192 193.807 249.351 195.652Z" fill="url(#paint1_linear_614_940)"/>
</g>
<g filter="url(#filter6_biiii_614_940)">
<path fill-rule="evenodd" clip-rule="evenodd" d="M166.65 215.817L216.971 230.694C236.657 236.513 253.959 226.614 260.034 206.067L274.052 158.649C280.127 138.103 270.989 120.386 251.309 114.568L200.981 99.6889C181.302 93.8709 163.999 103.771 157.925 124.317L143.906 171.735C137.832 192.282 146.97 209.999 166.65 215.817ZM190.364 153.375C182.359 151.008 177.78 142.572 180.146 134.569C182.512 126.567 190.942 121.976 198.947 124.343C206.946 126.708 211.531 135.146 209.165 143.148C206.799 151.151 198.363 155.74 190.364 153.375ZM249.351 195.652C249.822 201.213 247.04 206.906 243.502 211.229C239.302 216.373 233.27 219.424 226.752 219.609C223.858 219.691 220.978 219.251 218.217 218.434L169.282 203.967C164.412 202.527 160.449 200.085 157.559 196.866C155.75 194.845 156.291 191.578 158.536 190.019C162.29 187.415 166.012 184.789 169.767 182.139C176.931 177.063 181.007 176.183 184.409 179.02C185.786 180.183 187.066 181.695 188.375 183.281C191.856 187.529 196.708 193.388 205.989 191.329C212.351 189.886 217.067 185.578 221.173 181.827L221.242 181.764C221.531 181.503 221.818 181.241 222.104 180.979L222.108 180.976C223.487 179.717 224.849 178.475 226.295 177.387C228.106 176.027 234.524 171.995 239.6 177.718C242.842 181.335 245.198 185.628 247.718 190.224C248.678 191.98 249.192 193.807 249.351 195.652Z" fill="#FAF5FF" fill-opacity="0.1"/>
</g>
</g>
<defs>
<filter id="filter0_f_614_940" x="0" y="0" width="377" height="377" filterUnits="userSpaceOnUse" color-interpolation-filters="sRGB">
<feFlood flood-opacity="0" result="BackgroundImageFix"/>
<feBlend mode="normal" in="SourceGraphic" in2="BackgroundImageFix" result="shape"/>
<feGaussianBlur stdDeviation="50" result="effect1_foregroundBlur_614_940"/>
</filter>
<filter id="filter1_f_614_940" x="89.9314" y="144.953" width="130.634" height="131.02" filterUnits="userSpaceOnUse" color-interpolation-filters="sRGB">
<feFlood flood-opacity="0" result="BackgroundImageFix"/>
<feBlend mode="normal" in="SourceGraphic" in2="BackgroundImageFix" result="shape"/>
<feGaussianBlur stdDeviation="3.5" result="effect1_foregroundBlur_614_940"/>
</filter>
<filter id="filter2_b_614_940" x="76.9314" y="131.953" width="156.634" height="157.02" filterUnits="userSpaceOnUse" color-interpolation-filters="sRGB">
<feFlood flood-opacity="0" result="BackgroundImageFix"/>
<feGaussianBlur in="BackgroundImage" stdDeviation="10"/>
<feComposite in2="SourceAlpha" operator="in" result="effect1_backgroundBlur_614_940"/>
<feBlend mode="normal" in="SourceGraphic" in2="effect1_backgroundBlur_614_940" result="shape"/>
</filter>
<filter id="filter3_biiii_614_940" x="82.9421" y="137.963" width="144.612" height="144.999" filterUnits="userSpaceOnUse" color-interpolation-filters="sRGB">
<feFlood flood-opacity="0" result="BackgroundImageFix"/>
<feGaussianBlur in="BackgroundImage" stdDeviation="6.99466"/>
<feComposite in2="SourceAlpha" operator="in" result="effect1_backgroundBlur_614_940"/>
<feBlend mode="normal" in="SourceGraphic" in2="effect1_backgroundBlur_614_940" result="shape"/>
<feColorMatrix in="SourceAlpha" type="matrix" values="0 0 0 0 0 0 0 0 0 0 0 0 0 0 0 0 0 0 127 0" result="hardAlpha"/>
<feOffset dx="-2.79787" dy="2.79787"/>
<feGaussianBlur stdDeviation="1.39893"/>
<feComposite in2="hardAlpha" operator="arithmetic" k2="-1" k3="1"/>
<feColorMatrix type="matrix" values="0 0 0 0 0.784314 0 0 0 0 0.768627 0 0 0 0 0.8 0 0 0 0.4 0"/>
<feBlend mode="normal" in2="shape" result="effect2_innerShadow_614_940"/>
<feColorMatrix in="SourceAlpha" type="matrix" values="0 0 0 0 0 0 0 0 0 0 0 0 0 0 0 0 0 0 127 0" result="hardAlpha"/>
<feOffset dx="-1.39893" dy="1.39893"/>
<feGaussianBlur stdDeviation="0.699466"/>
<feComposite in2="hardAlpha" operator="arithmetic" k2="-1" k3="1"/>
<feColorMatrix type="matrix" values="0 0 0 0 1 0 0 0 0 1 0 0 0 0 1 0 0 0 0.4 0"/>
<feBlend mode="normal" in2="effect2_innerShadow_614_940" result="effect3_innerShadow_614_940"/>
<feColorMatrix in="SourceAlpha" type="matrix" values="0 0 0 0 0 0 0 0 0 0 0 0 0 0 0 0 0 0 127 0" result="hardAlpha"/>
<feOffset dx="2.79787" dy="-2.79787"/>
<feGaussianBlur stdDeviation="1.39893"/>
<feComposite in2="hardAlpha" operator="arithmetic" k2="-1" k3="1"/>
<feColorMatrix type="matrix" values="0 0 0 0 1 0 0 0 0 1 0 0 0 0 1 0 0 0 0.4 0"/>
<feBlend mode="normal" in2="effect3_innerShadow_614_940" result="effect4_innerShadow_614_940"/>
<feColorMatrix in="SourceAlpha" type="matrix" values="0 0 0 0 0 0 0 0 0 0 0 0 0 0 0 0 0 0 127 0" result="hardAlpha"/>
<feOffset dx="1.39893" dy="-1.39893"/>
<feGaussianBlur stdDeviation="0.699466"/>
<feComposite in2="hardAlpha" operator="arithmetic" k2="-1" k3="1"/>
<feColorMatrix type="matrix" values="0 0 0 0 0.784314 0 0 0 0 0.768627 0 0 0 0 0.8 0 0 0 0.4 0"/>
<feBlend mode="normal" in2="effect4_innerShadow_614_940" result="effect5_innerShadow_614_940"/>
</filter>
<filter id="filter4_d_614_940" x="100.048" y="59.04" width="229.863" height="230.303" filterUnits="userSpaceOnUse" color-interpolation-filters="sRGB">
<feFlood flood-opacity="0" result="BackgroundImageFix"/>
<feColorMatrix in="SourceAlpha" type="matrix" values="0 0 0 0 0 0 0 0 0 0 0 0 0 0 0 0 0 0 127 0" result="hardAlpha"/>
<feOffset dx="6" dy="9"/>
<feGaussianBlur stdDeviation="24"/>
<feComposite in2="hardAlpha" operator="out"/>
<feColorMatrix type="matrix" values="0 0 0 0 0.325521 0 0 0 0 0.173177 0 0 0 0 0.395833 0 0 0 1 0"/>
<feBlend mode="normal" in2="BackgroundImageFix" result="effect1_dropShadow_614_940"/>
<feBlend mode="normal" in="SourceGraphic" in2="effect1_dropShadow_614_940" result="shape"/>
</filter>
<filter id="filter5_b_614_940" x="122.048" y="78.04" width="173.863" height="174.303" filterUnits="userSpaceOnUse" color-interpolation-filters="sRGB">
<feFlood flood-opacity="0" result="BackgroundImageFix"/>
<feGaussianBlur in="BackgroundImage" stdDeviation="10"/>
<feComposite in2="SourceAlpha" operator="in" result="effect1_backgroundBlur_614_940"/>
<feBlend mode="normal" in="SourceGraphic" in2="effect1_backgroundBlur_614_940" result="shape"/>
</filter>
<filter id="filter6_biiii_614_940" x="128.059" y="84.0507" width="161.841" height="162.282" filterUnits="userSpaceOnUse" color-interpolation-filters="sRGB">
<feFlood flood-opacity="0" result="BackgroundImageFix"/>
<feGaussianBlur in="BackgroundImage" stdDeviation="6.99466"/>
<feComposite in2="SourceAlpha" operator="in" result="effect1_backgroundBlur_614_940"/>
<feBlend mode="normal" in="SourceGraphic" in2="effect1_backgroundBlur_614_940" result="shape"/>
<feColorMatrix in="SourceAlpha" type="matrix" values="0 0 0 0 0 0 0 0 0 0 0 0 0 0 0 0 0 0 127 0" result="hardAlpha"/>
<feOffset dx="-2.79787" dy="2.79787"/>
<feGaussianBlur stdDeviation="1.39893"/>
<feComposite in2="hardAlpha" operator="arithmetic" k2="-1" k3="1"/>
<feColorMatrix type="matrix" values="0 0 0 0 0.784314 0 0 0 0 0.768627 0 0 0 0 0.8 0 0 0 0.4 0"/>
<feBlend mode="normal" in2="shape" result="effect2_innerShadow_614_940"/>
<feColorMatrix in="SourceAlpha" type="matrix" values="0 0 0 0 0 0 0 0 0 0 0 0 0 0 0 0 0 0 127 0" result="hardAlpha"/>
<feOffset dx="-1.39893" dy="1.39893"/>
<feGaussianBlur stdDeviation="0.699466"/>
<feComposite in2="hardAlpha" operator="arithmetic" k2="-1" k3="1"/>
<feColorMatrix type="matrix" values="0 0 0 0 1 0 0 0 0 1 0 0 0 0 1 0 0 0 0.4 0"/>
<feBlend mode="normal" in2="effect2_innerShadow_614_940" result="effect3_innerShadow_614_940"/>
<feColorMatrix in="SourceAlpha" type="matrix" values="0 0 0 0 0 0 0 0 0 0 0 0 0 0 0 0 0 0 127 0" result="hardAlpha"/>
<feOffset dx="2.79787" dy="-2.79787"/>
<feGaussianBlur stdDeviation="1.39893"/>
<feComposite in2="hardAlpha" operator="arithmetic" k2="-1" k3="1"/>
<feColorMatrix type="matrix" values="0 0 0 0 1 0 0 0 0 1 0 0 0 0 1 0 0 0 0.4 0"/>
<feBlend mode="normal" in2="effect3_innerShadow_614_940" result="effect4_innerShadow_614_940"/>
<feColorMatrix in="SourceAlpha" type="matrix" values="0 0 0 0 0 0 0 0 0 0 0 0 0 0 0 0 0 0 127 0" result="hardAlpha"/>
<feOffset dx="1.39893" dy="-1.39893"/>
<feGaussianBlur stdDeviation="0.699466"/>
<feComposite in2="hardAlpha" operator="arithmetic" k2="-1" k3="1"/>
<feColorMatrix type="matrix" values="0 0 0 0 0.784314 0 0 0 0 0.768627 0 0 0 0 0.8 0 0 0 0.4 0"/>
<feBlend mode="normal" in2="effect4_innerShadow_614_940" result="effect5_innerShadow_614_940"/>
</filter>
<linearGradient id="paint0_linear_614_940" x1="111.779" y1="239.863" x2="207.423" y2="208.297" gradientUnits="userSpaceOnUse">
<stop stop-color="#BF81FF"/>
<stop offset="0.515625" stop-color="#D17558"/>
<stop offset="1" stop-color="#F84FE7"/>
</linearGradient>
<linearGradient id="paint1_linear_614_940" x1="148.305" y1="164.76" x2="260.124" y2="197.279" gradientUnits="userSpaceOnUse">
<stop stop-color="#BF81FF"/>
<stop offset="0.515625" stop-color="#D17558"/>
<stop offset="1" stop-color="#F84FE7"/>
</linearGradient>
</defs>
</svg>
