<?xml version="1.0" encoding="utf-8"?>
<!-- Generator: Adobe Illustrator 26.0.3, SVG Export Plug-In . SVG Version: 6.00 Build 0)  -->
<svg version="1.1" id="Layer_1" xmlns="http://www.w3.org/2000/svg" xmlns:xlink="http://www.w3.org/1999/xlink" x="0px" y="0px"
	 viewBox="0 0 136 176" style="enable-background:new 0 0 136 176;" xml:space="preserve">
<style type="text/css">
	.st0{fill:#FFFFFF;}
</style>
<g>
	<path class="st0" d="M32.1,2.5C32.4,1,33.6,0,34.9,0h69.6c1.5,0,2.6,1,3.1,3.5l3.7,22.2c0.3,1.9-1,3.6-2.8,3.6H62.6
		c-1.4,0-2.6,1-2.8,2.5L46.3,103c-0.4,1.9,1,3.7,2.8,3.7l43.5,0.5c1.4,0,2.5,1,2.8,2.5l3.1,16c0.3,1.4,1.5,2.5,2.8,2.5h24.7
		c1.4,0,2.6,1.1,2.8,2.5l7,41.7c0.3,1.9-1,3.6-2.8,3.6h-23.7c-1.4,0-2.6-1.1-2.8-2.5l-7.2-42.8c-0.2-1.5-1.4-2.5-2.8-2.5H44
		c-1.4,0-2.6,1-2.8,2.5L33,173.5c-0.3,1.4-1.5,2.5-2.8,2.5H2.9c-1.8,0-3.2-1.8-2.8-3.7L32.1,2.5z"/>
	<path class="st0" d="M114.1,42.1c-0.4-2.2-2.8-3.3-4.9-3.1l-11.4,0.1H87.4c-1.8,0-3.2,1.7-2.8,3.6L94.9,104
		c0.2,1.5,1.4,2.5,2.8,2.5h23.7c1.8,0,3.2-1.7,2.8-3.6L114.1,42.1z"/>
</g>
</svg>
