<?xml version="1.0" encoding="utf-8"?>
<!-- Generator: Adobe Illustrator 26.0.3, SVG Export Plug-In . SVG Version: 6.00 Build 0)  -->
<svg version="1.1" id="Layer_1" xmlns:svg="http://www.w3.org/2000/svg"
	 xmlns="http://www.w3.org/2000/svg" xmlns:xlink="http://www.w3.org/1999/xlink" x="0px" y="0px" viewBox="0 0 384 101"
	 style="enable-background:new 0 0 384 101;" xml:space="preserve">
<style type="text/css">
	.st0{fill:#FFFFFF;}
</style>
<g id="Layer_x0020_1">
</g>
<g id="Layer_x0020_1_0">
	<g id="_646238088">
		<path class="st0" d="M192.2,21.1v59c0,0.5-0.3,0.9-0.9,0.9h-6.2c-2.8,0-5.5-1.5-7.1-3.8l-27.8-43l0.9,21.5v24.6
			c0,0.5-0.3,0.9-0.9,0.9h-8.1c-0.5,0-0.9-0.3-0.9-0.9V21.1c0-0.5,0.3-0.9,0.9-0.9h6.1c2.8,0,5.5,1.4,7.1,3.8l27.8,42.9l-0.9-21.5
			V21.1c0-0.5,0.3-0.9,0.9-0.9h8.1C191.9,20.2,192.2,20.5,192.2,21.1z"/>
		<path class="st0" d="M275.1,80.8h-8.5c-0.6,0-1-0.6-0.8-1.1L288.4,21c0.2-0.5,0.7-0.8,1.1-0.8h10.8c0.6,0,1,0.3,1.1,0.8l22.8,58.7
			c0.2,0.6-0.2,1.1-0.8,1.1H315c-0.3,0-0.7-0.2-0.8-0.6L295.8,32c-0.2-0.7-1.3-0.7-1.6,0L276,80.3C275.7,80.6,275.4,80.8,275.1,80.8
			L275.1,80.8z"/>
		<path class="st0" d="M383.8,79.5l-17.1-21.8c9.7-1.8,15.3-8.3,15.3-18.3c0-11.5-7.4-19.2-20.7-19.2h-23.8c-0.7,0-1.2,0.6-1.2,1.2
			c0,4.5,3.6,8.1,8.1,8.1h16c8,0,11.8,4.1,11.8,10s-3.7,10-11.8,10h-22.7c-0.7,0-1.2,0.6-1.2,1.2V80c0,0.5,0.3,0.9,0.9,0.9h8.1
			c0.5,0,0.9-0.3,0.9-0.9V58.3h9.3l14.8,19.3c1.6,2.1,4.1,3.3,6.7,3.3h6.2C383.9,80.9,384.2,80.1,383.8,79.5L383.8,79.5z"/>
		<path class="st0" d="M249.5,20.2h-37.6c-0.7,0-1.1,0.5-1.1,1.1c0,4.5,3.7,8.2,8.2,8.2h30.5c0.5,0,0.9-0.3,0.9-0.9V21
			C250.3,20.6,249.9,20.2,249.5,20.2L249.5,20.2z M249.5,71.5L249.5,71.5h-28.1c-0.5,0-0.9-0.3-0.9-0.9V55.5c0-0.5,0.3-0.9,0.9-0.9
			h25.9c0.5,0,0.9-0.3,0.9-0.9V46c0-0.5-0.3-0.9-0.9-0.9H212c-0.7,0-1.2,0.6-1.2,1.2v33.1c0,0.7,0.6,1.2,1.2,1.2h37.5
			c0.5,0,0.9-0.3,0.9-0.9v-7.6C250.3,71.8,250,71.5,249.5,71.5L249.5,71.5z"/>
		<path class="st0" d="M81.1,5.2L60,36.5c-1.4,2.1,1.4,4.7,3.4,2.9l20.8-18.1c0.6-0.5,1.4-0.1,1.4,0.7v56.5c0,0.8-1,1.1-1.5,0.6
			L21.1,3.8c-2-2.5-4.9-3.8-8.2-3.8h-2.2C4.8,0,0,4.8,0,10.8v79.5c0,6,4.8,10.8,10.8,10.8c3.7,0,7.2-1.9,9.2-5.2l21.1-31.3
			c1.4-2.1-1.4-4.7-3.4-2.9L17,79.6c-0.6,0.5-1.4,0.1-1.4-0.7V22.5c0-0.8,1-1.1,1.4-0.6l62.9,75.2c2,2.5,5,3.8,8.2,3.8h2.2
			c6,0,10.8-4.8,10.8-10.8V10.8C101,4.8,96.2,0,90.3,0C86.5,0,83.1,1.9,81.1,5.2L81.1,5.2z"/>
	</g>
</g>
</svg>
