<?xml version="1.0" encoding="utf-8"?>
<!-- Generator: Adobe Illustrator 26.0.3, SVG Export Plug-In . SVG Version: 6.00 Build 0)  -->
<svg version="1.1" id="Layer_1" xmlns="http://www.w3.org/2000/svg" xmlns:xlink="http://www.w3.org/1999/xlink" x="0px" y="0px"
	 viewBox="0 0 740.5 299.4" style="enable-background:new 0 0 740.5 299.4;" xml:space="preserve">
<style type="text/css">
	.st0{fill:#FFFFFF;}
	.st1{opacity:0.7;}
</style>
<path class="st0" d="M740.5,138.1v95.3h-50.9v-81.8c0.2-22.5-17.4-41.2-39.9-42.5h-2.1c-11.2,0-22.2,3.7-31,10.7v113.8h-51.3V63.7
	h51.3v7.4c23.4-8.9,49.1-9.7,73-2.4l0.6,0.2c30.1,9.7,50.4,37.7,50.3,69.3"/>
<path class="st0" d="M84.9,189.8c-22.3,0-40.3-18.1-40.4-40.3c0-22.3,18.1-40.3,40.3-40.4s40.3,18.1,40.4,40.3c0,0,0,0,0,0
	C125.2,171.8,107.1,189.8,84.9,189.8 M84.9,64.6C38,64.6,0,102.6,0,149.5s38,84.9,84.9,84.9s84.9-38,84.9-84.9l0,0
	C169.7,102.6,131.7,64.6,84.9,64.6"/>
<path class="st0" d="M252.6,64.1h48.8v44.4h-48.8v61.1c0,3.2,0.2,6.4,0.6,9.5c0.4,2.7,1.6,5.1,3.5,7c1.9,1.9,4.8,3.3,8.9,4.3
	c4,1,9.6,1.4,16.8,1.4c4.9,0,9.9-0.3,15.2-0.8c4.8-0.4,9.6-1.3,14.3-2.7v46.3c-4.8,1.1-9.7,1.9-14.6,2.4c-5.5,0.5-11.2,0.8-17.1,0.8
	c-14.4,0-26.5-1.4-36.5-4.1s-18-6.7-24.1-11.9c-6.1-5.2-17.7-15.4-17.7-45.8V18.2h50.7L252.6,64.1z"/>
<g class="st1">
	<path class="st0" d="M352.2,255.9c-4,6.9-12.9,9.3-19.9,5.3c-6.9-4-9.3-12.9-5.3-19.9c4-6.9,12.9-9.3,19.9-5.3
		c3.3,1.9,5.8,5.1,6.8,8.8C354.6,248.6,354.1,252.6,352.2,255.9"/>
	<path class="st0" d="M550.5,58.1c-4,6.9-12.9,9.3-19.9,5.2c-6.9-4-9.3-12.9-5.2-19.9c4-6.9,12.9-9.3,19.9-5.2
		c3.3,1.9,5.7,5.1,6.7,8.8C553,50.8,552.4,54.8,550.5,58.1"/>
	<path class="st0" d="M332.3,63.5c-7-4-9.4-12.9-5.3-19.9c4-7,12.9-9.4,19.9-5.3s9.4,12.9,5.3,19.9c-1.9,3.3-5.1,5.8-8.8,6.8
		C339.7,66,335.7,65.5,332.3,63.5"/>
	<path class="st0" d="M530.6,261.3c-7-4-9.4-12.9-5.3-19.9s12.9-9.4,19.9-5.3c7,4,9.4,12.9,5.3,19.9
		C546.5,262.9,537.5,265.3,530.6,261.3C530.6,261.3,530.6,261.3,530.6,261.3L530.6,261.3"/>
	<path class="st0" d="M389.9,22c-4-7-1.6-15.9,5.3-19.9c7-4,15.9-1.6,19.9,5.3c4,7,1.6,15.9-5.3,19.9l0,0
		C402.8,31.3,393.9,28.9,389.9,22"/>
	<path class="st0" d="M462.4,292.1c-4-7-1.6-15.9,5.4-19.9c7-4,15.9-1.6,19.9,5.4c4,7,1.6,15.9-5.4,19.9c-3.3,1.9-7.3,2.4-11,1.4
		C467.5,297.9,464.3,295.5,462.4,292.1"/>
	<path class="st0" d="M460.7,14.6c0-8.1,6.5-14.6,14.5-14.6c8.1,0,14.6,6.5,14.6,14.5c0,8.1-6.5,14.6-14.5,14.6c0,0,0,0,0,0l0,0
		C467.3,29.2,460.8,22.7,460.7,14.6"/>
	<path class="st0" d="M388.1,284.8c0-8.1,6.5-14.6,14.5-14.6c8.1,0,14.6,6.5,14.6,14.5c0,8-6.5,14.6-14.5,14.6l0,0
		C394.7,299.4,388.2,292.9,388.1,284.8"/>
</g>
<circle class="st0" cx="438.8" cy="65.2" r="21"/>
<circle class="st0" cx="522.5" cy="148.7" r="21"/>
<path class="st0" d="M438.8,211.3c11.6,0,21,9.4,21,21s-9.4,21-21,21s-21-9.4-21-21S427.2,211.3,438.8,211.3L438.8,211.3z"/>
<path class="st0" d="M355,127.8c11.6,0,21,9.4,21,21s-9.4,21-21,21s-21-9.4-21-21S343.4,127.8,355,127.8L355,127.8z"/>
<circle class="st0" cx="498" cy="89.7" r="21"/>
<path class="st0" d="M498,186.9c11.6,0,21,9.4,21,21s-9.4,21-21,21s-21-9.4-21-21S486.4,186.9,498,186.9L498,186.9z"/>
<path class="st0" d="M379.5,186.9c11.6,0,21,9.4,21,21s-9.4,21-21,21s-21-9.4-21-21S367.9,186.9,379.5,186.9L379.5,186.9z"/>
<path class="st0" d="M379.5,68.7c11.6,0,21,9.4,21,21s-9.4,21-21,21s-21-9.4-21-21S367.9,68.7,379.5,68.7L379.5,68.7z"/>
<path class="st0" d="M438.8,111.7c20.5,0,37.1,16.7,37,37.2c0,20.5-16.7,37.1-37.2,37c-20.5,0-37-16.7-37-37.1
	C401.6,128.3,418.3,111.7,438.8,111.7z"/>
</svg>
