<?xml version="1.0" encoding="utf-8"?>
<!-- Generator: Adobe Illustrator 26.0.3, SVG Export Plug-In . SVG Version: 6.00 Build 0)  -->
<svg version="1.1" id="Layer_1" xmlns="http://www.w3.org/2000/svg" xmlns:xlink="http://www.w3.org/1999/xlink" x="0px" y="0px"
	 viewBox="0 0 112 30" style="enable-background:new 0 0 112 30;" xml:space="preserve">
<style type="text/css">
	.st0{clip-path:url(#SVGID_00000115490267637624026060000004884192553091754680_);}
	.st1{fill-rule:evenodd;clip-rule:evenodd;fill:#FFFFFF;}
	.st2{fill:#FFFFFF;}
	.st3{fill:url(#SVGID_00000153666406220900779340000014852533989480989353_);}
</style>
<g>
	<defs>
		<rect id="SVGID_1_" width="112" height="30"/>
	</defs>
	<clipPath id="SVGID_00000072996749529419533610000011299387161744955819_">
		<use xlink:href="#SVGID_1_"  style="overflow:visible;"/>
	</clipPath>
	<g style="clip-path:url(#SVGID_00000072996749529419533610000011299387161744955819_);">
		<path class="st1" d="M1,4.9c-1,1.9-1,4.4-1,9.5v1.2c0,5,0,7.6,1,9.5c0.9,1.7,2.2,3.1,3.9,3.9c1.9,1,4.4,1,9.5,1h1.2
			c5,0,7.6,0,9.5-1c1.7-0.9,3.1-2.2,3.9-3.9c1-1.9,1-4.4,1-9.5v-1.2c0-5,0-7.6-1-9.5c-0.9-1.7-2.2-3.1-3.9-3.9c-1.9-1-4.4-1-9.5-1
			h-1.2c-5,0-7.6,0-9.5,1C3.2,1.8,1.8,3.2,1,4.9z M8.3,20.2H3.9V9.8h4.4v2.3c0.8-1.6,2.2-2.2,4.2-2.2v3.6c-2.7-0.1-4.2,0.6-4.2,1.9
			V20.2z M20.5,17.6c1.4,0,2.1-0.5,2.3-1h4.1c-0.4,2.3-2.6,3.6-6.5,3.6c-4.1,0-7-1.8-7-5V15c0-3.2,3-5.2,7-5.2
			c3.7,0,6.6,1.6,6.6,5.1v1h-9.1C18,17.2,19.1,17.6,20.5,17.6z M22.6,13.8c-0.1-1-0.8-1.5-2.3-1.5c-1.1,0-2.1,0.3-2.5,1.5H22.6z"/>
		<path class="st2" d="M45.9,20.1c1,0,1.9-0.2,2.4-0.3V17c-0.4,0.1-0.8,0.2-1.2,0.2c-0.9,0-1.4-0.3-1.4-1v-3.5h2.6v-2.6h-2.6V7.9
			h-4.4v2.2h-1.6v2.6h1.6v3.8C41.3,19.1,42.9,20.1,45.9,20.1z"/>
		<path class="st2" d="M58.6,16.6c-0.2,0.5-0.8,1-2.3,1c-1.4,0-2.5-0.5-2.8-1.7h9.2v-1c0-3.5-2.9-5.1-6.6-5.1c-3.9,0-7,1.9-7,5.2
			v0.1c0,3.2,2.9,5,7,5c4,0,6.1-1.3,6.5-3.6H58.6z M56.2,12.3c1.6,0,2.3,0.6,2.3,1.5h-4.8C54.1,12.6,55.1,12.3,56.2,12.3z"/>
		<path class="st2" d="M62.3,19.9h4.5l2.4-2.9l2.4,2.9h5.1l-4.5-5.3l4.1-4.5h-4.5l-2,2.5l-2.1-2.5h-5l4,4.8L62.3,19.9z"/>
		<path class="st2" d="M82.7,20.1c1.1,0,1.9-0.2,2.4-0.3V17c-0.4,0.1-0.8,0.2-1.2,0.2c-0.9,0-1.4-0.3-1.4-1v-3.5h2.6v-2.6h-2.6V7.9
			h-4.4v2.2h-1.6v2.6h1.6v3.8C78.2,19.1,79.8,20.1,82.7,20.1z"/>
		<path class="st2" d="M89,20.1c1.5,0,2.5-0.9,2.5-2c0-1.1-1-2-2.5-2c-1.5,0-2.4,0.9-2.4,2C86.6,19.2,87.5,20.1,89,20.1z"/>
		<path class="st2" d="M97.1,20.1c2.2,0,3.4-0.6,4-1.4v1.2h4.3v-6.3c0-2.6-2.3-3.8-6-3.8c-3.6,0-6.1,1.2-6.3,3.6h4.1
			c0.1-0.5,0.6-1,1.9-1c1.5,0,1.9,0.5,1.9,1.4v0.1h-2.4c-4.1,0-6,0.9-6,3.1C92.7,19.2,94.8,20.1,97.1,20.1z M98.7,17.6
			c-1.1,0-1.7-0.3-1.7-0.8c0-0.6,0.5-0.8,1.7-0.8h2.3v0.4C101.1,17.2,100,17.6,98.7,17.6z"/>
		<path class="st2" d="M109.4,9.3c1.4,0,2.4-0.7,2.4-1.9s-1.1-1.8-2.4-1.8c-1.4,0-2.4,0.6-2.4,1.8S108.1,9.3,109.4,9.3z M107.2,19.9
			h4.4v-9.8h-4.4V19.9z"/>
		
			<linearGradient id="SVGID_00000020365578119119823310000012422850780120952229_" gradientUnits="userSpaceOnUse" x1="32.8908" y1="25.674" x2="36.844" y2="8.3922" gradientTransform="matrix(1 0 0 -1 0 32)">
			<stop  offset="0" style="stop-color:#2400FF"/>
			<stop  offset="0.4844" style="stop-color:#3A9FF0"/>
			<stop  offset="1" style="stop-color:#00CD77"/>
		</linearGradient>
		<path style="fill:url(#SVGID_00000020365578119119823310000012422850780120952229_);" d="M33,6.8h3.8v16.4H33V6.8z"/>
	</g>
</g>
</svg>
