<?xml version="1.0" encoding="utf-8"?>
<!-- Generator: Adobe Illustrator 26.0.3, SVG Export Plug-In . SVG Version: 6.00 Build 0)  -->
<svg version="1.1" id="Layer_1" xmlns="http://www.w3.org/2000/svg" xmlns:xlink="http://www.w3.org/1999/xlink" x="0px" y="0px"
	 viewBox="0 0 275 100" style="enable-background:new 0 0 275 100;" xml:space="preserve">
<style type="text/css">
	.st0{fill:#FFFFFF;}
</style>
<path class="st0" d="M82.8,79.8L64.9,49.8l17.9-30.1l8.6,30.1L82.8,79.8z M43,76.9L20.5,54.6h35.8l17.9,30.1L43,76.9z M43,22.5
	l31.1-7.8L56.2,44.8H20.4L43,22.5z M88.6,0L48,10.5l-6,10.4l-12.2-0.1L0,49.8l29.8,29L42,78.7L48,89l40.6,10.6l10.9-39.5l-6.1-10.3
	l6.1-10.3L88.6,0z M180.9,29.2c-5.4,0-9.1,2.3-11.8,6.5h-0.2v-5.4h-9.5v39.8h9.7V47.6c0-5.4,3.4-9.2,8.1-9.2c4.4,0,7.7,2.7,7.7,7.3
	v24.5h9.7v-26C194.6,35.5,189.1,29.2,180.9,29.2z M144.6,53.3c0,5.3-3,9-8,9c-4.5,0-7.3-2.6-7.3-7.2V30.3h-9.7v26.6
	c0,8.7,4.9,14.4,13.8,14.4c5.6,0,8.7-2.1,11.4-5.8h0.3v4.7h9.4V30.3h-9.7L144.6,53.3L144.6,53.3z M199.7,30.3h9.7v39.8h-9.7V30.3z
	 M199.7,18h9.7v8h-9.7V18z M264.5,30.3l-5.8,18c-1.3,3.7-2.3,8.7-2.3,8.7h-0.3c0,0-1.3-5-2.6-8.7l-6.5-18h-10.4l10.7,28.3
	c2.3,6.1,3,8.6,3,10.8c0,3.3-1.7,5.4-5.9,5.4h-3.8v8.3h6.2c8.1,0,10.9-3.2,13.9-12l14-40.8L264.5,30.3L264.5,30.3z M227.6,58.5V37.4
	h6.2v-7h-6.2V18h-9.7v12.4h-5.5v7h5.5v23.4c0,7.5,5.7,9.5,10.8,9.5c4.2,0,5.3-0.2,5.3-0.2v-7.7h-2.5
	C229.3,62.4,227.6,61.4,227.6,58.5L227.6,58.5z"/>
</svg>
